{"glyphs":{"0":{"ha":781,"x_min":0,"x_max":694,"o":"m 521 0 q 521 87 521 22 q 521 174 521 109 q 608 174 543 174 q 608 87 608 152 q 608 0 608 65 q 521 0 586 0 m 0 0 q 0 87 0 22 q 87 87 22 87 q 87 0 87 65 q 0 0 65 0 m 87 87 q 87 174 87 109 q 87 260 87 195 q 174 260 109 260 q 174 347 174 282 q 260 347 195 347 q 260 434 260 369 q 260 521 260 456 q 347 521 282 521 q 347 608 347 543 q 347 694 347 629 q 347 781 347 716 q 434 781 369 781 q 434 868 434 803 q 434 955 434 890 q 521 955 456 955 q 608 955 543 955 q 608 868 608 933 q 608 781 608 846 q 694 781 629 781 q 694 694 694 760 q 694 608 694 673 q 608 608 673 608 q 521 608 586 608 q 521 521 521 586 q 434 521 499 521 q 434 434 434 499 q 434 347 434 412 q 521 347 456 347 q 521 260 521 326 q 521 174 521 239 q 434 174 499 174 q 434 260 434 195 q 434 347 434 282 q 347 347 412 347 q 347 260 347 326 q 260 260 326 260 q 260 174 260 239 q 174 174 239 174 q 174 87 174 152 q 87 87 152 87 m 260 521 q 174 521 239 521 q 174 608 174 543 q 87 608 152 608 q 87 694 87 629 q 0 694 65 694 q 0 781 0 716 q 0 868 0 803 q 0 955 0 890 q 87 955 22 955 q 174 955 109 955 q 174 868 174 933 q 260 868 195 868 q 260 781 260 846 q 260 694 260 760 q 260 608 260 673 q 260 521 260 586 m 174 955 q 174 1042 174 977 q 260 1042 195 1042 q 260 955 260 1020 q 174 955 239 955 z "},"1":{"ha":608,"x_min":260,"x_max":521,"o":"m 347 0 q 347 87 347 22 q 347 174 347 109 q 347 260 347 195 q 347 347 347 282 q 347 434 347 369 q 260 434 326 434 q 260 521 260 456 q 260 608 260 543 q 260 694 260 629 q 260 781 260 716 q 260 868 260 803 q 260 955 260 890 q 347 955 282 955 q 347 868 347 933 q 434 868 369 868 q 434 781 434 846 q 521 781 456 781 q 521 694 521 760 q 434 694 499 694 q 434 608 434 673 q 434 521 434 586 q 434 434 434 499 q 434 347 434 412 q 434 260 434 326 q 434 174 434 239 q 434 87 434 152 q 434 0 434 65 q 347 0 412 0 z "},"2":{"ha":781,"x_min":87,"x_max":694,"o":"m 521 0 q 521 87 521 22 q 521 174 521 109 q 521 260 521 195 q 521 347 521 282 q 521 434 521 369 q 521 521 521 456 q 434 521 499 521 q 434 608 434 543 q 434 694 434 629 q 434 781 434 716 q 434 868 434 803 q 434 955 434 890 q 521 955 456 955 q 521 1042 521 977 q 608 1042 543 1042 q 608 955 608 1020 q 694 955 629 955 q 694 868 694 933 q 694 781 694 846 q 608 781 673 781 q 608 694 608 760 q 608 608 608 673 q 608 521 608 586 q 608 434 608 499 q 608 347 608 412 q 608 260 608 326 q 608 174 608 239 q 608 87 608 152 q 608 0 608 65 q 521 0 586 0 m 174 0 q 174 87 174 22 q 174 174 174 109 q 174 260 174 195 q 174 347 174 282 q 174 434 174 369 q 174 521 174 456 q 174 608 174 543 q 174 694 174 629 q 174 781 174 716 q 174 868 174 803 q 87 868 152 868 q 87 955 87 890 q 174 955 109 955 q 174 1042 174 977 q 260 1042 195 1042 q 347 1042 282 1042 q 347 955 347 1020 q 347 868 347 933 q 347 781 347 846 q 347 694 347 760 q 347 608 347 673 q 347 521 347 586 q 347 434 347 499 q 347 347 347 412 q 347 260 347 326 q 347 174 347 239 q 260 174 326 174 q 260 87 260 152 q 260 0 260 65 q 174 0 239 0 z "},"3":{"ha":1042,"x_min":0,"x_max":955,"o":"m 781 0 q 781 87 781 22 q 781 174 781 109 q 781 260 781 195 q 781 347 781 282 q 781 434 781 369 q 781 521 781 456 q 781 608 781 543 q 781 694 781 629 q 781 781 781 716 q 694 781 760 781 q 694 868 694 803 q 694 955 694 890 q 781 955 716 955 q 868 955 803 955 q 868 868 868 933 q 955 868 890 868 q 955 781 955 846 q 955 694 955 760 q 955 608 955 673 q 955 521 955 586 q 955 434 955 499 q 868 434 933 434 q 868 347 868 412 q 868 260 868 326 q 868 174 868 239 q 868 87 868 152 q 868 0 868 65 q 781 0 846 0 m 434 0 q 434 87 434 22 q 434 174 434 109 q 434 260 434 195 q 347 260 412 260 q 347 347 347 282 q 347 434 347 369 q 347 521 347 456 q 347 608 347 543 q 347 694 347 629 q 347 781 347 716 q 347 868 347 803 q 347 955 347 890 q 434 955 369 955 q 434 1042 434 977 q 521 1042 456 1042 q 521 955 521 1020 q 608 955 543 955 q 608 868 608 933 q 521 868 586 868 q 521 781 521 846 q 521 694 521 760 q 521 608 521 673 q 434 608 499 608 q 434 521 434 586 q 434 434 434 499 q 434 347 434 412 q 521 347 456 347 q 521 260 521 326 q 521 174 521 239 q 521 87 521 152 q 521 0 521 65 q 434 0 499 0 m 87 0 q 87 87 87 22 q 87 174 87 109 q 87 260 87 195 q 87 347 87 282 q 87 434 87 369 q 87 521 87 456 q 0 521 65 521 q 0 608 0 543 q 0 694 0 629 q 0 781 0 716 q 0 868 0 803 q 87 868 22 868 q 87 955 87 890 q 174 955 109 955 q 260 955 195 955 q 260 868 260 933 q 260 781 260 846 q 260 694 260 760 q 174 694 239 694 q 174 608 174 673 q 174 521 174 586 q 174 434 174 499 q 174 347 174 412 q 174 260 174 326 q 174 174 174 239 q 174 87 174 152 q 174 0 174 65 q 87 0 152 0 z "},"4":{"ha":1215,"x_min":87,"x_max":1128,"o":"m 608 0 q 608 87 608 22 q 608 174 608 109 q 608 260 608 195 q 608 347 608 282 q 521 347 586 347 q 521 434 521 369 q 521 521 521 456 q 521 608 521 543 q 521 694 521 629 q 434 694 499 694 q 434 781 434 716 q 434 868 434 803 q 434 955 434 890 q 434 1042 434 977 q 521 1042 456 1042 q 608 1042 543 1042 q 608 955 608 1020 q 694 955 629 955 q 694 868 694 933 q 694 781 694 846 q 694 694 694 760 q 694 608 694 673 q 694 521 694 586 q 694 434 694 499 q 694 347 694 412 q 694 260 694 326 q 781 260 716 260 q 781 174 781 239 q 694 174 760 174 q 694 87 694 152 q 694 0 694 65 q 608 0 673 0 m 174 0 q 174 87 174 22 q 174 174 174 109 q 174 260 174 195 q 87 260 152 260 q 87 347 87 282 q 87 434 87 369 q 87 521 87 456 q 87 608 87 543 q 87 694 87 629 q 87 781 87 716 q 87 868 87 803 q 87 955 87 890 q 174 955 109 955 q 174 1042 174 977 q 260 1042 195 1042 q 260 955 260 1020 q 260 868 260 933 q 347 868 282 868 q 347 781 347 846 q 347 694 347 760 q 347 608 347 673 q 260 608 326 608 q 260 521 260 586 q 260 434 260 499 q 260 347 260 412 q 260 260 260 326 q 260 174 260 239 q 260 87 260 152 q 260 0 260 65 q 174 0 239 0 m 781 260 q 781 347 781 282 q 781 434 781 369 q 868 434 803 434 q 868 521 868 456 q 868 608 868 543 q 868 694 868 629 q 868 781 868 716 q 868 868 868 803 q 868 955 868 890 q 955 955 890 955 q 1042 955 977 955 q 1042 868 1042 933 q 1128 868 1063 868 q 1128 781 1128 846 q 1128 694 1128 760 q 1042 694 1107 694 q 1042 608 1042 673 q 955 608 1020 608 q 955 521 955 586 q 955 434 955 499 q 955 347 955 412 q 868 347 933 347 q 868 260 868 326 q 781 260 846 260 z "},"5":{"ha":955,"x_min":87,"x_max":868,"o":"m 347 0 q 347 87 347 22 q 347 174 347 109 q 347 260 347 195 q 347 347 347 282 q 260 347 326 347 q 260 434 260 369 q 260 521 260 456 q 174 521 239 521 q 174 608 174 543 q 174 694 174 629 q 87 694 152 694 q 87 781 87 716 q 87 868 87 803 q 174 868 109 868 q 174 955 174 890 q 260 955 195 955 q 260 868 260 933 q 347 868 282 868 q 347 781 347 846 q 347 694 347 760 q 347 608 347 673 q 347 521 347 586 q 434 521 369 521 q 434 434 434 499 q 434 347 434 412 q 434 260 434 326 q 434 174 434 239 q 521 174 456 174 q 521 87 521 152 q 434 87 499 87 q 434 0 434 65 q 347 0 412 0 m 521 174 q 521 260 521 195 q 521 347 521 282 q 521 434 521 369 q 608 434 543 434 q 608 521 608 456 q 608 608 608 543 q 608 694 608 629 q 608 781 608 716 q 608 868 608 803 q 694 868 629 868 q 694 781 694 846 q 781 781 716 781 q 781 694 781 760 q 868 694 803 694 q 868 608 868 673 q 781 608 846 608 q 781 521 781 586 q 694 521 760 521 q 694 434 694 499 q 694 347 694 412 q 608 347 673 347 q 608 260 608 326 q 608 174 608 239 q 521 174 586 174 z "},"6":{"ha":1128,"x_min":0,"x_max":1042,"o":"m 868 0 q 868 87 868 22 q 868 174 868 109 q 868 260 868 195 q 868 347 868 282 q 868 434 868 369 q 781 434 846 434 q 781 521 781 456 q 781 608 781 543 q 781 694 781 629 q 781 781 781 716 q 781 868 781 803 q 781 955 781 890 q 868 955 803 955 q 868 1042 868 977 q 955 1042 890 1042 q 955 955 955 1020 q 1042 955 977 955 q 1042 868 1042 933 q 1042 781 1042 846 q 955 781 1020 781 q 955 694 955 760 q 955 608 955 673 q 955 521 955 586 q 955 434 955 499 q 955 347 955 412 q 955 260 955 326 q 955 174 955 239 q 955 87 955 152 q 955 0 955 65 q 868 0 933 0 m 347 0 q 347 87 347 22 q 434 87 369 87 q 434 0 434 65 q 347 0 412 0 m 434 87 q 434 174 434 109 q 434 260 434 195 q 521 260 456 260 q 521 174 521 239 q 521 87 521 152 q 434 87 499 87 m 347 87 q 260 87 326 87 q 260 174 260 109 q 260 260 260 195 q 174 260 239 260 q 174 347 174 282 q 174 434 174 369 q 174 521 174 456 q 174 608 174 543 q 87 608 152 608 q 87 694 87 629 q 87 781 87 716 q 0 781 65 781 q 0 868 0 803 q 0 955 0 890 q 87 955 22 955 q 174 955 109 955 q 174 1042 174 977 q 260 1042 195 1042 q 260 955 260 1020 q 260 868 260 933 q 260 781 260 846 q 260 694 260 760 q 260 608 260 673 q 260 521 260 586 q 347 521 282 521 q 347 434 347 499 q 347 347 347 412 q 347 260 347 326 q 347 174 347 239 q 347 87 347 152 m 521 260 q 521 347 521 282 q 521 434 521 369 q 521 521 521 456 q 521 608 521 543 q 521 694 521 629 q 434 694 499 694 q 434 781 434 716 q 434 868 434 803 q 521 868 456 868 q 521 955 521 890 q 608 955 543 955 q 694 955 629 955 q 694 868 694 933 q 694 781 694 846 q 694 694 694 760 q 694 608 694 673 q 694 521 694 586 q 608 521 673 521 q 608 434 608 499 q 608 347 608 412 q 608 260 608 326 q 521 260 586 260 z "},"7":{"ha":1302,"x_min":0,"x_max":1215,"o":"m 1042 0 q 1042 87 1042 22 q 1042 174 1042 109 q 1042 260 1042 195 q 1042 347 1042 282 q 1042 434 1042 369 q 1042 521 1042 456 q 955 521 1020 521 q 955 608 955 543 q 955 694 955 629 q 955 781 955 716 q 1042 781 977 781 q 1042 868 1042 803 q 1042 955 1042 890 q 1128 955 1063 955 q 1128 868 1128 933 q 1215 868 1150 868 q 1215 781 1215 846 q 1215 694 1215 760 q 1215 608 1215 673 q 1215 521 1215 586 q 1215 434 1215 499 q 1215 347 1215 412 q 1215 260 1215 326 q 1128 260 1194 260 q 1128 174 1128 239 q 1128 87 1128 152 q 1128 0 1128 65 q 1042 0 1107 0 m 781 0 q 781 87 781 22 q 781 174 781 109 q 781 260 781 195 q 781 347 781 282 q 694 347 760 347 q 694 434 694 369 q 694 521 694 456 q 694 608 694 543 q 694 694 694 629 q 694 781 694 716 q 694 868 694 803 q 694 955 694 890 q 781 955 716 955 q 781 1042 781 977 q 868 1042 803 1042 q 955 1042 890 1042 q 955 955 955 1020 q 955 868 955 933 q 955 781 955 846 q 868 781 933 781 q 868 694 868 760 q 868 608 868 673 q 868 521 868 586 q 868 434 868 499 q 868 347 868 412 q 868 260 868 326 q 868 174 868 239 q 868 87 868 152 q 868 0 868 65 q 781 0 846 0 m 260 0 q 260 87 260 22 q 260 174 260 109 q 347 174 282 174 q 347 87 347 152 q 347 0 347 65 q 260 0 326 0 m 347 174 q 347 260 347 195 q 347 347 347 282 q 347 434 347 369 q 434 434 369 434 q 434 521 434 456 q 434 608 434 543 q 434 694 434 629 q 434 781 434 716 q 434 868 434 803 q 521 868 456 868 q 521 955 521 890 q 608 955 543 955 q 608 868 608 933 q 608 781 608 846 q 608 694 608 760 q 521 694 586 694 q 521 608 521 673 q 521 521 521 586 q 521 434 521 499 q 521 347 521 412 q 434 347 499 347 q 434 260 434 326 q 434 174 434 239 q 347 174 412 174 m 260 174 q 174 174 239 174 q 174 260 174 195 q 174 347 174 282 q 174 434 174 369 q 87 434 152 434 q 87 521 87 456 q 87 608 87 543 q 87 694 87 629 q 0 694 65 694 q 0 781 0 716 q 0 868 0 803 q 87 868 22 868 q 87 955 87 890 q 174 955 109 955 q 174 1042 174 977 q 260 1042 195 1042 q 260 955 260 1020 q 260 868 260 933 q 260 781 260 846 q 260 694 260 760 q 260 608 260 673 q 260 521 260 586 q 260 434 260 499 q 260 347 260 412 q 260 260 260 326 q 260 174 260 239 z "},"8":{"ha":1302,"x_min":0,"x_max":1215,"o":"m 1042 0 q 1042 87 1042 22 q 1042 174 1042 109 q 1042 260 1042 195 q 1042 347 1042 282 q 1042 434 1042 369 q 1042 521 1042 456 q 955 521 1020 521 q 955 608 955 543 q 955 694 955 629 q 868 694 933 694 q 868 608 868 673 q 868 521 868 586 q 868 434 868 499 q 868 347 868 412 q 868 260 868 326 q 781 260 846 260 q 781 174 781 239 q 781 87 781 152 q 781 0 781 65 q 694 0 760 0 q 694 87 694 22 q 694 174 694 109 q 694 260 694 195 q 694 347 694 282 q 694 434 694 369 q 694 521 694 456 q 608 521 673 521 q 608 434 608 499 q 608 347 608 412 q 608 260 608 326 q 608 174 608 239 q 608 87 608 152 q 608 0 608 65 q 521 0 586 0 q 521 87 521 22 q 521 174 521 109 q 521 260 521 195 q 521 347 521 282 q 521 434 521 369 q 521 521 521 456 q 521 608 521 543 q 434 608 499 608 q 434 521 434 586 q 434 434 434 499 q 434 347 434 412 q 347 347 412 347 q 347 260 347 326 q 347 174 347 239 q 347 87 347 152 q 260 87 326 87 q 260 0 260 65 q 174 0 239 0 q 87 0 152 0 q 87 87 87 22 q 87 174 87 109 q 87 260 87 195 q 87 347 87 282 q 0 347 65 347 q 0 434 0 369 q 0 521 0 456 q 0 608 0 543 q 0 694 0 629 q 0 781 0 716 q 0 868 0 803 q 0 955 0 890 q 0 1042 0 977 q 87 1042 22 1042 q 174 1042 109 1042 q 174 955 174 1020 q 174 868 174 933 q 174 781 174 846 q 87 781 152 781 q 87 694 87 760 q 87 608 87 673 q 87 521 87 586 q 174 521 109 521 q 174 434 174 499 q 174 347 174 412 q 174 260 174 326 q 174 174 174 239 q 260 174 195 174 q 260 260 260 195 q 260 347 260 282 q 260 434 260 369 q 260 521 260 456 q 260 608 260 543 q 347 608 282 608 q 347 694 347 629 q 347 781 347 716 q 347 868 347 803 q 260 868 326 868 q 260 955 260 890 q 260 1042 260 977 q 347 1042 282 1042 q 434 1042 369 1042 q 434 955 434 1020 q 434 868 434 933 q 434 781 434 846 q 521 781 456 781 q 521 868 521 803 q 521 955 521 890 q 608 955 543 955 q 608 868 608 933 q 608 781 608 846 q 694 781 629 781 q 694 868 694 803 q 694 955 694 890 q 781 955 716 955 q 781 1042 781 977 q 868 1042 803 1042 q 868 955 868 1020 q 868 868 868 933 q 955 868 890 868 q 955 955 955 890 q 1042 955 977 955 q 1042 1042 1042 977 q 1128 1042 1063 1042 q 1128 955 1128 1020 q 1215 955 1150 955 q 1215 868 1215 933 q 1128 868 1194 868 q 1128 781 1128 846 q 1128 694 1128 760 q 1128 608 1128 673 q 1128 521 1128 586 q 1128 434 1128 499 q 1128 347 1128 412 q 1128 260 1128 326 q 1128 174 1128 239 q 1128 87 1128 152 q 1128 0 1128 65 q 1042 0 1107 0 z "},"9":{"ha":1042,"x_min":0,"x_max":955,"o":"m 868 0 q 868 87 868 22 q 868 174 868 109 q 868 260 868 195 q 955 260 890 260 q 955 174 955 239 q 955 87 955 152 q 955 0 955 65 q 868 0 933 0 m 434 0 q 434 87 434 22 q 521 87 456 87 q 521 0 521 65 q 434 0 499 0 m 87 0 q 87 87 87 22 q 87 174 87 109 q 87 260 87 195 q 87 347 87 282 q 87 434 87 369 q 87 521 87 456 q 87 608 87 543 q 87 694 87 629 q 87 781 87 716 q 0 781 65 781 q 0 868 0 803 q 0 955 0 890 q 87 955 22 955 q 87 1042 87 977 q 174 1042 109 1042 q 260 1042 195 1042 q 260 955 260 1020 q 260 868 260 933 q 260 781 260 846 q 260 694 260 760 q 260 608 260 673 q 260 521 260 586 q 260 434 260 499 q 260 347 260 412 q 260 260 260 326 q 174 260 239 260 q 174 174 174 239 q 174 87 174 152 q 174 0 174 65 q 87 0 152 0 m 434 174 q 434 260 434 195 q 434 347 434 282 q 521 347 456 347 q 521 434 521 369 q 521 521 521 456 q 608 521 543 521 q 608 608 608 543 q 521 608 586 608 q 521 694 521 629 q 434 694 499 694 q 434 781 434 716 q 347 781 412 781 q 347 868 347 803 q 434 868 369 868 q 434 955 434 890 q 434 1042 434 977 q 521 1042 456 1042 q 608 1042 543 1042 q 608 955 608 1020 q 608 868 608 933 q 608 781 608 846 q 608 694 608 760 q 694 694 629 694 q 694 781 694 716 q 781 781 716 781 q 781 868 781 803 q 781 955 781 890 q 781 1042 781 977 q 868 1042 803 1042 q 868 955 868 1020 q 955 955 890 955 q 955 868 955 933 q 955 781 955 846 q 955 694 955 760 q 868 694 933 694 q 868 608 868 673 q 781 608 846 608 q 781 521 781 586 q 868 521 803 521 q 868 434 868 499 q 868 347 868 412 q 868 260 868 326 q 781 260 846 260 q 781 347 781 282 q 781 434 781 369 q 694 434 760 434 q 608 434 673 434 q 608 347 608 412 q 608 260 608 326 q 521 260 586 260 q 521 174 521 239 q 434 174 499 174 z "},"\u0000":{"ha":0,"x_min":0,"x_max":0,"o":""},"\r":{"ha":0,"x_min":0,"x_max":0,"o":""}," ":{"ha":434,"x_min":0,"x_max":0,"o":""},"!":{"ha":434,"x_min":0,"x_max":347,"o":"m 174 -174 q 174 -87 174 -152 q 87 -87 152 -87 q 87 0 87 -65 q 87 87 87 22 q 174 87 109 87 q 260 87 195 87 q 260 0 260 65 q 260 -87 260 -22 q 260 -174 260 -109 q 174 -174 239 -174 m 87 174 q 87 260 87 195 q 87 347 87 282 q 87 434 87 369 q 0 434 65 434 q 0 521 0 456 q 0 608 0 543 q 0 694 0 629 q 0 781 0 716 q 0 868 0 803 q 87 868 22 868 q 87 955 87 890 q 87 1042 87 977 q 174 1042 109 1042 q 174 955 174 1020 q 260 955 195 955 q 260 868 260 933 q 347 868 282 868 q 347 781 347 846 q 260 781 326 781 q 260 694 260 760 q 260 608 260 673 q 174 608 239 608 q 174 521 174 586 q 174 434 174 499 q 174 347 174 412 q 174 260 174 326 q 174 174 174 239 q 87 174 152 174 z "},"\"":{"ha":608,"x_min":0,"x_max":521,"o":"m 87 521 q 87 608 87 543 q 87 694 87 629 q 87 781 87 716 q 87 868 87 803 q 0 868 65 868 q 0 955 0 890 q 87 955 22 955 q 87 1042 87 977 q 174 1042 109 1042 q 174 955 174 1020 q 260 955 195 955 q 260 868 260 933 q 260 781 260 846 q 174 781 239 781 q 174 694 174 760 q 174 608 174 673 q 174 521 174 586 q 87 521 152 521 m 347 608 q 347 694 347 629 q 347 781 347 716 q 347 868 347 803 q 347 955 347 890 q 347 1042 347 977 q 434 1042 369 1042 q 521 1042 456 1042 q 521 955 521 1020 q 521 868 521 933 q 521 781 521 846 q 434 781 499 781 q 434 694 434 760 q 434 608 434 673 q 347 608 412 608 z "},"#":{"ha":955,"x_min":-87,"x_max":868,"o":"m 347 0 q 347 87 347 22 q 434 87 369 87 q 434 0 434 65 q 347 0 412 0 m 87 0 q 87 87 87 22 q 87 174 87 109 q 87 260 87 195 q 0 260 65 260 q 0 347 0 282 q -87 347 -22 347 q -87 434 -87 369 q -87 521 -87 456 q -87 608 -87 543 q 0 608 -65 608 q 0 694 0 629 q 0 781 0 716 q 0 868 0 803 q 87 868 22 868 q 174 868 109 868 q 174 955 174 890 q 174 1042 174 977 q 260 1042 195 1042 q 347 1042 282 1042 q 434 1042 369 1042 q 434 955 434 1020 q 434 868 434 933 q 347 868 412 868 q 347 781 347 846 q 347 694 347 760 q 434 694 369 694 q 434 608 434 673 q 347 608 412 608 q 260 608 326 608 q 260 521 260 586 q 260 434 260 499 q 347 434 282 434 q 347 347 347 412 q 434 347 369 347 q 521 347 456 347 q 521 434 521 369 q 521 521 521 456 q 434 521 499 521 q 434 608 434 543 q 521 608 456 608 q 521 694 521 629 q 521 781 521 716 q 521 868 521 803 q 521 955 521 890 q 608 955 543 955 q 694 955 629 955 q 694 868 694 933 q 781 868 716 868 q 781 781 781 846 q 694 781 760 781 q 694 694 694 760 q 694 608 694 673 q 781 608 716 608 q 868 608 803 608 q 868 521 868 586 q 781 521 846 521 q 694 521 760 521 q 608 521 673 521 q 608 434 608 499 q 608 347 608 412 q 608 260 608 326 q 694 260 629 260 q 781 260 716 260 q 781 174 781 239 q 694 174 760 174 q 608 174 673 174 q 521 174 586 174 q 521 87 521 152 q 434 87 499 87 q 434 174 434 109 q 434 260 434 195 q 347 260 412 260 q 260 260 326 260 q 174 260 239 260 q 174 174 174 239 q 174 87 174 152 q 174 0 174 65 q 87 0 152 0 m 87 521 q 174 521 109 521 q 174 608 174 543 q 87 608 152 608 q 0 608 65 608 q 0 521 0 586 q 87 521 22 521 z "},"$":{"ha":955,"x_min":0,"x_max":868,"o":"m 347 -87 q 347 0 347 -65 q 260 0 326 0 q 260 87 260 22 q 347 87 282 87 q 347 174 347 109 q 347 260 347 195 q 347 347 347 282 q 347 434 347 369 q 260 434 326 434 q 174 434 239 434 q 174 521 174 456 q 87 521 152 521 q 87 608 87 543 q 0 608 65 608 q 0 694 0 629 q 87 694 22 694 q 87 781 87 716 q 87 868 87 803 q 174 868 109 868 q 174 955 174 890 q 260 955 195 955 q 260 1042 260 977 q 347 1042 282 1042 q 434 1042 369 1042 q 521 1042 456 1042 q 521 955 521 1020 q 608 955 543 955 q 694 955 629 955 q 781 955 716 955 q 781 868 781 933 q 868 868 803 868 q 868 781 868 846 q 781 781 846 781 q 781 694 781 760 q 694 694 760 694 q 694 608 694 673 q 608 608 673 608 q 608 694 608 629 q 521 694 586 694 q 521 781 521 716 q 434 781 499 781 q 434 694 434 760 q 434 608 434 673 q 434 521 434 586 q 521 521 456 521 q 608 521 543 521 q 608 434 608 499 q 694 434 629 434 q 694 347 694 412 q 781 347 716 347 q 781 260 781 326 q 781 174 781 239 q 694 174 760 174 q 694 87 694 152 q 608 87 673 87 q 608 0 608 65 q 521 0 586 0 q 434 0 499 0 q 434 -87 434 -22 q 347 -87 412 -87 m 87 87 q 87 174 87 109 q 174 174 109 174 q 174 87 174 152 q 87 87 152 87 m 521 87 q 521 174 521 109 q 521 260 521 195 q 434 260 499 260 q 434 174 434 239 q 434 87 434 152 q 521 87 456 87 m 260 521 q 347 521 282 521 q 347 608 347 543 q 260 608 326 608 q 260 694 260 629 q 260 781 260 716 q 174 781 239 781 q 174 694 174 760 q 174 608 174 673 q 174 521 174 586 q 260 521 195 521 z "},"%":{"ha":1215,"x_min":87,"x_max":1128,"o":"m 87 0 q 87 87 87 22 q 174 87 109 87 q 174 0 174 65 q 87 0 152 0 m 347 608 q 347 694 347 629 q 434 694 369 694 q 434 608 434 673 q 347 608 412 608 m 174 87 q 174 174 174 109 q 260 174 195 174 q 260 87 260 152 q 174 87 239 87 m 955 174 q 868 174 933 174 q 781 174 846 174 q 781 260 781 195 q 868 260 803 260 q 868 347 868 282 q 868 434 868 369 q 955 434 890 434 q 1042 434 977 434 q 1042 347 1042 412 q 1128 347 1063 347 q 1128 260 1128 326 q 1042 260 1107 260 q 1042 174 1042 239 q 955 174 1020 174 m 260 174 q 260 260 260 195 q 347 260 282 260 q 347 347 347 282 q 434 347 369 347 q 434 434 434 369 q 521 434 456 434 q 521 521 521 456 q 521 608 521 543 q 608 608 543 608 q 608 694 608 629 q 608 781 608 716 q 694 781 629 781 q 694 868 694 803 q 694 955 694 890 q 694 1042 694 977 q 781 1042 716 1042 q 781 955 781 1020 q 868 955 803 955 q 868 868 868 933 q 955 868 890 868 q 955 781 955 846 q 955 694 955 760 q 868 694 933 694 q 868 608 868 673 q 781 608 846 608 q 781 521 781 586 q 694 521 760 521 q 694 434 694 499 q 608 434 673 434 q 608 347 608 412 q 521 347 586 347 q 521 260 521 326 q 434 260 499 260 q 434 174 434 239 q 347 174 412 174 q 260 174 326 174 m 347 694 q 260 694 326 694 q 174 694 239 694 q 174 781 174 716 q 87 781 152 781 q 87 868 87 803 q 174 868 109 868 q 174 955 174 890 q 260 955 195 955 q 260 868 260 933 q 347 868 282 868 q 347 781 347 846 q 347 694 347 760 z "},"&":{"ha":1042,"x_min":0,"x_max":955,"o":"m 868 0 q 868 87 868 22 q 955 87 890 87 q 955 0 955 65 q 868 0 933 0 m 694 87 q 694 174 694 109 q 781 174 716 174 q 781 87 781 152 q 694 87 760 87 m 434 87 q 521 87 456 87 q 521 0 521 65 q 434 0 499 0 q 347 0 412 0 q 260 0 326 0 q 174 0 239 0 q 174 87 174 22 q 87 87 152 87 q 87 174 87 109 q 0 174 65 174 q 0 260 0 195 q 0 347 0 282 q 0 434 0 369 q 87 434 22 434 q 87 521 87 456 q 87 608 87 543 q 174 608 109 608 q 174 521 174 586 q 260 521 195 521 q 260 434 260 499 q 260 347 260 412 q 174 347 239 347 q 174 260 174 326 q 260 260 195 260 q 260 174 260 239 q 347 174 282 174 q 347 87 347 152 q 434 87 369 87 m 521 87 q 521 174 521 109 q 521 260 521 195 q 434 260 499 260 q 434 347 434 282 q 434 434 434 369 q 347 434 412 434 q 347 521 347 456 q 260 521 326 521 q 260 608 260 543 q 174 608 239 608 q 174 694 174 629 q 174 781 174 716 q 174 868 174 803 q 260 868 195 868 q 260 955 260 890 q 347 955 282 955 q 347 1042 347 977 q 434 1042 369 1042 q 521 1042 456 1042 q 521 955 521 1020 q 608 955 543 955 q 608 868 608 933 q 608 781 608 846 q 521 781 586 781 q 434 781 499 781 q 434 694 434 760 q 434 608 434 673 q 434 521 434 586 q 521 521 456 521 q 521 434 521 499 q 608 434 543 434 q 608 347 608 412 q 608 260 608 326 q 694 260 629 260 q 694 174 694 239 q 608 174 673 174 q 608 87 608 152 q 521 87 586 87 m 694 260 q 694 347 694 282 q 694 434 694 369 q 781 434 716 434 q 781 347 781 412 q 781 260 781 326 q 694 260 760 260 z "},"'":{"ha":347,"x_min":0,"x_max":260,"o":"m 87 608 q 87 694 87 629 q 87 781 87 716 q 87 868 87 803 q 0 868 65 868 q 0 955 0 890 q 0 1042 0 977 q 87 1042 22 1042 q 174 1042 109 1042 q 260 1042 195 1042 q 260 955 260 1020 q 260 868 260 933 q 260 781 260 846 q 174 781 239 781 q 174 694 174 760 q 174 608 174 673 q 87 608 152 608 z "},"(":{"ha":521,"x_min":0,"x_max":434,"o":"m 347 -347 q 347 -260 347 -326 q 434 -260 369 -260 q 434 -347 434 -282 q 347 -347 412 -347 m 174 -174 q 174 -87 174 -152 q 174 0 174 -65 q 87 0 152 0 q 87 87 87 22 q 87 174 87 109 q 0 174 65 174 q 0 260 0 195 q 0 347 0 282 q 0 434 0 369 q 0 521 0 456 q 0 608 0 543 q 87 608 22 608 q 87 694 87 629 q 87 781 87 716 q 87 868 87 803 q 174 868 109 868 q 174 955 174 890 q 174 1042 174 977 q 260 1042 195 1042 q 260 955 260 1020 q 347 955 282 955 q 347 868 347 933 q 434 868 369 868 q 434 781 434 846 q 434 694 434 760 q 347 694 412 694 q 347 608 347 673 q 260 608 326 608 q 260 521 260 586 q 260 434 260 499 q 174 434 239 434 q 174 347 174 412 q 174 260 174 326 q 174 174 174 239 q 174 87 174 152 q 260 87 195 87 q 260 0 260 65 q 260 -87 260 -22 q 260 -174 260 -109 q 174 -174 239 -174 z "},")":{"ha":608,"x_min":87,"x_max":521,"o":"m 87 -347 q 87 -260 87 -326 q 174 -260 109 -260 q 174 -347 174 -282 q 87 -347 152 -347 m 260 -174 q 260 -87 260 -152 q 260 0 260 -65 q 347 0 282 0 q 347 -87 347 -22 q 347 -174 347 -109 q 260 -174 326 -174 m 347 0 q 347 87 347 22 q 347 174 347 109 q 347 260 347 195 q 347 347 347 282 q 347 434 347 369 q 260 434 326 434 q 260 521 260 456 q 260 608 260 543 q 174 608 239 608 q 174 694 174 629 q 174 781 174 716 q 87 781 152 781 q 87 868 87 803 q 174 868 109 868 q 174 955 174 890 q 260 955 195 955 q 260 1042 260 977 q 347 1042 282 1042 q 347 955 347 1020 q 434 955 369 955 q 434 868 434 933 q 434 781 434 846 q 434 694 434 760 q 434 608 434 673 q 521 608 456 608 q 521 521 521 586 q 521 434 521 499 q 521 347 521 412 q 521 260 521 326 q 521 174 521 239 q 434 174 499 174 q 434 87 434 152 q 434 0 434 65 q 347 0 412 0 z "},"*":{"ha":781,"x_min":-174,"x_max":694,"o":"m 260 87 q 260 174 260 109 q 260 260 260 195 q 260 347 260 282 q 260 434 260 369 q 174 434 239 434 q 174 347 174 412 q 87 347 152 347 q 87 260 87 326 q 0 260 65 260 q 0 174 0 239 q -87 174 -22 174 q -87 260 -87 195 q 0 260 -65 260 q 0 347 0 282 q 0 434 0 369 q 87 434 22 434 q 87 521 87 456 q 87 608 87 543 q 0 608 65 608 q -87 608 -22 608 q -87 694 -87 629 q -174 694 -109 694 q -174 781 -174 716 q -174 868 -174 803 q -87 868 -152 868 q -87 955 -87 890 q 0 955 -65 955 q 0 868 0 933 q 87 868 22 868 q 87 955 87 890 q 174 955 109 955 q 174 1042 174 977 q 260 1042 195 1042 q 347 1042 282 1042 q 434 1042 369 1042 q 434 955 434 1020 q 434 868 434 933 q 347 868 412 868 q 347 781 347 846 q 347 694 347 760 q 434 694 369 694 q 434 781 434 716 q 434 868 434 803 q 521 868 456 868 q 521 955 521 890 q 608 955 543 955 q 608 868 608 933 q 694 868 629 868 q 694 781 694 846 q 694 694 694 760 q 694 608 694 673 q 608 608 673 608 q 521 608 586 608 q 521 521 521 586 q 434 521 499 521 q 434 434 434 499 q 521 434 456 434 q 521 347 521 412 q 608 347 543 347 q 608 260 608 326 q 694 260 629 260 q 694 174 694 239 q 608 174 673 174 q 608 260 608 195 q 521 260 586 260 q 521 347 521 282 q 434 347 499 347 q 347 347 412 347 q 347 260 347 326 q 347 174 347 239 q 347 87 347 152 q 260 87 326 87 m 174 694 q 174 781 174 716 q 174 868 174 803 q 87 868 152 868 q 87 781 87 846 q 87 694 87 760 q 174 694 109 694 z "},"+":{"ha":868,"x_min":0,"x_max":781,"o":"m 347 0 q 347 87 347 22 q 347 174 347 109 q 347 260 347 195 q 260 260 326 260 q 260 347 260 282 q 174 347 239 347 q 87 347 152 347 q 87 434 87 369 q 0 434 65 434 q 0 521 0 456 q 0 608 0 543 q 87 608 22 608 q 174 608 109 608 q 260 608 195 608 q 347 608 282 608 q 347 694 347 629 q 260 694 326 694 q 260 781 260 716 q 260 868 260 803 q 347 868 282 868 q 347 955 347 890 q 434 955 369 955 q 521 955 456 955 q 521 868 521 933 q 521 781 521 846 q 521 694 521 760 q 521 608 521 673 q 521 521 521 586 q 608 521 543 521 q 694 521 629 521 q 781 521 716 521 q 781 434 781 499 q 694 434 760 434 q 608 434 673 434 q 521 434 586 434 q 521 347 521 412 q 434 347 499 347 q 434 260 434 326 q 434 174 434 239 q 434 87 434 152 q 434 0 434 65 q 347 0 412 0 z "},",":{"ha":434,"x_min":0,"x_max":347,"o":"m 0 -260 q 0 -174 0 -239 q 87 -174 22 -174 q 87 -260 87 -195 q 0 -260 65 -260 m 87 -174 q 87 -87 87 -152 q 174 -87 109 -87 q 174 0 174 -65 q 87 0 152 0 q 87 87 87 22 q 0 87 65 87 q 0 174 0 109 q 87 174 22 174 q 87 260 87 195 q 174 260 109 260 q 260 260 195 260 q 260 174 260 239 q 260 87 260 152 q 347 87 282 87 q 347 0 347 65 q 260 0 326 0 q 260 -87 260 -22 q 260 -174 260 -109 q 174 -174 239 -174 q 87 -174 152 -174 z "},"-":{"ha":608,"x_min":-87,"x_max":521,"o":"m 260 260 q 174 260 239 260 q 87 260 152 260 q 0 260 65 260 q 0 347 0 282 q -87 347 -22 347 q -87 434 -87 369 q 0 434 -65 434 q 0 521 0 456 q 87 521 22 521 q 174 521 109 521 q 174 434 174 499 q 260 434 195 434 q 347 434 282 434 q 434 434 369 434 q 521 434 456 434 q 521 347 521 412 q 434 347 499 347 q 347 347 412 347 q 347 260 347 326 q 260 260 326 260 z "},".":{"ha":521,"x_min":87,"x_max":434,"o":"m 174 0 q 87 0 152 0 q 87 87 87 22 q 87 174 87 109 q 174 174 109 174 q 174 260 174 195 q 260 260 195 260 q 260 174 260 239 q 347 174 282 174 q 434 174 369 174 q 434 87 434 152 q 347 87 412 87 q 260 87 326 87 q 260 0 260 65 q 174 0 239 0 z "},"/":{"ha":521,"x_min":0,"x_max":434,"o":"m 0 0 q 0 87 0 22 q 0 174 0 109 q 87 174 22 174 q 87 87 87 152 q 87 0 87 65 q 0 0 65 0 m 87 174 q 87 260 87 195 q 87 347 87 282 q 87 434 87 369 q 87 521 87 456 q 87 608 87 543 q 87 694 87 629 q 174 694 109 694 q 174 781 174 716 q 174 868 174 803 q 174 955 174 890 q 174 1042 174 977 q 260 1042 195 1042 q 260 955 260 1020 q 347 955 282 955 q 347 868 347 933 q 434 868 369 868 q 434 781 434 846 q 347 781 412 781 q 347 694 347 760 q 347 608 347 673 q 347 521 347 586 q 260 521 326 521 q 260 434 260 499 q 174 434 239 434 q 174 347 174 412 q 174 260 174 326 q 174 174 174 239 q 87 174 152 174 z "},":":{"ha":434,"x_min":87,"x_max":347,"o":"m 87 0 q 87 87 87 22 q 87 174 87 109 q 87 260 87 195 q 174 260 109 260 q 174 347 174 282 q 260 347 195 347 q 260 260 260 326 q 347 260 282 260 q 347 174 347 239 q 260 174 326 174 q 260 87 260 152 q 174 87 239 87 q 174 0 174 65 q 87 0 152 0 m 174 434 q 174 521 174 456 q 87 521 152 521 q 87 608 87 543 q 87 694 87 629 q 87 781 87 716 q 174 781 109 781 q 260 781 195 781 q 260 694 260 760 q 347 694 282 694 q 347 608 347 673 q 260 608 326 608 q 260 521 260 586 q 260 434 260 499 q 174 434 239 434 z "},";":{"ha":434,"x_min":0,"x_max":347,"o":"m 87 434 q 87 521 87 456 q 87 608 87 543 q 87 694 87 629 q 174 694 109 694 q 174 781 174 716 q 260 781 195 781 q 260 694 260 760 q 347 694 282 694 q 347 608 347 673 q 260 608 326 608 q 260 521 260 586 q 174 521 239 521 q 174 434 174 499 q 87 434 152 434 m 87 -174 q 174 -174 109 -174 q 174 -260 174 -195 q 87 -260 152 -260 q 0 -260 65 -260 q 0 -174 0 -239 q 87 -174 22 -174 m 174 -174 q 174 -87 174 -152 q 174 0 174 -65 q 87 0 152 0 q 87 87 87 22 q 0 87 65 87 q 0 174 0 109 q 87 174 22 174 q 87 260 87 195 q 174 260 109 260 q 260 260 195 260 q 260 174 260 239 q 347 174 282 174 q 347 87 347 152 q 347 0 347 65 q 347 -87 347 -22 q 260 -87 326 -87 q 260 -174 260 -109 q 174 -174 239 -174 z "},"<":{"ha":1215,"x_min":87,"x_max":1128,"o":"m 868 -87 q 868 0 868 -65 q 955 0 890 0 q 955 -87 955 -22 q 868 -87 933 -87 m 868 0 q 781 0 846 0 q 694 0 760 0 q 694 87 694 22 q 608 87 673 87 q 521 87 586 87 q 434 87 499 87 q 434 174 434 109 q 347 174 412 174 q 260 174 326 174 q 174 174 239 174 q 87 174 152 174 q 87 260 87 195 q 174 260 109 260 q 174 347 174 282 q 260 347 195 347 q 347 347 282 347 q 347 434 347 369 q 434 434 369 434 q 434 347 434 412 q 434 260 434 326 q 521 260 456 260 q 608 260 543 260 q 608 174 608 239 q 694 174 629 174 q 781 174 716 174 q 781 87 781 152 q 868 87 803 87 q 868 0 868 65 m 347 434 q 260 434 326 434 q 260 521 260 456 q 347 521 282 521 q 347 434 347 499 m 347 521 q 347 608 347 543 q 434 608 369 608 q 434 521 434 586 q 347 521 412 521 m 694 608 q 608 608 673 608 q 521 608 586 608 q 434 608 499 608 q 434 694 434 629 q 521 694 456 694 q 608 694 543 694 q 608 781 608 716 q 694 781 629 781 q 694 868 694 803 q 781 868 716 868 q 781 955 781 890 q 868 955 803 955 q 868 1042 868 977 q 955 1042 890 1042 q 955 955 955 1020 q 1042 955 977 955 q 1128 955 1063 955 q 1128 868 1128 933 q 1042 868 1107 868 q 1042 781 1042 846 q 955 781 1020 781 q 955 694 955 760 q 868 694 933 694 q 781 694 846 694 q 781 608 781 673 q 694 608 760 608 z "},"=":{"ha":868,"x_min":0,"x_max":781,"o":"m 174 174 q 87 174 152 174 q 0 174 65 174 q 0 260 0 195 q 0 347 0 282 q 87 347 22 347 q 87 434 87 369 q 174 434 109 434 q 260 434 195 434 q 347 434 282 434 q 434 434 369 434 q 434 347 434 412 q 521 347 456 347 q 608 347 543 347 q 694 347 629 347 q 781 347 716 347 q 781 260 781 326 q 694 260 760 260 q 608 260 673 260 q 521 260 586 260 q 434 260 499 260 q 347 260 412 260 q 260 260 326 260 q 260 174 260 239 q 174 174 239 174 m 434 521 q 347 521 412 521 q 260 521 326 521 q 174 521 239 521 q 87 521 152 521 q 0 521 65 521 q 0 608 0 543 q 0 694 0 629 q 87 694 22 694 q 87 781 87 716 q 174 781 109 781 q 260 781 195 781 q 260 694 260 760 q 347 694 282 694 q 434 694 369 694 q 521 694 456 694 q 608 694 543 694 q 694 694 629 694 q 781 694 716 694 q 781 608 781 673 q 694 608 760 608 q 608 608 673 608 q 521 608 586 608 q 521 521 521 586 q 434 521 499 521 z "},">":{"ha":868,"x_min":0,"x_max":781,"o":"m 87 0 q 174 0 109 0 q 174 -87 174 -22 q 87 -87 152 -87 q 0 -87 65 -87 q 0 0 0 -65 q 87 0 22 0 m 174 0 q 174 87 174 22 q 260 87 195 87 q 260 174 260 109 q 347 174 282 174 q 347 260 347 195 q 434 260 369 260 q 434 347 434 282 q 521 347 456 347 q 521 434 521 369 q 608 434 543 434 q 608 347 608 412 q 694 347 629 347 q 694 260 694 326 q 781 260 716 260 q 781 174 781 239 q 694 174 760 174 q 608 174 673 174 q 608 87 608 152 q 521 87 586 87 q 434 87 499 87 q 347 87 412 87 q 347 0 347 65 q 260 0 326 0 q 174 0 239 0 m 694 347 q 694 434 694 369 q 608 434 673 434 q 608 521 608 456 q 521 521 586 521 q 434 521 499 521 q 434 608 434 543 q 347 608 412 608 q 347 694 347 629 q 260 694 326 694 q 174 694 239 694 q 174 781 174 716 q 87 781 152 781 q 87 868 87 803 q 87 955 87 890 q 174 955 109 955 q 174 1042 174 977 q 260 1042 195 1042 q 347 1042 282 1042 q 347 955 347 1020 q 347 868 347 933 q 434 868 369 868 q 434 781 434 846 q 521 781 456 781 q 521 694 521 760 q 608 694 543 694 q 608 608 608 673 q 694 608 629 608 q 694 521 694 586 q 781 521 716 521 q 781 434 781 499 q 781 347 781 412 q 694 347 760 347 z "},"?":{"ha":781,"x_min":174,"x_max":694,"o":"m 347 -87 q 347 0 347 -65 q 260 0 326 0 q 260 87 260 22 q 260 174 260 109 q 347 174 282 174 q 434 174 369 174 q 434 87 434 152 q 521 87 456 87 q 521 0 521 65 q 434 0 499 0 q 434 -87 434 -22 q 347 -87 412 -87 m 260 260 q 260 347 260 282 q 347 347 282 347 q 347 260 347 326 q 260 260 326 260 m 260 781 q 260 868 260 803 q 174 868 239 868 q 174 955 174 890 q 174 1042 174 977 q 260 1042 195 1042 q 260 1128 260 1128 q 347 1128 260 1128 q 434 1128 369 1128 q 521 1128 521 1128 q 521 1042 521 1128 q 608 1042 543 1042 q 608 955 608 1020 q 694 955 629 955 q 694 868 694 933 q 694 781 694 846 q 694 694 694 760 q 694 608 694 673 q 608 608 673 608 q 608 521 608 586 q 521 521 586 521 q 521 434 521 499 q 434 434 499 434 q 434 347 434 412 q 347 347 412 347 q 347 434 347 369 q 434 434 369 434 q 434 521 434 456 q 434 608 434 543 q 521 608 456 608 q 521 694 521 629 q 521 781 521 716 q 434 781 499 781 q 434 868 434 803 q 347 868 412 868 q 347 781 347 846 q 260 781 326 781 z "},"@":{"ha":1302,"x_min":0,"x_max":1302,"o":"m 868 -260 q 781 -260 846 -260 q 694 -260 760 -260 q 608 -260 673 -260 q 521 -260 586 -260 q 434 -260 499 -260 q 347 -260 412 -260 q 260 -260 326 -260 q 260 -174 260 -239 q 174 -174 239 -174 q 174 -87 174 -152 q 174 0 174 -65 q 87 0 152 0 q 87 87 87 22 q 87 174 87 109 q 0 174 65 174 q 0 260 0 195 q 0 347 0 282 q 0 434 0 369 q 0 521 0 456 q 87 521 22 521 q 87 608 87 543 q 87 694 87 629 q 174 694 109 694 q 174 781 174 716 q 174 868 174 803 q 260 868 195 868 q 347 868 282 868 q 347 955 347 890 q 434 955 369 955 q 521 955 456 955 q 521 1042 521 977 q 608 1042 543 1042 q 694 1042 629 1042 q 781 1042 716 1042 q 868 1042 803 1042 q 868 955 868 1020 q 955 955 890 955 q 1042 955 977 955 q 1042 868 1042 933 q 1128 868 1063 868 q 1128 781 1128 846 q 1215 781 1150 781 q 1215 694 1215 760 q 1215 608 1215 608 q 1302 608 1215 608 q 1302 434 1302 564 q 1259 434 1302 434 q 1215 434 1215 434 q 1215 401 1215 434 q 1215 347 1215 369 q 1215 260 1215 326 q 1128 260 1194 260 q 1128 174 1128 239 q 1042 174 1107 174 q 1042 87 1042 152 q 955 87 1020 87 q 868 87 933 87 q 868 0 868 65 q 781 0 846 0 q 694 0 760 0 q 694 87 694 22 q 608 87 673 87 q 521 87 586 87 q 521 174 521 109 q 521 260 521 195 q 434 260 499 260 q 434 347 434 282 q 434 434 434 369 q 521 434 456 434 q 521 521 521 456 q 521 608 521 543 q 608 608 543 608 q 608 694 608 629 q 694 694 629 694 q 781 694 716 694 q 868 694 803 694 q 868 608 868 673 q 868 521 868 586 q 868 434 868 499 q 781 434 846 434 q 781 347 781 412 q 868 347 803 347 q 955 347 890 347 q 955 434 955 369 q 1042 434 977 434 q 1042 521 1042 456 q 1042 608 1042 543 q 1042 694 1042 629 q 955 694 1020 694 q 955 781 955 716 q 868 781 933 781 q 781 781 846 781 q 781 868 781 803 q 694 868 760 868 q 608 868 673 868 q 608 781 608 846 q 521 781 586 781 q 434 781 499 781 q 434 694 434 760 q 347 694 412 694 q 347 608 347 673 q 260 608 326 608 q 260 521 260 586 q 260 434 260 499 q 260 347 260 412 q 260 260 260 326 q 260 174 260 239 q 260 87 260 152 q 347 87 282 87 q 347 0 347 65 q 434 0 369 0 q 434 -87 434 -22 q 521 -87 456 -87 q 608 -87 543 -87 q 608 -174 608 -109 q 694 -174 629 -174 q 781 -174 716 -174 q 868 -174 803 -174 q 868 -87 868 -152 q 955 -87 890 -87 q 1042 -87 977 -87 q 1128 -87 1063 -87 q 1128 -174 1128 -109 q 1042 -174 1107 -174 q 955 -174 1020 -174 q 955 -260 955 -195 q 868 -260 933 -260 m 1128 -87 q 1128 0 1128 -65 q 1215 0 1150 0 q 1215 -87 1215 -22 q 1128 -87 1194 -87 z "},"A":{"ha":1042,"x_min":-174,"x_max":955,"o":"m 868 0 q 868 87 868 22 q 955 87 890 87 q 955 0 955 65 q 868 0 933 0 m 0 -87 q -87 -87 -22 -87 q -174 -87 -109 -87 q -174 0 -174 -65 q -87 0 -152 0 q -87 87 -87 22 q 0 87 -65 87 q 0 174 0 109 q 87 174 22 174 q 87 260 87 195 q 174 260 109 260 q 174 347 174 282 q 260 347 195 347 q 260 434 260 369 q 260 521 260 456 q 347 521 282 521 q 347 434 347 499 q 347 347 347 412 q 347 260 347 326 q 260 260 326 260 q 260 174 260 239 q 260 87 260 152 q 174 87 239 87 q 174 0 174 65 q 87 0 152 0 q 87 -87 87 -22 q 0 -87 65 -87 m 868 87 q 781 87 846 87 q 781 174 781 109 q 781 260 781 195 q 868 260 803 260 q 868 174 868 239 q 868 87 868 152 m 781 260 q 694 260 760 260 q 694 347 694 282 q 694 434 694 369 q 608 434 673 434 q 608 347 608 412 q 521 347 586 347 q 434 347 499 347 q 434 434 434 369 q 521 434 456 434 q 608 434 543 434 q 608 521 608 456 q 608 608 608 543 q 521 608 586 608 q 521 694 521 629 q 434 694 499 694 q 434 608 434 673 q 434 521 434 586 q 347 521 412 521 q 347 608 347 543 q 347 694 347 629 q 434 694 369 694 q 434 781 434 716 q 347 781 412 781 q 347 868 347 803 q 260 868 326 868 q 260 955 260 890 q 347 955 282 955 q 434 955 369 955 q 521 955 456 955 q 608 955 543 955 q 608 868 608 933 q 608 781 608 846 q 694 781 629 781 q 694 694 694 760 q 694 608 694 673 q 781 608 716 608 q 781 521 781 586 q 781 434 781 499 q 781 347 781 412 q 781 260 781 326 z "},"B":{"ha":868,"x_min":0,"x_max":781,"o":"m 260 -87 q 260 0 260 -65 q 347 0 282 0 q 347 -87 347 -22 q 260 -87 326 -87 m 87 0 q 87 87 87 22 q 87 174 87 109 q 174 174 109 174 q 174 260 174 195 q 174 347 174 282 q 174 434 174 369 q 174 521 174 456 q 174 608 174 543 q 174 694 174 629 q 87 694 152 694 q 0 694 65 694 q 0 781 0 716 q 0 868 0 803 q 87 868 22 868 q 87 955 87 890 q 174 955 109 955 q 260 955 195 955 q 260 1042 260 977 q 347 1042 282 1042 q 347 955 347 1020 q 347 868 347 933 q 434 868 369 868 q 434 955 434 890 q 521 955 456 955 q 521 1042 521 977 q 608 1042 543 1042 q 608 955 608 1020 q 694 955 629 955 q 694 868 694 933 q 781 868 716 868 q 781 781 781 846 q 781 694 781 760 q 694 694 760 694 q 694 608 694 673 q 608 608 673 608 q 608 521 608 586 q 694 521 629 521 q 781 521 716 521 q 781 434 781 499 q 781 347 781 412 q 781 260 781 326 q 781 174 781 239 q 694 174 760 174 q 694 87 694 152 q 608 87 673 87 q 608 0 608 65 q 521 0 586 0 q 434 0 499 0 q 347 0 412 0 q 347 87 347 22 q 434 87 369 87 q 521 87 456 87 q 521 174 521 109 q 608 174 543 174 q 608 260 608 195 q 521 260 586 260 q 521 347 521 282 q 434 347 499 347 q 434 434 434 369 q 521 434 456 434 q 608 434 543 434 q 608 521 608 456 q 521 521 586 521 q 521 608 521 543 q 608 608 543 608 q 608 694 608 629 q 608 781 608 716 q 521 781 586 781 q 434 781 499 781 q 347 781 412 781 q 347 694 347 760 q 347 608 347 673 q 347 521 347 586 q 347 434 347 499 q 347 347 347 412 q 260 347 326 347 q 260 260 260 326 q 260 174 260 239 q 260 87 260 152 q 174 87 239 87 q 174 0 174 65 q 87 0 152 0 z "},"C":{"ha":955,"x_min":0,"x_max":868,"o":"m 781 174 q 781 260 781 195 q 868 260 803 260 q 868 174 868 239 q 781 174 846 174 m 608 87 q 694 87 629 87 q 694 0 694 65 q 608 0 673 0 q 521 0 586 0 q 434 0 499 0 q 347 0 412 0 q 347 87 347 22 q 434 87 369 87 q 521 87 456 87 q 608 87 543 87 m 347 87 q 260 87 326 87 q 174 87 239 87 q 174 174 174 109 q 87 174 152 174 q 87 260 87 195 q 87 347 87 282 q 0 347 65 347 q 0 434 0 369 q 0 521 0 456 q 0 608 0 543 q 87 608 22 608 q 87 694 87 629 q 87 781 87 716 q 174 781 109 781 q 174 868 174 803 q 260 868 195 868 q 260 955 260 890 q 347 955 282 955 q 434 955 369 955 q 521 955 456 955 q 521 1042 521 977 q 608 1042 543 1042 q 694 1042 629 1042 q 781 1042 716 1042 q 781 955 781 1020 q 868 955 803 955 q 868 868 868 933 q 781 868 846 868 q 781 781 781 846 q 781 694 781 760 q 694 694 760 694 q 608 694 673 694 q 521 694 586 694 q 521 781 521 716 q 434 781 499 781 q 347 781 412 781 q 347 694 347 760 q 260 694 326 694 q 260 608 260 673 q 260 521 260 586 q 174 521 239 521 q 174 434 174 499 q 174 347 174 412 q 260 347 195 347 q 260 260 260 326 q 260 174 260 239 q 347 174 282 174 q 347 87 347 152 z "},"D":{"ha":955,"x_min":0,"x_max":868,"o":"m 260 0 q 347 0 282 0 q 347 -87 347 -22 q 260 -87 326 -87 q 174 -87 239 -87 q 174 0 174 -65 q 260 0 195 0 m 521 0 q 434 0 499 0 q 347 0 412 0 q 347 87 347 22 q 434 87 369 87 q 521 87 456 87 q 521 174 521 109 q 608 174 543 174 q 608 260 608 195 q 608 347 608 282 q 694 347 629 347 q 694 434 694 369 q 694 521 694 456 q 694 608 694 543 q 608 608 673 608 q 608 694 608 629 q 521 694 586 694 q 521 781 521 716 q 434 781 499 781 q 347 781 412 781 q 347 868 347 803 q 434 868 369 868 q 434 955 434 890 q 521 955 456 955 q 521 1042 521 977 q 608 1042 543 1042 q 608 955 608 1020 q 694 955 629 955 q 694 868 694 933 q 694 781 694 846 q 781 781 716 781 q 781 694 781 760 q 868 694 803 694 q 868 608 868 673 q 868 521 868 586 q 868 434 868 499 q 868 347 868 412 q 781 347 846 347 q 781 260 781 326 q 781 174 781 239 q 694 174 760 174 q 694 87 694 152 q 608 87 673 87 q 608 0 608 65 q 521 0 586 0 m 174 0 q 87 0 152 0 q 87 87 87 22 q 87 174 87 109 q 87 260 87 195 q 87 347 87 282 q 87 434 87 369 q 87 521 87 456 q 87 608 87 543 q 87 694 87 629 q 87 781 87 716 q 0 781 65 781 q 0 868 0 803 q 0 955 0 890 q 87 955 22 955 q 87 1042 87 977 q 174 1042 109 1042 q 260 1042 195 1042 q 260 955 260 1020 q 347 955 282 955 q 347 868 347 933 q 260 868 326 868 q 260 781 260 846 q 260 694 260 760 q 260 608 260 673 q 260 521 260 586 q 260 434 260 499 q 174 434 239 434 q 174 347 174 412 q 174 260 174 326 q 174 174 174 239 q 174 87 174 152 q 174 0 174 65 z "},"E":{"ha":1042,"x_min":0,"x_max":955,"o":"m 87 -87 q 87 0 87 -65 q 174 0 109 0 q 174 -87 174 -22 q 87 -87 152 -87 m 868 87 q 868 174 868 109 q 955 174 890 174 q 955 87 955 152 q 868 87 933 87 m 434 781 q 434 868 434 803 q 347 868 412 868 q 347 781 347 846 q 347 694 347 760 q 347 608 347 673 q 434 608 369 608 q 521 608 456 608 q 608 608 543 608 q 694 608 629 608 q 781 608 716 608 q 868 608 803 608 q 868 521 868 586 q 781 521 846 521 q 694 521 760 521 q 608 521 673 521 q 608 434 608 499 q 521 434 586 434 q 434 434 499 434 q 434 521 434 456 q 347 521 412 521 q 347 434 347 499 q 347 347 347 412 q 260 347 326 347 q 260 260 260 326 q 260 174 260 239 q 347 174 282 174 q 434 174 369 174 q 521 174 456 174 q 521 87 521 152 q 608 87 543 87 q 694 87 629 87 q 781 87 716 87 q 781 0 781 65 q 694 0 760 0 q 608 0 673 0 q 521 0 586 0 q 521 -87 521 -22 q 434 -87 499 -87 q 347 -87 412 -87 q 347 0 347 -65 q 347 87 347 22 q 260 87 326 87 q 260 0 260 65 q 174 0 239 0 q 174 87 174 22 q 174 174 174 109 q 174 260 174 195 q 174 347 174 282 q 174 434 174 369 q 174 521 174 456 q 174 608 174 543 q 174 694 174 629 q 87 694 152 694 q 87 781 87 716 q 0 781 65 781 q 0 868 0 803 q 87 868 22 868 q 174 868 109 868 q 174 955 174 890 q 260 955 195 955 q 260 1042 260 977 q 347 1042 282 1042 q 347 955 347 1020 q 434 955 369 955 q 521 955 456 955 q 608 955 543 955 q 608 1042 608 977 q 694 1042 629 1042 q 781 1042 716 1042 q 868 1042 803 1042 q 868 955 868 1020 q 781 955 846 955 q 694 955 760 955 q 694 868 694 933 q 608 868 673 868 q 521 868 586 868 q 521 781 521 846 q 434 781 499 781 z "},"F":{"ha":868,"x_min":0,"x_max":781,"o":"m 174 -87 q 174 0 174 -65 q 260 0 195 0 q 260 -87 260 -22 q 174 -87 239 -87 m 174 87 q 174 174 174 109 q 174 260 174 195 q 87 260 152 260 q 0 260 65 260 q 0 347 0 282 q 0 434 0 369 q 0 521 0 456 q 87 521 22 521 q 87 434 87 499 q 174 434 109 434 q 174 521 174 456 q 174 608 174 543 q 87 608 152 608 q 87 694 87 629 q 87 781 87 716 q 0 781 65 781 q 0 868 0 803 q 0 955 0 890 q 87 955 22 955 q 174 955 109 955 q 260 955 195 955 q 260 868 260 933 q 347 868 282 868 q 434 868 369 868 q 434 955 434 890 q 521 955 456 955 q 608 955 543 955 q 694 955 629 955 q 781 955 716 955 q 781 868 781 933 q 694 868 760 868 q 608 868 673 868 q 608 781 608 846 q 521 781 586 781 q 434 781 499 781 q 347 781 412 781 q 347 694 347 760 q 260 694 326 694 q 260 608 260 673 q 260 521 260 586 q 347 521 282 521 q 434 521 369 521 q 434 608 434 543 q 521 608 456 608 q 608 608 543 608 q 608 521 608 586 q 694 521 629 521 q 781 521 716 521 q 781 434 781 499 q 694 434 760 434 q 608 434 673 434 q 521 434 586 434 q 434 434 499 434 q 434 347 434 412 q 347 347 412 347 q 260 347 326 347 q 260 260 260 326 q 260 174 260 239 q 260 87 260 152 q 174 87 239 87 z "},"G":{"ha":955,"x_min":0,"x_max":868,"o":"m 608 -87 q 608 0 608 -65 q 694 0 629 0 q 694 -87 694 -22 q 608 -87 673 -87 m 694 0 q 694 87 694 22 q 694 174 694 109 q 608 174 673 174 q 608 260 608 195 q 521 260 586 260 q 521 347 521 282 q 434 347 499 347 q 347 347 412 347 q 347 434 347 369 q 434 434 369 434 q 521 434 456 434 q 521 521 521 456 q 608 521 543 521 q 608 608 608 543 q 694 608 629 608 q 694 521 694 586 q 781 521 716 521 q 781 434 781 499 q 868 434 803 434 q 868 347 868 412 q 868 260 868 326 q 868 174 868 239 q 868 87 868 152 q 781 87 846 87 q 781 0 781 65 q 694 0 760 0 m 434 87 q 521 87 456 87 q 521 0 521 65 q 434 0 499 0 q 347 0 412 0 q 260 0 326 0 q 260 87 260 22 q 174 87 239 87 q 174 174 174 109 q 87 174 152 174 q 87 260 87 195 q 87 347 87 282 q 0 347 65 347 q 0 434 0 369 q 0 521 0 456 q 0 608 0 543 q 0 694 0 629 q 0 781 0 716 q 87 781 22 781 q 87 868 87 803 q 174 868 109 868 q 174 955 174 890 q 260 955 195 955 q 260 1042 260 977 q 347 1042 282 1042 q 434 1042 369 1042 q 521 1042 456 1042 q 608 1042 543 1042 q 694 1042 629 1042 q 694 955 694 1020 q 781 955 716 955 q 868 955 803 955 q 868 868 868 933 q 781 868 846 868 q 781 781 781 846 q 694 781 760 781 q 694 694 694 760 q 608 694 673 694 q 521 694 586 694 q 521 781 521 716 q 434 781 499 781 q 347 781 412 781 q 347 694 347 760 q 260 694 326 694 q 260 608 260 673 q 174 608 239 608 q 174 521 174 586 q 174 434 174 499 q 174 347 174 412 q 174 260 174 326 q 260 260 195 260 q 260 174 260 239 q 347 174 282 174 q 347 87 347 152 q 434 87 369 87 z "},"H":{"ha":1042,"x_min":0,"x_max":955,"o":"m 87 -87 q 87 0 87 -65 q 174 0 109 0 q 174 -87 174 -22 q 87 -87 152 -87 m 781 0 q 781 87 781 22 q 781 174 781 109 q 781 260 781 195 q 781 347 781 282 q 781 434 781 369 q 781 521 781 456 q 694 521 760 521 q 608 521 673 521 q 521 521 586 521 q 521 434 521 499 q 434 434 499 434 q 347 434 412 434 q 347 347 347 412 q 347 260 347 326 q 260 260 326 260 q 260 174 260 239 q 260 87 260 152 q 260 0 260 65 q 174 0 239 0 q 174 87 174 22 q 174 174 174 109 q 174 260 174 195 q 174 347 174 282 q 87 347 152 347 q 87 260 87 326 q 0 260 65 260 q 0 347 0 282 q 0 434 0 369 q 0 521 0 456 q 87 521 22 521 q 87 608 87 543 q 87 694 87 629 q 87 781 87 716 q 0 781 65 781 q 0 868 0 803 q 87 868 22 868 q 87 955 87 890 q 174 955 109 955 q 260 955 195 955 q 260 1042 260 977 q 347 1042 282 1042 q 347 955 347 1020 q 347 868 347 933 q 347 781 347 846 q 347 694 347 760 q 347 608 347 673 q 434 608 369 608 q 521 608 456 608 q 608 608 543 608 q 694 608 629 608 q 781 608 716 608 q 781 694 781 629 q 694 694 760 694 q 608 694 673 694 q 608 781 608 716 q 608 868 608 803 q 694 868 629 868 q 694 955 694 890 q 781 955 716 955 q 781 1042 781 977 q 868 1042 803 1042 q 955 1042 890 1042 q 955 955 955 1020 q 955 868 955 933 q 955 781 955 846 q 955 694 955 760 q 955 608 955 673 q 955 521 955 586 q 955 434 955 499 q 868 434 933 434 q 868 347 868 412 q 868 260 868 326 q 868 174 868 239 q 868 87 868 152 q 868 0 868 65 q 781 0 846 0 z "},"I":{"ha":434,"x_min":0,"x_max":347,"o":"m 87 -87 q 87 0 87 -65 q 87 87 87 22 q 87 174 87 109 q 87 260 87 195 q 87 347 87 282 q 174 347 109 347 q 174 434 174 369 q 174 521 174 456 q 174 608 174 543 q 87 608 152 608 q 87 694 87 629 q 87 781 87 716 q 0 781 65 781 q 0 868 0 803 q 87 868 22 868 q 87 955 87 890 q 174 955 109 955 q 260 955 195 955 q 260 1042 260 977 q 347 1042 282 1042 q 347 955 347 1020 q 347 868 347 933 q 347 781 347 846 q 347 694 347 760 q 347 608 347 673 q 347 521 347 586 q 347 434 347 499 q 347 347 347 412 q 260 347 326 347 q 260 260 260 326 q 260 174 260 239 q 260 87 260 152 q 174 87 239 87 q 174 0 174 65 q 174 -87 174 -22 q 87 -87 152 -87 z "},"J":{"ha":781,"x_min":0,"x_max":694,"o":"m 174 0 q 260 0 195 0 q 260 -87 260 -22 q 174 -87 239 -87 q 87 -87 152 -87 q 87 0 87 -65 q 174 0 109 0 m 260 0 q 260 87 260 22 q 347 87 282 87 q 347 174 347 109 q 347 260 347 195 q 434 260 369 260 q 434 347 434 282 q 434 434 434 369 q 434 521 434 456 q 434 608 434 543 q 434 694 434 629 q 434 781 434 716 q 347 781 412 781 q 347 868 347 803 q 434 868 369 868 q 434 955 434 890 q 521 955 456 955 q 521 1042 521 977 q 608 1042 543 1042 q 608 955 608 1020 q 694 955 629 955 q 694 868 694 933 q 694 781 694 846 q 694 694 694 760 q 694 608 694 673 q 694 521 694 586 q 608 521 673 521 q 608 434 608 499 q 608 347 608 412 q 608 260 608 326 q 608 174 608 239 q 521 174 586 174 q 521 87 521 152 q 434 87 499 87 q 434 0 434 65 q 347 0 412 0 q 260 0 326 0 m 87 0 q 0 0 65 0 q 0 87 0 22 q 87 87 22 87 q 87 0 87 65 z "},"K":{"ha":955,"x_min":0,"x_max":868,"o":"m 781 -87 q 781 0 781 -65 q 781 87 781 22 q 868 87 803 87 q 868 0 868 65 q 868 -87 868 -22 q 781 -87 846 -87 m 0 0 q 0 87 0 22 q 87 87 22 87 q 87 0 87 65 q 0 0 65 0 m 781 87 q 694 87 760 87 q 694 174 694 109 q 608 174 673 174 q 521 174 586 174 q 521 260 521 195 q 434 260 499 260 q 347 260 412 260 q 347 347 347 282 q 434 347 369 347 q 434 434 434 369 q 521 434 456 434 q 521 521 521 456 q 608 521 543 521 q 608 434 608 499 q 608 347 608 412 q 694 347 629 347 q 694 260 694 326 q 781 260 716 260 q 781 174 781 239 q 781 87 781 152 m 87 87 q 87 174 87 109 q 87 260 87 195 q 87 347 87 282 q 87 434 87 369 q 87 521 87 456 q 87 608 87 543 q 87 694 87 629 q 0 694 65 694 q 0 781 0 716 q 0 868 0 803 q 87 868 22 868 q 87 955 87 890 q 174 955 109 955 q 174 1042 174 977 q 260 1042 195 1042 q 347 1042 282 1042 q 347 955 347 1020 q 347 868 347 933 q 260 868 326 868 q 260 781 260 846 q 260 694 260 760 q 347 694 282 694 q 434 694 369 694 q 434 781 434 716 q 521 781 456 781 q 521 868 521 803 q 608 868 543 868 q 694 868 629 868 q 694 781 694 846 q 608 781 673 781 q 608 694 608 760 q 608 608 608 673 q 521 608 586 608 q 521 521 521 586 q 434 521 499 521 q 434 434 434 499 q 347 434 412 434 q 347 521 347 456 q 347 608 347 543 q 260 608 326 608 q 260 521 260 586 q 260 434 260 499 q 260 347 260 412 q 174 347 239 347 q 174 260 174 326 q 174 174 174 239 q 174 87 174 152 q 87 87 152 87 m 694 868 q 694 955 694 890 q 781 955 716 955 q 781 868 781 933 q 694 868 760 868 m 781 955 q 781 1042 781 977 q 868 1042 803 1042 q 868 955 868 1020 q 781 955 846 955 z "},"L":{"ha":955,"x_min":0,"x_max":868,"o":"m 87 0 q 87 87 87 22 q 87 174 87 109 q 87 260 87 195 q 0 260 65 260 q 0 347 0 282 q 0 434 0 369 q 0 521 0 456 q 0 608 0 543 q 0 694 0 629 q 0 781 0 716 q 0 868 0 803 q 0 955 0 890 q 87 955 22 955 q 87 1042 87 977 q 174 1042 109 1042 q 174 955 174 1020 q 260 955 195 955 q 260 868 260 933 q 347 868 282 868 q 347 781 347 846 q 260 781 326 781 q 260 694 260 760 q 174 694 239 694 q 174 608 174 673 q 174 521 174 586 q 174 434 174 499 q 174 347 174 412 q 174 260 174 326 q 174 174 174 239 q 174 87 174 152 q 174 0 174 65 q 87 0 152 0 m 694 0 q 608 0 673 0 q 521 0 586 0 q 434 0 499 0 q 347 0 412 0 q 260 0 326 0 q 260 87 260 22 q 347 87 282 87 q 434 87 369 87 q 521 87 456 87 q 521 174 521 109 q 608 174 543 174 q 694 174 629 174 q 694 260 694 195 q 694 347 694 282 q 781 347 716 347 q 781 260 781 326 q 868 260 803 260 q 868 174 868 239 q 868 87 868 152 q 781 87 846 87 q 781 0 781 65 q 694 0 760 0 z "},"M":{"ha":1215,"x_min":0,"x_max":1128,"o":"m 955 -87 q 955 0 955 -65 q 1042 0 977 0 q 1042 -87 1042 -22 q 955 -87 1020 -87 m 521 0 q 521 87 521 22 q 608 87 543 87 q 608 0 608 65 q 521 0 586 0 m 87 0 q 87 87 87 22 q 87 174 87 109 q 174 174 109 174 q 174 87 174 152 q 174 0 174 65 q 87 0 152 0 m 955 87 q 955 174 955 109 q 955 260 955 195 q 868 260 933 260 q 868 347 868 282 q 868 434 868 369 q 868 521 868 456 q 868 608 868 543 q 868 694 868 629 q 781 694 846 694 q 694 694 760 694 q 608 694 673 694 q 608 608 608 673 q 521 608 586 608 q 521 521 521 586 q 521 434 521 499 q 434 434 499 434 q 434 347 434 412 q 521 347 456 347 q 521 260 521 326 q 521 174 521 239 q 521 87 521 152 q 434 87 499 87 q 434 174 434 109 q 434 260 434 195 q 347 260 412 260 q 347 347 347 282 q 347 434 347 369 q 347 521 347 456 q 347 608 347 543 q 347 694 347 629 q 434 694 369 694 q 434 781 434 716 q 521 781 456 781 q 521 868 521 803 q 521 955 521 890 q 608 955 543 955 q 694 955 629 955 q 694 1042 694 977 q 781 1042 716 1042 q 781 955 781 1020 q 781 868 781 933 q 868 868 803 868 q 868 955 868 890 q 955 955 890 955 q 955 1042 955 977 q 1042 1042 977 1042 q 1042 955 1042 1020 q 1128 955 1063 955 q 1128 868 1128 933 q 1128 781 1128 846 q 1128 694 1128 760 q 1128 608 1128 673 q 1042 608 1107 608 q 1042 521 1042 586 q 1042 434 1042 499 q 1042 347 1042 412 q 1042 260 1042 326 q 1042 174 1042 239 q 1042 87 1042 152 q 955 87 1020 87 m 87 174 q 0 174 65 174 q 0 260 0 195 q 0 347 0 282 q 0 434 0 369 q 0 521 0 456 q 0 608 0 543 q 0 694 0 629 q 0 781 0 716 q 0 868 0 803 q 87 868 22 868 q 87 955 87 890 q 87 1042 87 977 q 174 1042 109 1042 q 174 955 174 1020 q 260 955 195 955 q 260 868 260 933 q 347 868 282 868 q 347 781 347 846 q 347 694 347 760 q 260 694 326 694 q 260 608 260 673 q 174 608 239 608 q 174 521 174 586 q 174 434 174 499 q 174 347 174 412 q 87 347 152 347 q 87 260 87 326 q 87 174 87 239 z "},"N":{"ha":1042,"x_min":0,"x_max":955,"o":"m 608 -87 q 608 0 608 -65 q 694 0 629 0 q 694 -87 694 -22 q 608 -87 673 -87 m 0 0 q 0 87 0 22 q 0 174 0 109 q 87 174 22 174 q 87 87 87 152 q 87 0 87 65 q 0 0 65 0 m 608 174 q 608 260 608 195 q 694 260 629 260 q 694 174 694 239 q 608 174 673 174 m 521 347 q 521 434 521 369 q 521 521 521 456 q 608 521 543 521 q 608 434 608 499 q 608 347 608 412 q 521 347 586 347 m 694 0 q 694 87 694 22 q 781 87 716 87 q 781 0 781 65 q 694 0 760 0 m 781 87 q 781 174 781 109 q 781 260 781 195 q 781 347 781 282 q 781 434 781 369 q 781 521 781 456 q 781 608 781 543 q 694 608 760 608 q 694 694 694 629 q 694 781 694 716 q 608 781 673 781 q 608 868 608 803 q 608 955 608 890 q 694 955 629 955 q 781 955 716 955 q 781 1042 781 977 q 868 1042 803 1042 q 868 955 868 1020 q 868 868 868 933 q 955 868 890 868 q 955 781 955 846 q 955 694 955 760 q 955 608 955 673 q 955 521 955 586 q 955 434 955 499 q 955 347 955 412 q 955 260 955 326 q 868 260 933 260 q 868 174 868 239 q 868 87 868 152 q 781 87 846 87 m 87 174 q 87 260 87 195 q 87 347 87 282 q 87 434 87 369 q 87 521 87 456 q 0 521 65 521 q 0 608 0 543 q 0 694 0 629 q 0 781 0 716 q 0 868 0 803 q 87 868 22 868 q 87 955 87 890 q 174 955 109 955 q 174 1042 174 977 q 260 1042 195 1042 q 260 955 260 1020 q 347 955 282 955 q 347 868 347 933 q 434 868 369 868 q 434 781 434 846 q 434 694 434 760 q 521 694 456 694 q 521 608 521 673 q 521 521 521 586 q 434 521 499 521 q 434 608 434 543 q 347 608 412 608 q 347 694 347 629 q 260 694 326 694 q 174 694 239 694 q 174 608 174 673 q 260 608 195 608 q 260 521 260 586 q 260 434 260 499 q 260 347 260 412 q 174 347 239 347 q 174 260 174 326 q 174 174 174 239 q 87 174 152 174 z "},"O":{"ha":1042,"x_min":0,"x_max":955,"o":"m 521 -87 q 521 0 521 -65 q 434 0 499 0 q 347 0 412 0 q 260 0 326 0 q 260 87 260 22 q 174 87 239 87 q 174 174 174 109 q 87 174 152 174 q 87 260 87 195 q 87 347 87 282 q 0 347 65 347 q 0 434 0 369 q 0 521 0 456 q 0 608 0 543 q 0 694 0 629 q 87 694 22 694 q 87 781 87 716 q 174 781 109 781 q 174 868 174 803 q 260 868 195 868 q 260 955 260 890 q 347 955 282 955 q 434 955 369 955 q 434 1042 434 977 q 521 1042 456 1042 q 608 1042 543 1042 q 694 1042 629 1042 q 781 1042 716 1042 q 868 1042 803 1042 q 868 955 868 1020 q 955 955 890 955 q 955 868 955 933 q 955 781 955 846 q 868 781 933 781 q 868 694 868 760 q 781 694 846 694 q 694 694 760 694 q 694 781 694 716 q 608 781 673 781 q 521 781 586 781 q 434 781 499 781 q 347 781 412 781 q 347 694 347 760 q 260 694 326 694 q 260 608 260 673 q 174 608 239 608 q 174 521 174 586 q 174 434 174 499 q 260 434 195 434 q 260 347 260 412 q 260 260 260 326 q 260 174 260 239 q 347 174 282 174 q 434 174 369 174 q 434 87 434 152 q 521 87 456 87 q 608 87 543 87 q 694 87 629 87 q 694 174 694 109 q 781 174 716 174 q 781 260 781 195 q 868 260 803 260 q 868 174 868 239 q 868 87 868 152 q 781 87 846 87 q 781 0 781 65 q 694 0 760 0 q 608 0 673 0 q 608 -87 608 -22 q 521 -87 586 -87 m 868 521 q 868 608 868 543 q 955 608 890 608 q 955 521 955 586 q 868 521 933 521 m 868 260 q 868 347 868 282 q 868 434 868 369 q 955 434 890 434 q 955 347 955 412 q 955 260 955 326 q 868 260 933 260 z "},"P":{"ha":955,"x_min":0,"x_max":868,"o":"m 174 -87 q 174 0 174 -65 q 260 0 195 0 q 260 -87 260 -22 q 174 -87 239 -87 m 174 0 q 87 0 152 0 q 87 87 87 22 q 87 174 87 109 q 0 174 65 174 q 0 260 0 195 q 0 347 0 282 q 0 434 0 369 q 0 521 0 456 q 0 608 0 543 q 87 608 22 608 q 87 694 87 629 q 0 694 65 694 q 0 781 0 716 q 0 868 0 803 q 87 868 22 868 q 87 955 87 890 q 87 1042 87 977 q 174 1042 109 1042 q 174 955 174 1020 q 260 955 195 955 q 347 955 282 955 q 347 868 347 933 q 347 781 347 846 q 260 781 326 781 q 260 694 260 760 q 260 608 260 673 q 260 521 260 586 q 347 521 282 521 q 347 608 347 543 q 434 608 369 608 q 521 608 456 608 q 608 608 543 608 q 608 694 608 629 q 694 694 629 694 q 694 781 694 716 q 608 781 673 781 q 608 868 608 803 q 694 868 629 868 q 781 868 716 868 q 781 781 781 846 q 868 781 803 781 q 868 694 868 760 q 868 608 868 673 q 868 521 868 586 q 781 521 846 521 q 781 434 781 499 q 694 434 760 434 q 608 434 673 434 q 521 434 586 434 q 521 347 521 412 q 434 347 499 347 q 347 347 412 347 q 347 434 347 369 q 260 434 326 434 q 260 521 260 456 q 174 521 239 521 q 174 434 174 499 q 174 347 174 412 q 174 260 174 326 q 174 174 174 239 q 174 87 174 152 q 174 0 174 65 m 608 868 q 521 868 586 868 q 434 868 499 868 q 434 955 434 890 q 521 955 456 955 q 608 955 543 955 q 608 868 608 933 z "},"Q":{"ha":1128,"x_min":0,"x_max":1042,"o":"m 694 608 q 694 694 694 629 q 608 694 673 694 q 608 781 608 716 q 521 781 586 781 q 434 781 499 781 q 347 781 412 781 q 347 694 347 760 q 260 694 326 694 q 260 608 260 673 q 174 608 239 608 q 174 521 174 586 q 174 434 174 499 q 260 434 195 434 q 260 347 260 412 q 260 260 260 326 q 347 260 282 260 q 347 174 347 239 q 434 174 369 174 q 521 174 456 174 q 521 87 521 152 q 608 87 543 87 q 694 87 629 87 q 694 174 694 109 q 608 174 673 174 q 608 260 608 195 q 521 260 586 260 q 521 347 521 282 q 521 434 521 369 q 608 434 543 434 q 608 521 608 456 q 694 521 629 521 q 694 434 694 499 q 781 434 716 434 q 781 347 781 412 q 781 260 781 326 q 868 260 803 260 q 868 347 868 282 q 955 347 890 347 q 955 434 955 369 q 955 521 955 456 q 955 608 955 543 q 868 608 933 608 q 868 694 868 629 q 781 694 846 694 q 781 608 781 673 q 694 608 760 608 m 955 0 q 868 0 933 0 q 868 87 868 22 q 781 87 846 87 q 781 0 781 65 q 694 0 760 0 q 608 0 673 0 q 521 0 586 0 q 434 0 499 0 q 347 0 412 0 q 347 87 347 22 q 260 87 326 87 q 174 87 239 87 q 174 174 174 109 q 87 174 152 174 q 87 260 87 195 q 87 347 87 282 q 0 347 65 347 q 0 434 0 369 q 0 521 0 456 q 0 608 0 543 q 0 694 0 629 q 87 694 22 694 q 87 781 87 716 q 174 781 109 781 q 174 868 174 803 q 260 868 195 868 q 260 955 260 890 q 347 955 282 955 q 434 955 369 955 q 521 955 456 955 q 521 1042 521 977 q 608 1042 543 1042 q 694 1042 629 1042 q 781 1042 716 1042 q 868 1042 803 1042 q 868 955 868 1020 q 955 955 890 955 q 955 868 955 933 q 868 868 933 868 q 868 781 868 846 q 868 694 868 760 q 955 694 890 694 q 955 608 955 673 q 1042 608 977 608 q 1042 521 1042 586 q 1042 434 1042 499 q 1042 347 1042 412 q 955 347 1020 347 q 955 260 955 326 q 868 260 933 260 q 868 174 868 239 q 955 174 890 174 q 955 87 955 152 q 1042 87 977 87 q 1042 0 1042 65 q 955 0 1020 0 z "},"R":{"ha":1042,"x_min":0,"x_max":955,"o":"m 868 -87 q 868 0 868 -65 q 955 0 890 0 q 955 -87 955 -22 q 868 -87 933 -87 m 87 0 q 87 87 87 22 q 87 174 87 109 q 87 260 87 195 q 87 347 87 282 q 87 434 87 369 q 87 521 87 456 q 87 608 87 543 q 87 694 87 629 q 0 694 65 694 q 0 781 0 716 q 0 868 0 803 q 87 868 22 868 q 87 955 87 890 q 174 955 109 955 q 174 1042 174 977 q 260 1042 195 1042 q 260 955 260 1020 q 347 955 282 955 q 347 868 347 933 q 347 781 347 846 q 347 694 347 760 q 347 608 347 673 q 260 608 326 608 q 260 521 260 586 q 260 434 260 499 q 260 347 260 412 q 347 347 282 347 q 347 434 347 369 q 347 521 347 456 q 434 521 369 521 q 521 521 456 521 q 521 434 521 499 q 608 434 543 434 q 608 347 608 412 q 694 347 629 347 q 694 260 694 326 q 781 260 716 260 q 781 174 781 239 q 868 174 803 174 q 868 87 868 152 q 868 0 868 65 q 781 0 846 0 q 781 87 781 22 q 694 87 760 87 q 694 174 694 109 q 608 174 673 174 q 521 174 586 174 q 521 260 521 195 q 434 260 499 260 q 347 260 412 260 q 260 260 326 260 q 260 347 260 282 q 174 347 239 347 q 174 260 174 326 q 174 174 174 239 q 174 87 174 152 q 174 0 174 65 q 87 0 152 0 m 608 434 q 608 521 608 456 q 694 521 629 521 q 694 434 694 499 q 608 434 673 434 m 694 521 q 694 608 694 543 q 781 608 716 608 q 781 694 781 629 q 694 694 760 694 q 694 781 694 716 q 608 781 673 781 q 521 781 586 781 q 434 781 499 781 q 434 868 434 803 q 434 955 434 890 q 347 955 412 955 q 347 1042 347 977 q 434 1042 369 1042 q 521 1042 456 1042 q 608 1042 543 1042 q 608 955 608 1020 q 694 955 629 955 q 781 955 716 955 q 781 868 781 933 q 868 868 803 868 q 868 781 868 846 q 868 694 868 760 q 868 608 868 673 q 868 521 868 586 q 781 521 846 521 q 694 521 760 521 z "},"S":{"ha":1042,"x_min":0,"x_max":955,"o":"m 608 -87 q 608 0 608 -65 q 694 0 629 0 q 694 -87 694 -22 q 608 -87 673 -87 m 781 0 q 781 87 781 22 q 781 174 781 109 q 868 174 803 174 q 868 87 868 152 q 868 0 868 65 q 781 0 846 0 m 608 0 q 521 0 586 0 q 434 0 499 0 q 347 0 412 0 q 260 0 326 0 q 174 0 239 0 q 87 0 152 0 q 87 87 87 22 q 0 87 65 87 q 0 174 0 109 q 0 260 0 195 q 87 260 22 260 q 174 260 109 260 q 260 260 195 260 q 260 174 260 239 q 347 174 282 174 q 434 174 369 174 q 434 87 434 152 q 521 87 456 87 q 608 87 543 87 q 608 0 608 65 m 781 174 q 694 174 760 174 q 694 260 694 195 q 694 347 694 282 q 608 347 673 347 q 521 347 586 347 q 521 434 521 369 q 434 434 499 434 q 347 434 412 434 q 347 521 347 456 q 260 521 326 521 q 174 521 239 521 q 174 434 174 499 q 87 434 152 434 q 0 434 65 434 q 0 521 0 456 q 0 608 0 543 q 0 694 0 629 q 87 694 22 694 q 87 781 87 716 q 174 781 109 781 q 260 781 195 781 q 260 694 260 760 q 347 694 282 694 q 434 694 369 694 q 434 608 434 673 q 521 608 456 608 q 608 608 543 608 q 608 521 608 586 q 694 521 629 521 q 694 434 694 499 q 781 434 716 434 q 781 347 781 412 q 781 260 781 326 q 781 174 781 239 m 781 694 q 694 694 760 694 q 694 781 694 716 q 608 781 673 781 q 608 868 608 803 q 521 868 586 868 q 434 868 499 868 q 347 868 412 868 q 260 868 326 868 q 174 868 239 868 q 87 868 152 868 q 87 781 87 846 q 0 781 65 781 q 0 868 0 803 q 87 868 22 868 q 87 955 87 890 q 174 955 109 955 q 260 955 195 955 q 260 1042 260 977 q 347 1042 282 1042 q 434 1042 369 1042 q 521 1042 456 1042 q 608 1042 543 1042 q 694 1042 629 1042 q 694 955 694 1020 q 781 955 716 955 q 868 955 803 955 q 955 955 890 955 q 955 868 955 933 q 955 781 955 846 q 868 781 933 781 q 868 694 868 760 q 781 694 846 694 z "},"T":{"ha":1042,"x_min":0,"x_max":955,"o":"m 347 0 q 347 87 347 22 q 347 174 347 109 q 347 260 347 195 q 347 347 347 282 q 347 434 347 369 q 347 521 347 456 q 347 608 347 543 q 347 694 347 629 q 260 694 326 694 q 174 694 239 694 q 87 694 152 694 q 87 781 87 716 q 0 781 65 781 q 0 868 0 803 q 0 955 0 890 q 0 1042 0 977 q 87 1042 22 1042 q 87 955 87 1020 q 174 955 109 955 q 260 955 195 955 q 260 868 260 933 q 347 868 282 868 q 434 868 369 868 q 521 868 456 868 q 608 868 543 868 q 608 781 608 846 q 694 781 629 781 q 781 781 716 781 q 868 781 803 781 q 955 781 890 781 q 955 694 955 760 q 868 694 933 694 q 781 694 846 694 q 694 694 760 694 q 608 694 673 694 q 521 694 586 694 q 521 608 521 673 q 521 521 521 586 q 521 434 521 499 q 521 347 521 412 q 521 260 521 326 q 434 260 499 260 q 434 174 434 239 q 434 87 434 152 q 434 0 434 65 q 347 0 412 0 z "},"U":{"ha":1042,"x_min":0,"x_max":955,"o":"m 694 -87 q 694 0 694 -65 q 781 0 716 0 q 781 -87 781 -22 q 694 -87 760 -87 m 781 0 q 781 87 781 22 q 694 87 760 87 q 694 0 694 65 q 608 0 673 0 q 521 0 586 0 q 434 0 499 0 q 347 0 412 0 q 347 87 347 22 q 260 87 326 87 q 174 87 239 87 q 174 174 174 109 q 174 260 174 195 q 87 260 152 260 q 87 347 87 282 q 87 434 87 369 q 0 434 65 434 q 0 521 0 456 q 0 608 0 543 q 0 694 0 629 q 0 781 0 716 q 0 868 0 803 q 87 868 22 868 q 87 955 87 890 q 174 955 109 955 q 260 955 195 955 q 260 868 260 933 q 347 868 282 868 q 347 781 347 846 q 347 694 347 760 q 260 694 326 694 q 260 608 260 673 q 260 521 260 586 q 260 434 260 499 q 260 347 260 412 q 260 260 260 326 q 347 260 282 260 q 347 174 347 239 q 434 174 369 174 q 434 87 434 152 q 521 87 456 87 q 608 87 543 87 q 694 87 629 87 q 694 174 694 109 q 781 174 716 174 q 781 260 781 195 q 781 347 781 282 q 781 434 781 369 q 781 521 781 456 q 781 608 781 543 q 694 608 760 608 q 694 694 694 629 q 694 781 694 716 q 608 781 673 781 q 608 868 608 803 q 694 868 629 868 q 694 955 694 890 q 781 955 716 955 q 781 1042 781 977 q 868 1042 803 1042 q 868 955 868 1020 q 955 955 890 955 q 955 868 955 933 q 955 781 955 846 q 955 694 955 760 q 955 608 955 673 q 955 521 955 586 q 955 434 955 499 q 955 347 955 412 q 955 260 955 326 q 955 174 955 239 q 955 87 955 152 q 868 87 933 87 q 868 0 868 65 q 781 0 846 0 z "},"V":{"ha":1042,"x_min":0,"x_max":955,"o":"m 347 0 q 347 87 347 22 q 347 174 347 109 q 434 174 369 174 q 434 87 434 152 q 434 0 434 65 q 347 0 412 0 m 521 87 q 521 174 521 109 q 608 174 543 174 q 608 87 608 152 q 521 87 586 87 m 608 174 q 608 260 608 195 q 694 260 629 260 q 694 174 694 239 q 608 174 673 174 m 347 174 q 260 174 326 174 q 260 260 260 195 q 260 347 260 282 q 174 347 239 347 q 174 434 174 369 q 87 434 152 434 q 87 521 87 456 q 87 608 87 543 q 87 694 87 629 q 0 694 65 694 q 0 781 0 716 q 0 868 0 803 q 0 955 0 890 q 87 955 22 955 q 87 1042 87 977 q 174 1042 109 1042 q 260 1042 195 1042 q 260 955 260 1020 q 260 868 260 933 q 260 781 260 846 q 260 694 260 760 q 260 608 260 673 q 260 521 260 586 q 347 521 282 521 q 347 434 347 499 q 347 347 347 412 q 347 260 347 326 q 347 174 347 239 m 694 260 q 694 347 694 282 q 694 434 694 369 q 694 521 694 456 q 694 608 694 543 q 781 608 716 608 q 781 694 781 629 q 694 694 760 694 q 694 781 694 716 q 608 781 673 781 q 608 868 608 803 q 694 868 629 868 q 694 955 694 890 q 781 955 716 955 q 781 1042 781 977 q 868 1042 803 1042 q 955 1042 890 1042 q 955 955 955 1020 q 955 868 955 933 q 955 781 955 846 q 955 694 955 760 q 955 608 955 673 q 955 521 955 586 q 868 521 933 521 q 868 434 868 499 q 781 434 846 434 q 781 347 781 412 q 781 260 781 326 q 694 260 760 260 z "},"W":{"ha":1302,"x_min":0,"x_max":1215,"o":"m 781 -87 q 781 0 781 -65 q 781 87 781 22 q 868 87 803 87 q 868 0 868 65 q 868 -87 868 -22 q 781 -87 846 -87 m 347 -87 q 347 0 347 -65 q 347 87 347 22 q 260 87 326 87 q 260 0 260 65 q 174 0 239 0 q 174 87 174 22 q 260 87 195 87 q 260 174 260 109 q 260 260 260 195 q 174 260 239 260 q 174 347 174 282 q 174 434 174 369 q 87 434 152 434 q 87 521 87 456 q 87 608 87 543 q 87 694 87 629 q 0 694 65 694 q 0 781 0 716 q 0 868 0 803 q 87 868 22 868 q 87 955 87 890 q 174 955 109 955 q 174 1042 174 977 q 260 1042 195 1042 q 260 955 260 1020 q 260 868 260 933 q 260 781 260 846 q 260 694 260 760 q 260 608 260 673 q 260 521 260 586 q 260 434 260 499 q 347 434 282 434 q 347 347 347 412 q 347 260 347 326 q 347 174 347 239 q 434 174 369 174 q 521 174 456 174 q 521 260 521 195 q 608 260 543 260 q 694 260 629 260 q 694 347 694 282 q 608 347 673 347 q 608 434 608 369 q 608 521 608 456 q 608 608 608 543 q 521 608 586 608 q 521 694 521 629 q 434 694 499 694 q 434 781 434 716 q 347 781 412 781 q 347 868 347 803 q 434 868 369 868 q 434 955 434 890 q 521 955 456 955 q 521 1042 521 977 q 608 1042 543 1042 q 608 955 608 1020 q 608 868 608 933 q 608 781 608 846 q 694 781 629 781 q 694 694 694 760 q 694 608 694 673 q 694 521 694 586 q 781 521 716 521 q 781 434 781 499 q 868 434 803 434 q 868 521 868 456 q 868 608 868 543 q 868 694 868 629 q 955 694 890 694 q 955 781 955 716 q 955 868 955 803 q 1042 868 977 868 q 1042 955 1042 890 q 1042 1042 1042 977 q 1128 1042 1063 1042 q 1128 955 1128 1020 q 1215 955 1150 955 q 1215 868 1215 933 q 1215 781 1215 846 q 1215 694 1215 760 q 1128 694 1194 694 q 1128 608 1128 673 q 1042 608 1107 608 q 1042 521 1042 586 q 955 521 1020 521 q 955 434 955 499 q 955 347 955 412 q 868 347 933 347 q 868 260 868 326 q 781 260 846 260 q 781 174 781 239 q 781 87 781 152 q 694 87 760 87 q 694 174 694 109 q 608 174 673 174 q 608 87 608 152 q 521 87 586 87 q 434 87 499 87 q 434 0 434 65 q 434 -87 434 -22 q 347 -87 412 -87 z "},"X":{"ha":1042,"x_min":0,"x_max":955,"o":"m 868 0 q 868 87 868 22 q 955 87 890 87 q 955 0 955 65 q 868 0 933 0 m 87 0 q 87 87 87 22 q 174 87 109 87 q 174 0 174 65 q 87 0 152 0 m 694 87 q 694 174 694 109 q 781 174 716 174 q 781 87 781 152 q 694 87 760 87 m 174 87 q 174 174 174 109 q 174 260 174 195 q 174 347 174 282 q 260 347 195 347 q 260 434 260 369 q 347 434 282 434 q 347 347 347 412 q 347 260 347 326 q 260 260 326 260 q 260 174 260 239 q 260 87 260 152 q 174 87 239 87 m 694 174 q 608 174 673 174 q 608 260 608 195 q 694 260 629 260 q 694 174 694 239 m 608 260 q 521 260 586 260 q 521 347 521 282 q 434 347 499 347 q 434 434 434 369 q 347 434 412 434 q 347 521 347 456 q 260 521 326 521 q 260 608 260 543 q 174 608 239 608 q 174 694 174 629 q 87 694 152 694 q 87 781 87 716 q 0 781 65 781 q 0 868 0 803 q 0 955 0 890 q 87 955 22 955 q 87 1042 87 977 q 174 1042 109 1042 q 260 1042 195 1042 q 347 1042 282 1042 q 347 955 347 1020 q 347 868 347 933 q 260 868 326 868 q 260 781 260 846 q 347 781 282 781 q 347 694 347 760 q 347 608 347 673 q 434 608 369 608 q 434 694 434 629 q 434 781 434 716 q 521 781 456 781 q 521 868 521 803 q 521 955 521 890 q 608 955 543 955 q 608 1042 608 977 q 694 1042 629 1042 q 694 955 694 1020 q 781 955 716 955 q 781 868 781 933 q 868 868 803 868 q 868 781 868 846 q 781 781 846 781 q 694 781 760 781 q 694 694 694 760 q 608 694 673 694 q 608 608 608 673 q 521 608 586 608 q 521 521 521 586 q 521 434 521 499 q 608 434 543 434 q 608 347 608 412 q 608 260 608 326 z "},"Y":{"ha":955,"x_min":0,"x_max":868,"o":"m 434 0 q 434 87 434 22 q 434 174 434 109 q 434 260 434 195 q 434 347 434 282 q 434 434 434 369 q 521 434 456 434 q 521 521 521 456 q 521 608 521 543 q 521 694 521 629 q 521 781 521 716 q 521 868 521 803 q 608 868 543 868 q 608 955 608 890 q 608 1042 608 977 q 694 1042 629 1042 q 694 955 694 1020 q 781 955 716 955 q 781 868 781 933 q 868 868 803 868 q 868 781 868 846 q 868 694 868 760 q 781 694 846 694 q 781 608 781 673 q 694 608 760 608 q 694 521 694 586 q 608 521 673 521 q 608 434 608 499 q 608 347 608 412 q 608 260 608 326 q 521 260 586 260 q 521 174 521 239 q 521 87 521 152 q 521 0 521 65 q 434 0 499 0 m 434 434 q 347 434 412 434 q 347 521 347 456 q 260 521 326 521 q 260 608 260 543 q 174 608 239 608 q 174 694 174 629 q 87 694 152 694 q 87 781 87 716 q 0 781 65 781 q 0 868 0 803 q 0 955 0 890 q 87 955 22 955 q 87 1042 87 977 q 174 1042 109 1042 q 174 955 174 1020 q 260 955 195 955 q 260 868 260 933 q 260 781 260 846 q 347 781 282 781 q 347 694 347 760 q 347 608 347 673 q 434 608 369 608 q 434 521 434 586 q 434 434 434 499 z "},"Z":{"ha":955,"x_min":0,"x_max":868,"o":"m 0 -87 q 0 0 0 -65 q 0 87 0 22 q 0 174 0 109 q 87 174 22 174 q 87 260 87 195 q 174 260 109 260 q 174 347 174 282 q 260 347 195 347 q 260 434 260 369 q 347 434 282 434 q 347 521 347 456 q 347 608 347 543 q 434 608 369 608 q 434 694 434 629 q 434 781 434 716 q 521 781 456 781 q 521 868 521 803 q 434 868 499 868 q 347 868 412 868 q 260 868 326 868 q 174 868 239 868 q 174 781 174 846 q 87 781 152 781 q 87 694 87 760 q 0 694 65 694 q 0 781 0 716 q 0 868 0 803 q 0 955 0 890 q 87 955 22 955 q 87 1042 87 977 q 174 1042 109 1042 q 260 1042 195 1042 q 347 1042 282 1042 q 434 1042 369 1042 q 521 1042 456 1042 q 521 955 521 1020 q 608 955 543 955 q 694 955 629 955 q 781 955 716 955 q 868 955 803 955 q 868 868 868 933 q 781 868 846 868 q 694 868 760 868 q 608 868 673 868 q 608 781 608 846 q 694 781 629 781 q 781 781 716 781 q 781 694 781 760 q 781 608 781 673 q 694 608 760 608 q 694 521 694 586 q 608 521 673 521 q 608 434 608 499 q 521 434 586 434 q 434 434 499 434 q 434 347 434 412 q 347 347 412 347 q 347 260 347 326 q 260 260 326 260 q 260 174 260 239 q 174 174 239 174 q 174 87 174 152 q 260 87 195 87 q 260 174 260 109 q 347 174 282 174 q 434 174 369 174 q 521 174 456 174 q 521 87 521 152 q 608 87 543 87 q 694 87 629 87 q 694 0 694 65 q 608 0 673 0 q 521 0 586 0 q 434 0 499 0 q 347 0 412 0 q 260 0 326 0 q 174 0 239 0 q 174 87 174 22 q 87 87 152 87 q 87 0 87 65 q 87 -87 87 -22 q 0 -87 65 -87 m 781 0 q 781 87 781 22 q 868 87 803 87 q 868 0 868 65 q 781 0 846 0 z "},"[":{"ha":434,"x_min":0,"x_max":347,"o":"m 260 -260 q 260 -174 260 -239 q 347 -174 282 -174 q 347 -260 347 -195 q 260 -260 326 -260 m 260 -174 q 174 -174 239 -174 q 174 -87 174 -152 q 260 -87 195 -87 q 260 -174 260 -109 m 174 -87 q 87 -87 152 -87 q 87 0 87 -65 q 87 87 87 22 q 0 87 65 87 q 0 174 0 109 q 0 260 0 195 q 0 347 0 282 q 0 434 0 369 q 0 521 0 456 q 0 608 0 543 q 0 694 0 629 q 0 781 0 716 q 0 868 0 803 q 0 955 0 890 q 87 955 22 955 q 87 1042 87 977 q 174 1042 109 1042 q 260 1042 195 1042 q 260 955 260 1020 q 347 955 282 955 q 347 868 347 933 q 260 868 326 868 q 260 781 260 846 q 174 781 239 781 q 174 694 174 760 q 174 608 174 673 q 174 521 174 586 q 174 434 174 499 q 174 347 174 412 q 174 260 174 326 q 174 174 174 239 q 174 87 174 152 q 174 0 174 65 q 174 -87 174 -22 z "},"\\":{"ha":521,"x_min":0,"x_max":434,"o":"m 347 0 q 347 87 347 22 q 347 174 347 109 q 434 174 369 174 q 434 87 434 152 q 434 0 434 65 q 347 0 412 0 m 347 174 q 260 174 326 174 q 260 260 260 195 q 260 347 260 282 q 174 347 239 347 q 174 434 174 369 q 174 521 174 456 q 87 521 152 521 q 87 608 87 543 q 87 694 87 629 q 0 694 65 694 q 0 781 0 716 q 0 868 0 803 q 87 868 22 868 q 87 955 87 890 q 87 1042 87 977 q 174 1042 109 1042 q 174 955 174 1020 q 260 955 195 955 q 260 868 260 933 q 260 781 260 846 q 260 694 260 760 q 260 608 260 673 q 260 521 260 586 q 347 521 282 521 q 347 434 347 499 q 347 347 347 412 q 347 260 347 326 q 347 174 347 239 z "},"]":{"ha":434,"x_min":0,"x_max":347,"o":"m 0 -260 q 0 -174 0 -239 q 87 -174 22 -174 q 87 -260 87 -195 q 0 -260 65 -260 m 87 -174 q 87 -87 87 -152 q 174 -87 109 -87 q 174 -174 174 -109 q 87 -174 152 -174 m 174 -87 q 174 0 174 -65 q 174 87 174 22 q 174 174 174 109 q 174 260 174 195 q 174 347 174 282 q 174 434 174 369 q 174 521 174 456 q 174 608 174 543 q 174 694 174 629 q 87 694 152 694 q 87 781 87 716 q 87 868 87 803 q 0 868 65 868 q 0 955 0 890 q 87 955 22 955 q 87 1042 87 977 q 174 1042 109 1042 q 260 1042 195 1042 q 260 955 260 1020 q 347 955 282 955 q 347 868 347 933 q 347 781 347 846 q 347 694 347 760 q 347 608 347 673 q 347 521 347 586 q 347 434 347 499 q 347 347 347 412 q 347 260 347 326 q 347 174 347 239 q 260 174 326 174 q 260 87 260 152 q 260 0 260 65 q 260 -87 260 -22 q 174 -87 239 -87 z "},"^":{"ha":955,"x_min":0,"x_max":868,"o":"m 694 434 q 608 434 673 434 q 608 521 608 456 q 608 608 608 543 q 521 608 586 608 q 521 694 521 629 q 521 781 521 716 q 521 868 521 803 q 521 955 521 890 q 608 955 543 955 q 608 868 608 933 q 608 781 608 846 q 694 781 629 781 q 694 694 694 760 q 781 694 716 694 q 781 608 781 673 q 868 608 803 608 q 868 521 868 586 q 781 521 846 521 q 781 434 781 499 q 694 434 760 434 m 87 434 q 0 434 65 434 q 0 521 0 456 q 0 608 0 543 q 87 608 22 608 q 87 694 87 629 q 87 781 87 716 q 174 781 109 781 q 260 781 195 781 q 260 868 260 803 q 347 868 282 868 q 347 955 347 890 q 434 955 369 955 q 434 868 434 933 q 434 781 434 846 q 347 781 412 781 q 347 694 347 760 q 260 694 326 694 q 260 608 260 673 q 260 521 260 586 q 174 521 239 521 q 174 434 174 499 q 87 434 152 434 m 521 955 q 434 955 499 955 q 434 1042 434 977 q 521 1042 456 1042 q 521 955 521 1020 z "},"_":{"ha":1128,"x_min":-87,"x_max":1042,"o":"m 434 -260 q 347 -260 412 -260 q 260 -260 326 -260 q 174 -260 239 -260 q 87 -260 152 -260 q 0 -260 65 -260 q -87 -260 -22 -260 q -87 -174 -87 -239 q -87 -87 -87 -152 q -87 0 -87 -65 q 0 0 -65 0 q 0 87 0 22 q 87 87 22 87 q 87 0 87 65 q 174 0 109 0 q 260 0 195 0 q 347 0 282 0 q 347 -87 347 -22 q 434 -87 369 -87 q 521 -87 456 -87 q 608 -87 543 -87 q 694 -87 629 -87 q 781 -87 716 -87 q 781 -174 781 -109 q 694 -174 760 -174 q 608 -174 673 -174 q 521 -174 586 -174 q 521 -260 521 -195 q 434 -260 499 -260 m 955 0 q 1042 0 977 0 q 1042 -87 1042 -22 q 955 -87 1020 -87 q 868 -87 933 -87 q 781 -87 846 -87 q 781 0 781 -65 q 868 0 803 0 q 955 0 890 0 z "},"`":{"ha":521,"x_min":0,"x_max":434,"o":"m 347 608 q 347 694 347 629 q 434 694 369 694 q 434 608 434 673 q 347 608 412 608 m 347 694 q 260 694 326 694 q 260 781 260 716 q 174 781 239 781 q 174 868 174 803 q 87 868 152 868 q 0 868 65 868 q 0 955 0 890 q 87 955 22 955 q 87 1042 87 977 q 174 1042 109 1042 q 260 1042 195 1042 q 260 955 260 1020 q 347 955 282 955 q 347 868 347 933 q 347 781 347 846 q 347 694 347 760 z "},"a":{"ha":868,"x_min":0,"x_max":781,"o":"m 694 0 q 694 87 694 22 q 781 87 716 87 q 781 0 781 65 q 694 0 760 0 m 347 434 q 347 521 347 456 q 260 521 326 521 q 260 434 260 499 q 174 434 239 434 q 174 347 174 412 q 87 347 152 347 q 87 260 87 326 q 87 174 87 239 q 174 174 109 174 q 174 87 174 152 q 260 87 195 87 q 347 87 282 87 q 434 87 369 87 q 521 87 456 87 q 521 0 521 65 q 434 0 499 0 q 347 0 412 0 q 260 0 326 0 q 174 0 239 0 q 87 0 152 0 q 87 87 87 22 q 0 87 65 87 q 0 174 0 109 q 0 260 0 195 q 0 347 0 282 q 0 434 0 369 q 0 521 0 456 q 87 521 22 521 q 87 608 87 543 q 174 608 109 608 q 174 694 174 629 q 260 694 195 694 q 260 781 260 716 q 347 781 282 781 q 347 694 347 760 q 434 694 369 694 q 434 608 434 673 q 521 608 456 608 q 521 694 521 629 q 521 781 521 716 q 608 781 543 781 q 694 781 629 781 q 694 694 694 760 q 781 694 716 694 q 781 608 781 673 q 781 521 781 586 q 781 434 781 499 q 694 434 760 434 q 694 347 694 412 q 694 260 694 326 q 694 174 694 239 q 694 87 694 152 q 608 87 673 87 q 608 174 608 109 q 608 260 608 195 q 521 260 586 260 q 521 347 521 282 q 521 434 521 369 q 521 521 521 456 q 434 521 499 521 q 434 434 434 499 q 347 434 412 434 z "},"b":{"ha":781,"x_min":0,"x_max":694,"o":"m 87 0 q 87 87 87 22 q 87 174 87 109 q 87 260 87 195 q 174 260 109 260 q 174 174 174 239 q 174 87 174 152 q 174 0 174 65 q 87 0 152 0 m 87 347 q 87 434 87 369 q 87 521 87 456 q 0 521 65 521 q 0 608 0 543 q 0 694 0 629 q 0 781 0 716 q 0 868 0 803 q 87 868 22 868 q 87 955 87 890 q 174 955 109 955 q 174 1042 174 977 q 260 1042 195 1042 q 260 955 260 1020 q 260 868 260 933 q 260 781 260 846 q 260 694 260 760 q 347 694 282 694 q 434 694 369 694 q 434 608 434 673 q 521 608 456 608 q 521 521 521 586 q 608 521 543 521 q 608 434 608 499 q 694 434 629 434 q 694 347 694 412 q 694 260 694 326 q 694 174 694 239 q 608 174 673 174 q 608 87 608 152 q 521 87 586 87 q 521 0 521 65 q 434 0 499 0 q 347 0 412 0 q 260 0 326 0 q 260 87 260 22 q 347 87 282 87 q 434 87 369 87 q 521 87 456 87 q 521 174 521 109 q 521 260 521 195 q 521 347 521 282 q 434 347 499 347 q 434 434 434 369 q 347 434 412 434 q 260 434 326 434 q 260 521 260 456 q 260 608 260 543 q 260 694 260 629 q 174 694 239 694 q 174 608 174 673 q 174 521 174 586 q 174 434 174 499 q 174 347 174 412 q 87 347 152 347 z "},"c":{"ha":781,"x_min":0,"x_max":694,"o":"m 434 434 q 434 521 434 456 q 347 521 412 521 q 347 608 347 543 q 260 608 326 608 q 260 521 260 586 q 174 521 239 521 q 174 434 174 499 q 174 347 174 412 q 174 260 174 326 q 174 174 174 239 q 260 174 195 174 q 260 87 260 152 q 174 87 239 87 q 87 87 152 87 q 87 174 87 109 q 0 174 65 174 q 0 260 0 195 q 0 347 0 282 q 0 434 0 369 q 0 521 0 456 q 0 608 0 543 q 87 608 22 608 q 87 694 87 629 q 174 694 109 694 q 174 781 174 716 q 260 781 195 781 q 347 781 282 781 q 434 781 369 781 q 521 781 456 781 q 521 694 521 760 q 608 694 543 694 q 694 694 629 694 q 694 608 694 673 q 608 608 673 608 q 608 521 608 586 q 521 521 586 521 q 521 434 521 499 q 434 434 499 434 m 434 87 q 521 87 456 87 q 521 0 521 65 q 434 0 499 0 q 347 0 412 0 q 347 87 347 22 q 434 87 369 87 m 521 87 q 521 174 521 109 q 608 174 543 174 q 608 87 608 152 q 521 87 586 87 z "},"d":{"ha":868,"x_min":0,"x_max":781,"o":"m 608 0 q 608 87 608 22 q 608 174 608 109 q 608 260 608 195 q 608 347 608 282 q 694 347 629 347 q 694 434 694 369 q 694 521 694 456 q 608 521 673 521 q 608 608 608 543 q 608 694 608 629 q 521 694 586 694 q 521 781 521 716 q 521 868 521 803 q 521 955 521 890 q 521 1042 521 977 q 608 1042 543 1042 q 608 955 608 1020 q 694 955 629 955 q 694 868 694 933 q 781 868 716 868 q 781 781 781 846 q 781 694 781 760 q 781 608 781 673 q 781 521 781 586 q 781 434 781 499 q 781 347 781 412 q 781 260 781 326 q 694 260 760 260 q 694 174 694 239 q 694 87 694 152 q 694 0 694 65 q 608 0 673 0 m 347 87 q 434 87 369 87 q 434 0 434 65 q 347 0 412 0 q 260 0 326 0 q 260 87 260 22 q 347 87 282 87 m 260 87 q 174 87 239 87 q 87 87 152 87 q 87 174 87 109 q 0 174 65 174 q 0 260 0 195 q 0 347 0 282 q 0 434 0 369 q 0 521 0 456 q 87 521 22 521 q 87 608 87 543 q 174 608 109 608 q 174 694 174 629 q 260 694 195 694 q 260 781 260 716 q 347 781 282 781 q 347 694 347 760 q 434 694 369 694 q 434 608 434 673 q 521 608 456 608 q 521 521 521 586 q 434 521 499 521 q 347 521 412 521 q 260 521 326 521 q 260 434 260 499 q 174 434 239 434 q 174 347 174 412 q 174 260 174 326 q 174 174 174 239 q 260 174 195 174 q 260 87 260 152 z "},"e":{"ha":781,"x_min":0,"x_max":694,"o":"m 521 87 q 521 174 521 109 q 608 174 543 174 q 608 87 608 152 q 521 87 586 87 m 347 174 q 347 260 347 195 q 260 260 326 260 q 260 347 260 282 q 174 347 239 347 q 174 260 174 326 q 174 174 174 239 q 260 174 195 174 q 260 87 260 152 q 347 87 282 87 q 434 87 369 87 q 434 0 434 65 q 347 0 412 0 q 260 0 326 0 q 174 0 239 0 q 174 87 174 22 q 87 87 152 87 q 87 174 87 109 q 0 174 65 174 q 0 260 0 195 q 0 347 0 282 q 0 434 0 369 q 0 521 0 456 q 0 608 0 543 q 87 608 22 608 q 87 694 87 629 q 174 694 109 694 q 174 781 174 716 q 260 781 195 781 q 347 781 282 781 q 434 781 369 781 q 521 781 456 781 q 521 694 521 760 q 434 694 499 694 q 434 608 434 673 q 347 608 412 608 q 260 608 326 608 q 260 521 260 586 q 174 521 239 521 q 174 434 174 499 q 260 434 195 434 q 347 434 282 434 q 347 521 347 456 q 434 521 369 521 q 521 521 456 521 q 608 521 543 521 q 608 434 608 499 q 521 434 586 434 q 521 347 521 412 q 434 347 499 347 q 434 260 434 326 q 434 174 434 239 q 347 174 412 174 m 608 174 q 608 260 608 195 q 694 260 629 260 q 694 174 694 239 q 608 174 673 174 m 608 521 q 608 608 608 543 q 694 608 629 608 q 694 521 694 586 q 608 521 673 521 z "},"f":{"ha":608,"x_min":0,"x_max":521,"o":"m 174 0 q 174 87 174 22 q 260 87 195 87 q 260 0 260 65 q 174 0 239 0 m 434 434 q 434 521 434 456 q 521 521 456 521 q 521 434 521 499 q 434 434 499 434 m 434 694 q 434 781 434 716 q 347 781 412 781 q 347 694 347 760 q 260 694 326 694 q 260 608 260 673 q 347 608 282 608 q 347 521 347 586 q 260 521 326 521 q 260 434 260 499 q 260 347 260 412 q 174 347 239 347 q 174 260 174 326 q 174 174 174 239 q 174 87 174 152 q 87 87 152 87 q 87 174 87 109 q 87 260 87 195 q 87 347 87 282 q 87 434 87 369 q 87 521 87 456 q 0 521 65 521 q 0 608 0 543 q 0 694 0 629 q 87 694 22 694 q 87 781 87 716 q 87 868 87 803 q 174 868 109 868 q 174 955 174 890 q 174 1042 174 977 q 260 1042 195 1042 q 347 1042 282 1042 q 347 955 347 1020 q 434 955 369 955 q 434 868 434 933 q 521 868 456 868 q 521 781 521 846 q 521 694 521 760 q 434 694 499 694 z "},"g":{"ha":868,"x_min":0,"x_max":781,"o":"m 87 -174 q 87 -87 87 -152 q 174 -87 109 -87 q 174 -174 174 -109 q 87 -174 152 -174 m 347 0 q 347 87 347 22 q 434 87 369 87 q 434 0 434 65 q 347 0 412 0 m 521 -260 q 434 -260 499 -260 q 347 -260 412 -260 q 260 -260 326 -260 q 260 -174 260 -239 q 347 -174 282 -174 q 434 -174 369 -174 q 521 -174 456 -174 q 521 -87 521 -152 q 521 0 521 -65 q 608 0 543 0 q 608 87 608 22 q 608 174 608 109 q 608 260 608 195 q 608 347 608 282 q 521 347 586 347 q 521 434 521 369 q 521 521 521 456 q 521 608 521 543 q 521 694 521 629 q 521 781 521 716 q 608 781 543 781 q 608 694 608 760 q 694 694 629 694 q 694 608 694 673 q 694 521 694 586 q 781 521 716 521 q 781 434 781 499 q 781 347 781 412 q 781 260 781 326 q 781 174 781 239 q 781 87 781 152 q 694 87 760 87 q 694 0 694 65 q 694 -87 694 -22 q 694 -174 694 -109 q 608 -174 673 -174 q 608 -260 608 -195 q 521 -260 586 -260 m 347 87 q 260 87 326 87 q 174 87 239 87 q 87 87 152 87 q 87 174 87 109 q 0 174 65 174 q 0 260 0 195 q 0 347 0 282 q 0 434 0 369 q 0 521 0 456 q 0 608 0 543 q 87 608 22 608 q 87 694 87 629 q 174 694 109 694 q 260 694 195 694 q 347 694 282 694 q 347 781 347 716 q 434 781 369 781 q 434 694 434 760 q 434 608 434 673 q 434 521 434 586 q 347 521 412 521 q 347 434 347 499 q 260 434 326 434 q 174 434 239 434 q 174 347 174 412 q 174 260 174 326 q 174 174 174 239 q 260 174 195 174 q 347 174 282 174 q 347 87 347 152 z "},"h":{"ha":781,"x_min":0,"x_max":694,"o":"m 608 0 q 608 87 608 22 q 608 174 608 109 q 608 260 608 195 q 521 260 586 260 q 521 347 521 282 q 521 434 521 369 q 434 434 499 434 q 347 434 412 434 q 347 521 347 456 q 260 521 326 521 q 260 608 260 543 q 260 694 260 629 q 347 694 282 694 q 347 781 347 716 q 434 781 369 781 q 434 694 434 760 q 521 694 456 694 q 521 608 521 673 q 608 608 543 608 q 608 521 608 586 q 608 434 608 499 q 694 434 629 434 q 694 347 694 412 q 694 260 694 326 q 694 174 694 239 q 694 87 694 152 q 694 0 694 65 q 608 0 673 0 m 87 0 q 87 87 87 22 q 87 174 87 109 q 0 174 65 174 q 0 260 0 195 q 0 347 0 282 q 0 434 0 369 q 0 521 0 456 q 0 608 0 543 q 0 694 0 629 q 0 781 0 716 q 0 868 0 803 q 87 868 22 868 q 87 955 87 890 q 0 955 65 955 q 0 1042 0 977 q 87 1042 22 1042 q 174 1042 109 1042 q 260 1042 195 1042 q 260 955 260 1020 q 260 868 260 933 q 260 781 260 846 q 260 694 260 760 q 174 694 239 694 q 174 608 174 673 q 174 521 174 586 q 174 434 174 499 q 174 347 174 412 q 174 260 174 326 q 174 174 174 239 q 174 87 174 152 q 174 0 174 65 q 87 0 152 0 z "},"i":{"ha":434,"x_min":0,"x_max":347,"o":"m 0 0 q 0 87 0 22 q 87 87 22 87 q 87 0 87 65 q 0 0 65 0 m 260 694 q 260 781 260 716 q 347 781 282 781 q 347 694 347 760 q 260 694 326 694 m 87 87 q 87 174 87 109 q 87 260 87 195 q 87 347 87 282 q 87 434 87 369 q 0 434 65 434 q 0 521 0 456 q 0 608 0 543 q 0 694 0 629 q 87 694 22 694 q 174 694 109 694 q 174 608 174 673 q 260 608 195 608 q 260 521 260 586 q 260 434 260 499 q 260 347 260 412 q 260 260 260 326 q 174 260 239 260 q 174 174 174 239 q 174 87 174 152 q 87 87 152 87 m 260 781 q 174 781 239 781 q 87 781 152 781 q 87 868 87 803 q 87 955 87 890 q 174 955 109 955 q 174 868 174 933 q 260 868 195 868 q 260 781 260 846 z "},"j":{"ha":434,"x_min":0,"x_max":347,"o":"m 0 -347 q 0 -260 0 -326 q 87 -260 22 -260 q 87 -347 87 -282 q 0 -347 65 -347 m 87 -174 q 87 -87 87 -152 q 174 -87 109 -87 q 174 -174 174 -109 q 87 -174 152 -174 m 174 -87 q 174 0 174 -65 q 174 87 174 22 q 174 174 174 109 q 174 260 174 195 q 87 260 152 260 q 87 347 87 282 q 87 434 87 369 q 87 521 87 456 q 0 521 65 521 q 0 608 0 543 q 87 608 22 608 q 87 694 87 629 q 174 694 109 694 q 174 781 174 716 q 260 781 195 781 q 260 694 260 760 q 347 694 282 694 q 347 608 347 673 q 347 521 347 586 q 260 521 326 521 q 260 434 260 499 q 260 347 260 412 q 260 260 260 326 q 260 174 260 239 q 260 87 260 152 q 260 0 260 65 q 260 -87 260 -22 q 174 -87 239 -87 m 174 781 q 87 781 152 781 q 0 781 65 781 q 0 868 0 803 q 87 868 22 868 q 87 955 87 890 q 174 955 109 955 q 174 868 174 933 q 174 781 174 846 z "},"k":{"ha":781,"x_min":0,"x_max":694,"o":"m 608 0 q 608 87 608 22 q 694 87 629 87 q 694 0 694 65 q 608 0 673 0 m 87 0 q 87 87 87 22 q 87 174 87 109 q 87 260 87 195 q 87 347 87 282 q 0 347 65 347 q 0 434 0 369 q 0 521 0 456 q 0 608 0 543 q 87 608 22 608 q 87 694 87 629 q 87 781 87 716 q 0 781 65 781 q 0 868 0 803 q 0 955 0 890 q 87 955 22 955 q 87 1042 87 977 q 174 1042 109 1042 q 260 1042 195 1042 q 260 955 260 1020 q 260 868 260 933 q 260 781 260 846 q 260 694 260 760 q 260 608 260 673 q 347 608 282 608 q 347 694 347 629 q 347 781 347 716 q 434 781 369 781 q 434 868 434 803 q 521 868 456 868 q 521 781 521 846 q 608 781 543 781 q 608 694 608 760 q 694 694 629 694 q 694 608 694 673 q 694 521 694 586 q 608 521 673 521 q 608 608 608 543 q 521 608 586 608 q 521 521 521 586 q 434 521 499 521 q 434 434 434 499 q 434 347 434 412 q 434 260 434 326 q 434 174 434 239 q 521 174 456 174 q 521 87 521 152 q 434 87 499 87 q 434 174 434 109 q 347 174 412 174 q 347 260 347 195 q 347 347 347 282 q 260 347 326 347 q 260 434 260 369 q 260 521 260 456 q 260 608 260 543 q 174 608 239 608 q 174 521 174 586 q 174 434 174 499 q 174 347 174 412 q 174 260 174 326 q 174 174 174 239 q 174 87 174 152 q 174 0 174 65 q 87 0 152 0 z "},"l":{"ha":347,"x_min":0,"x_max":260,"o":"m 87 0 q 87 87 87 22 q 174 87 109 87 q 174 0 174 65 q 87 0 152 0 m 87 87 q 0 87 65 87 q 0 174 0 109 q 87 174 22 174 q 87 87 87 152 m 87 174 q 87 260 87 195 q 87 347 87 282 q 87 434 87 369 q 0 434 65 434 q 0 521 0 456 q 0 608 0 543 q 0 694 0 629 q 0 781 0 716 q 0 868 0 803 q 0 955 0 890 q 87 955 22 955 q 174 955 109 955 q 260 955 195 955 q 260 868 260 933 q 260 781 260 846 q 174 781 239 781 q 174 694 174 760 q 174 608 174 673 q 174 521 174 586 q 174 434 174 499 q 174 347 174 412 q 174 260 174 326 q 174 174 174 239 q 87 174 152 174 z "},"m":{"ha":1128,"x_min":0,"x_max":1042,"o":"m 868 0 q 868 87 868 22 q 868 174 868 109 q 868 260 868 195 q 868 347 868 282 q 868 434 868 369 q 868 521 868 456 q 781 521 846 521 q 781 608 781 543 q 694 608 760 608 q 694 521 694 586 q 694 434 694 499 q 694 347 694 412 q 694 260 694 326 q 694 174 694 239 q 608 174 673 174 q 608 87 608 152 q 608 0 608 65 q 521 0 586 0 q 521 87 521 22 q 521 174 521 109 q 608 174 543 174 q 608 260 608 195 q 608 347 608 282 q 521 347 586 347 q 521 434 521 369 q 434 434 499 434 q 434 521 434 456 q 434 608 434 543 q 347 608 412 608 q 347 521 347 586 q 347 434 347 499 q 260 434 326 434 q 260 347 260 412 q 260 260 260 326 q 260 174 260 239 q 260 87 260 152 q 260 0 260 65 q 174 0 239 0 q 174 87 174 22 q 174 174 174 109 q 174 260 174 195 q 87 260 152 260 q 87 347 87 282 q 87 434 87 369 q 87 521 87 456 q 0 521 65 521 q 0 608 0 543 q 87 608 22 608 q 87 694 87 629 q 174 694 109 694 q 174 781 174 716 q 260 781 195 781 q 260 694 260 760 q 260 608 260 673 q 347 608 282 608 q 347 694 347 629 q 434 694 369 694 q 521 694 456 694 q 521 781 521 716 q 608 781 543 781 q 608 694 608 760 q 608 608 608 673 q 694 608 629 608 q 694 694 694 629 q 781 694 716 694 q 781 781 781 716 q 868 781 803 781 q 955 781 890 781 q 955 694 955 760 q 1042 694 977 694 q 1042 608 1042 673 q 1042 521 1042 586 q 1042 434 1042 499 q 1042 347 1042 412 q 1042 260 1042 326 q 955 260 1020 260 q 955 174 955 239 q 955 87 955 152 q 955 0 955 65 q 868 0 933 0 z "},"n":{"ha":781,"x_min":0,"x_max":694,"o":"m 608 0 q 608 87 608 22 q 608 174 608 109 q 608 260 608 195 q 608 347 608 282 q 521 347 586 347 q 521 434 521 369 q 434 434 499 434 q 434 521 434 456 q 347 521 412 521 q 260 521 326 521 q 260 434 260 499 q 260 347 260 412 q 260 260 260 326 q 174 260 239 260 q 174 174 174 239 q 174 87 174 152 q 174 0 174 65 q 87 0 152 0 q 87 87 87 22 q 87 174 87 109 q 87 260 87 195 q 87 347 87 282 q 87 434 87 369 q 0 434 65 434 q 0 521 0 456 q 0 608 0 543 q 87 608 22 608 q 87 694 87 629 q 174 694 109 694 q 174 781 174 716 q 260 781 195 781 q 260 694 260 760 q 260 608 260 673 q 174 608 239 608 q 174 521 174 586 q 260 521 195 521 q 260 608 260 543 q 347 608 282 608 q 347 694 347 629 q 434 694 369 694 q 434 781 434 716 q 521 781 456 781 q 521 694 521 760 q 608 694 543 694 q 608 608 608 673 q 608 521 608 586 q 694 521 629 521 q 694 434 694 499 q 694 347 694 412 q 694 260 694 326 q 694 174 694 239 q 694 87 694 152 q 694 0 694 65 q 608 0 673 0 z "},"o":{"ha":868,"x_min":0,"x_max":781,"o":"m 434 87 q 521 87 456 87 q 521 0 521 65 q 434 0 499 0 q 347 0 412 0 q 260 0 326 0 q 260 87 260 22 q 347 87 282 87 q 434 87 369 87 m 521 87 q 521 174 521 109 q 434 174 499 174 q 434 260 434 195 q 434 347 434 282 q 521 347 456 347 q 521 434 521 369 q 521 521 521 456 q 521 608 521 543 q 434 608 499 608 q 434 694 434 629 q 347 694 412 694 q 260 694 326 694 q 260 608 260 673 q 347 608 282 608 q 347 521 347 586 q 260 521 326 521 q 260 434 260 499 q 174 434 239 434 q 174 347 174 412 q 174 260 174 326 q 174 174 174 239 q 260 174 195 174 q 260 87 260 152 q 174 87 239 87 q 87 87 152 87 q 87 174 87 109 q 0 174 65 174 q 0 260 0 195 q 0 347 0 282 q 0 434 0 369 q 0 521 0 456 q 0 608 0 543 q 87 608 22 608 q 87 694 87 629 q 87 781 87 716 q 174 781 109 781 q 174 694 174 760 q 260 694 195 694 q 260 781 260 716 q 347 781 282 781 q 434 781 369 781 q 521 781 456 781 q 521 694 521 760 q 608 694 543 694 q 608 608 608 673 q 694 608 629 608 q 694 521 694 586 q 694 434 694 499 q 781 434 716 434 q 781 347 781 412 q 781 260 781 326 q 694 260 760 260 q 694 174 694 239 q 694 87 694 152 q 608 87 673 87 q 521 87 586 87 z "},"p":{"ha":781,"x_min":0,"x_max":694,"o":"m 87 -260 q 87 -174 87 -239 q 174 -174 109 -174 q 174 -260 174 -195 q 87 -260 152 -260 m 87 -87 q 87 0 87 -65 q 87 87 87 22 q 87 174 87 109 q 87 260 87 195 q 87 347 87 282 q 0 347 65 347 q 0 434 0 369 q 0 521 0 456 q 0 608 0 543 q 0 694 0 629 q 87 694 22 694 q 87 781 87 716 q 174 781 109 781 q 260 781 195 781 q 260 694 260 760 q 260 608 260 673 q 347 608 282 608 q 347 694 347 629 q 347 781 347 716 q 434 781 369 781 q 521 781 456 781 q 521 694 521 760 q 608 694 543 694 q 608 608 608 673 q 694 608 629 608 q 694 521 694 586 q 694 434 694 499 q 694 347 694 412 q 694 260 694 326 q 694 174 694 239 q 608 174 673 174 q 608 87 608 152 q 521 87 586 87 q 434 87 499 87 q 434 0 434 65 q 347 0 412 0 q 260 0 326 0 q 260 87 260 22 q 347 87 282 87 q 434 87 369 87 q 434 174 434 109 q 521 174 456 174 q 521 260 521 195 q 608 260 543 260 q 608 347 608 282 q 608 434 608 369 q 521 434 586 434 q 521 521 521 456 q 434 521 499 521 q 347 521 412 521 q 260 521 326 521 q 260 608 260 543 q 174 608 239 608 q 174 521 174 586 q 174 434 174 499 q 174 347 174 412 q 174 260 174 326 q 174 174 174 239 q 174 87 174 152 q 174 0 174 65 q 174 -87 174 -22 q 87 -87 152 -87 z "},"q":{"ha":868,"x_min":87,"x_max":781,"o":"m 694 -347 q 694 -260 694 -326 q 781 -260 716 -260 q 781 -347 781 -282 q 694 -347 760 -347 m 694 -260 q 608 -260 673 -260 q 608 -174 608 -239 q 608 -87 608 -152 q 608 0 608 -65 q 608 87 608 22 q 694 87 629 87 q 694 0 694 65 q 694 -87 694 -22 q 694 -174 694 -109 q 694 -260 694 -195 m 434 0 q 347 0 412 0 q 260 0 326 0 q 260 87 260 22 q 174 87 239 87 q 174 174 174 109 q 87 174 152 174 q 87 260 87 195 q 87 347 87 282 q 87 434 87 369 q 87 521 87 456 q 174 521 109 521 q 174 608 174 543 q 260 608 195 608 q 260 521 260 586 q 260 434 260 499 q 174 434 239 434 q 174 347 174 412 q 260 347 195 347 q 260 260 260 326 q 347 260 282 260 q 434 260 369 260 q 434 174 434 239 q 434 87 434 152 q 521 87 456 87 q 521 0 521 65 q 434 0 499 0 m 608 87 q 521 87 586 87 q 521 174 521 109 q 521 260 521 195 q 521 347 521 282 q 434 347 499 347 q 434 434 434 369 q 434 521 434 456 q 434 608 434 543 q 434 694 434 629 q 521 694 456 694 q 521 781 521 716 q 608 781 543 781 q 608 694 608 760 q 694 694 629 694 q 694 608 694 673 q 694 521 694 586 q 694 434 694 499 q 608 434 673 434 q 608 347 608 412 q 608 260 608 326 q 608 174 608 239 q 608 87 608 152 m 260 608 q 260 694 260 629 q 347 694 282 694 q 347 608 347 673 q 260 608 326 608 z "},"r":{"ha":694,"x_min":0,"x_max":608,"o":"m 87 0 q 87 87 87 22 q 87 174 87 109 q 87 260 87 195 q 87 347 87 282 q 87 434 87 369 q 0 434 65 434 q 0 521 0 456 q 0 608 0 543 q 0 694 0 629 q 87 694 22 694 q 174 694 109 694 q 174 608 174 673 q 260 608 195 608 q 260 694 260 629 q 347 694 282 694 q 347 781 347 716 q 434 781 369 781 q 521 781 456 781 q 608 781 543 781 q 608 694 608 760 q 608 608 608 673 q 608 521 608 586 q 521 521 586 521 q 521 608 521 543 q 434 608 499 608 q 347 608 412 608 q 347 521 347 586 q 260 521 326 521 q 174 521 239 521 q 174 434 174 499 q 260 434 195 434 q 260 347 260 412 q 260 260 260 326 q 260 174 260 239 q 174 174 239 174 q 174 87 174 152 q 174 0 174 65 q 87 0 152 0 z "},"s":{"ha":781,"x_min":0,"x_max":694,"o":"m 260 260 q 260 347 260 282 q 347 347 282 347 q 347 260 347 326 q 260 260 326 260 m 434 434 q 434 521 434 456 q 347 521 412 521 q 347 608 347 543 q 260 608 326 608 q 260 521 260 586 q 174 521 239 521 q 174 434 174 499 q 260 434 195 434 q 260 347 260 412 q 174 347 239 347 q 174 434 174 369 q 87 434 152 434 q 87 521 87 456 q 87 608 87 543 q 87 694 87 629 q 174 694 109 694 q 174 781 174 716 q 260 781 195 781 q 347 781 282 781 q 434 781 369 781 q 521 781 456 781 q 608 781 543 781 q 694 781 629 781 q 694 694 694 760 q 608 694 673 694 q 608 608 608 673 q 608 521 608 586 q 521 521 586 521 q 521 434 521 499 q 434 434 499 434 m 347 0 q 260 0 326 0 q 174 0 239 0 q 87 0 152 0 q 0 0 65 0 q 0 87 0 22 q 0 174 0 109 q 87 174 22 174 q 87 260 87 195 q 174 260 109 260 q 174 174 174 239 q 260 174 195 174 q 347 174 282 174 q 347 87 347 152 q 434 87 369 87 q 434 0 434 65 q 347 0 412 0 m 434 87 q 434 174 434 109 q 521 174 456 174 q 521 260 521 195 q 608 260 543 260 q 608 174 608 239 q 608 87 608 152 q 521 87 586 87 q 434 87 499 87 m 521 260 q 434 260 499 260 q 434 347 434 282 q 521 347 456 347 q 521 260 521 326 z "},"t":{"ha":781,"x_min":0,"x_max":694,"o":"m 174 0 q 174 87 174 22 q 260 87 195 87 q 260 0 260 65 q 174 0 239 0 m 174 174 q 174 260 174 195 q 174 347 174 282 q 87 347 152 347 q 87 434 87 369 q 87 521 87 456 q 87 608 87 543 q 87 694 87 629 q 0 694 65 694 q 0 781 0 716 q 0 868 0 803 q 87 868 22 868 q 174 868 109 868 q 174 955 174 890 q 260 955 195 955 q 260 868 260 933 q 260 781 260 846 q 347 781 282 781 q 347 694 347 760 q 434 694 369 694 q 521 694 456 694 q 521 608 521 673 q 434 608 499 608 q 347 608 412 608 q 260 608 326 608 q 260 521 260 586 q 174 521 239 521 q 174 434 174 499 q 260 434 195 434 q 260 347 260 412 q 260 260 260 326 q 260 174 260 239 q 174 174 239 174 m 608 608 q 608 694 608 629 q 694 694 629 694 q 694 608 694 673 q 608 608 673 608 z "},"u":{"ha":781,"x_min":0,"x_max":694,"o":"m 521 0 q 521 87 521 22 q 608 87 543 87 q 608 0 608 65 q 521 0 586 0 m 260 87 q 347 87 282 87 q 347 0 347 65 q 260 0 326 0 q 174 0 239 0 q 174 87 174 22 q 260 87 195 87 m 521 87 q 434 87 499 87 q 434 174 434 109 q 347 174 412 174 q 347 260 347 195 q 347 347 347 282 q 347 434 347 369 q 347 521 347 456 q 434 521 369 521 q 434 608 434 543 q 347 608 412 608 q 347 694 347 629 q 434 694 369 694 q 434 781 434 716 q 521 781 456 781 q 608 781 543 781 q 608 694 608 760 q 694 694 629 694 q 694 608 694 673 q 608 608 673 608 q 608 521 608 586 q 521 521 586 521 q 521 434 521 499 q 521 347 521 412 q 521 260 521 326 q 521 174 521 239 q 521 87 521 152 m 174 87 q 87 87 152 87 q 87 174 87 109 q 174 174 109 174 q 174 87 174 152 m 87 174 q 0 174 65 174 q 0 260 0 195 q 0 347 0 282 q 0 434 0 369 q 0 521 0 456 q 0 608 0 543 q 0 694 0 629 q 87 694 22 694 q 174 694 109 694 q 260 694 195 694 q 260 608 260 673 q 260 521 260 586 q 174 521 239 521 q 174 434 174 499 q 174 347 174 412 q 87 347 152 347 q 87 260 87 326 q 87 174 87 239 z "},"v":{"ha":781,"x_min":0,"x_max":694,"o":"m 434 0 q 434 87 434 22 q 347 87 412 87 q 347 0 347 65 q 260 0 326 0 q 260 87 260 22 q 347 87 282 87 q 347 174 347 109 q 347 260 347 195 q 434 260 369 260 q 434 347 434 282 q 434 434 434 369 q 521 434 456 434 q 521 521 521 456 q 521 608 521 543 q 608 608 543 608 q 608 521 608 586 q 608 434 608 499 q 608 347 608 412 q 608 260 608 326 q 521 260 586 260 q 521 174 521 239 q 521 87 521 152 q 521 0 521 65 q 434 0 499 0 m 608 694 q 608 781 608 716 q 694 781 629 781 q 694 694 694 760 q 608 694 673 694 m 260 87 q 174 87 239 87 q 174 174 174 109 q 174 260 174 195 q 87 260 152 260 q 87 347 87 282 q 87 434 87 369 q 87 521 87 456 q 0 521 65 521 q 0 608 0 543 q 0 694 0 629 q 0 781 0 716 q 87 781 22 781 q 174 781 109 781 q 260 781 195 781 q 260 694 260 760 q 260 608 260 673 q 260 521 260 586 q 260 434 260 499 q 260 347 260 412 q 260 260 260 326 q 260 174 260 239 q 260 87 260 152 z "},"w":{"ha":1215,"x_min":0,"x_max":1128,"o":"m 781 0 q 781 87 781 22 q 868 87 803 87 q 868 0 868 65 q 781 0 846 0 m 434 0 q 434 87 434 22 q 521 87 456 87 q 521 0 521 65 q 434 0 499 0 m 868 174 q 868 260 868 195 q 868 347 868 282 q 868 434 868 369 q 868 521 868 456 q 868 608 868 543 q 868 694 868 629 q 868 781 868 716 q 868 868 868 803 q 955 868 890 868 q 1042 868 977 868 q 1042 781 1042 846 q 1042 694 1042 760 q 1128 694 1063 694 q 1128 608 1128 673 q 1042 608 1107 608 q 1042 521 1042 586 q 1042 434 1042 499 q 955 434 1020 434 q 955 347 955 412 q 955 260 955 326 q 955 174 955 239 q 868 174 933 174 m 781 87 q 694 87 760 87 q 608 87 673 87 q 608 174 608 109 q 608 260 608 195 q 521 260 586 260 q 521 347 521 282 q 521 434 521 369 q 434 434 499 434 q 434 521 434 456 q 347 521 412 521 q 347 608 347 543 q 347 694 347 629 q 434 694 369 694 q 521 694 456 694 q 521 781 521 716 q 608 781 543 781 q 608 868 608 803 q 694 868 629 868 q 694 781 694 846 q 694 694 694 760 q 608 694 673 694 q 608 608 608 673 q 608 521 608 586 q 608 434 608 499 q 694 434 629 434 q 694 347 694 412 q 694 260 694 326 q 694 174 694 239 q 781 174 716 174 q 781 87 781 152 m 434 87 q 347 87 412 87 q 347 174 347 109 q 434 174 369 174 q 434 87 434 152 m 347 174 q 260 174 326 174 q 260 260 260 195 q 174 260 239 260 q 174 347 174 282 q 87 347 152 347 q 87 434 87 369 q 0 434 65 434 q 0 521 0 456 q 0 608 0 543 q 87 608 22 608 q 87 694 87 629 q 174 694 109 694 q 174 781 174 716 q 260 781 195 781 q 260 694 260 760 q 260 608 260 673 q 174 608 239 608 q 174 521 174 586 q 260 521 195 521 q 260 434 260 499 q 260 347 260 412 q 347 347 282 347 q 347 260 347 326 q 347 174 347 239 z "},"x":{"ha":781,"x_min":0,"x_max":694,"o":"m 608 0 q 608 87 608 22 q 694 87 629 87 q 694 0 694 65 q 608 0 673 0 m 0 0 q 0 87 0 22 q 87 87 22 87 q 87 0 87 65 q 0 0 65 0 m 434 174 q 434 260 434 195 q 521 260 456 260 q 521 174 521 239 q 434 174 499 174 m 87 87 q 87 174 87 109 q 174 174 109 174 q 174 87 174 152 q 87 87 152 87 m 174 174 q 174 260 174 195 q 260 260 195 260 q 260 347 260 282 q 174 347 239 347 q 174 434 174 369 q 87 434 152 434 q 87 521 87 456 q 0 521 65 521 q 0 608 0 543 q 0 694 0 629 q 87 694 22 694 q 87 781 87 716 q 174 781 109 781 q 260 781 195 781 q 260 694 260 760 q 174 694 239 694 q 174 608 174 673 q 260 608 195 608 q 260 521 260 586 q 347 521 282 521 q 347 434 347 499 q 434 434 369 434 q 434 521 434 456 q 434 608 434 543 q 434 694 434 629 q 521 694 456 694 q 521 781 521 716 q 608 781 543 781 q 608 694 608 760 q 694 694 629 694 q 694 608 694 673 q 694 521 694 586 q 608 521 673 521 q 608 434 608 499 q 521 434 586 434 q 521 347 521 412 q 434 347 499 347 q 434 260 434 326 q 347 260 412 260 q 347 174 347 239 q 260 174 326 174 q 174 174 239 174 z "},"y":{"ha":781,"x_min":0,"x_max":694,"o":"m 174 -174 q 260 -174 195 -174 q 260 -260 260 -195 q 174 -260 239 -260 q 87 -260 152 -260 q 87 -174 87 -239 q 174 -174 109 -174 m 260 -174 q 260 -87 260 -152 q 347 -87 282 -87 q 347 -174 347 -109 q 260 -174 326 -174 m 347 -87 q 347 0 347 -65 q 434 0 369 0 q 434 87 434 22 q 521 87 456 87 q 521 174 521 109 q 521 260 521 195 q 521 347 521 282 q 434 347 499 347 q 434 434 434 369 q 434 521 434 456 q 434 608 434 543 q 434 694 434 629 q 521 694 456 694 q 608 694 543 694 q 608 608 608 673 q 694 608 629 608 q 694 521 694 586 q 694 434 694 499 q 694 347 694 412 q 694 260 694 326 q 694 174 694 239 q 608 174 673 174 q 608 87 608 152 q 608 0 608 65 q 521 0 586 0 q 521 -87 521 -22 q 434 -87 499 -87 q 347 -87 412 -87 m 434 87 q 347 87 412 87 q 347 174 347 109 q 434 174 369 174 q 434 87 434 152 m 347 174 q 260 174 326 174 q 260 260 260 195 q 174 260 239 260 q 174 347 174 282 q 87 347 152 347 q 87 434 87 369 q 0 434 65 434 q 0 521 0 456 q 0 608 0 543 q 87 608 22 608 q 87 694 87 629 q 174 694 109 694 q 174 781 174 716 q 260 781 195 781 q 260 694 260 760 q 260 608 260 673 q 260 521 260 586 q 260 434 260 499 q 347 434 282 434 q 347 347 347 412 q 347 260 347 326 q 347 174 347 239 z "},"z":{"ha":868,"x_min":0,"x_max":781,"o":"m 608 87 q 694 87 629 87 q 694 0 694 65 q 608 0 673 0 q 521 0 586 0 q 434 0 499 0 q 434 87 434 22 q 521 87 456 87 q 608 87 543 87 m 260 0 q 174 0 239 0 q 87 0 152 0 q 0 0 65 0 q 0 87 0 22 q 0 174 0 109 q 0 260 0 195 q 87 260 22 260 q 87 347 87 282 q 174 347 109 347 q 260 347 195 347 q 260 260 260 326 q 174 260 239 260 q 174 174 174 239 q 260 174 195 174 q 347 174 282 174 q 434 174 369 174 q 434 87 434 152 q 347 87 412 87 q 347 0 347 65 q 260 0 326 0 m 694 87 q 694 174 694 109 q 781 174 716 174 q 781 87 781 152 q 694 87 760 87 m 608 521 q 521 521 586 521 q 434 521 499 521 q 347 521 412 521 q 347 608 347 543 q 260 608 326 608 q 174 608 239 608 q 87 608 152 608 q 0 608 65 608 q 0 694 0 629 q 0 781 0 716 q 0 868 0 803 q 87 868 22 868 q 87 781 87 846 q 174 781 109 781 q 260 781 195 781 q 347 781 282 781 q 434 781 369 781 q 434 694 434 760 q 521 694 456 694 q 608 694 543 694 q 608 608 608 673 q 694 608 629 608 q 694 521 694 586 q 608 521 673 521 z "},"{":{"ha":521,"x_min":0,"x_max":434,"o":"m 347 -260 q 347 -174 347 -239 q 434 -174 369 -174 q 434 -260 434 -195 q 347 -260 412 -260 m 347 -174 q 260 -174 326 -174 q 260 -87 260 -152 q 347 -87 282 -87 q 347 -174 347 -109 m 260 -87 q 174 -87 239 -87 q 174 0 174 -65 q 87 0 152 0 q 87 87 87 22 q 87 174 87 109 q 0 174 65 174 q 0 260 0 195 q 0 347 0 282 q 0 434 0 369 q 87 434 22 434 q 87 521 87 456 q 174 521 109 521 q 174 434 174 499 q 174 347 174 412 q 260 347 195 347 q 260 260 260 326 q 260 174 260 239 q 260 87 260 152 q 260 0 260 65 q 260 -87 260 -22 m 174 521 q 174 608 174 543 q 174 694 174 629 q 174 781 174 716 q 174 868 174 803 q 174 955 174 890 q 174 1042 174 977 q 260 1042 195 1042 q 347 1042 282 1042 q 347 955 347 1020 q 434 955 369 955 q 434 868 434 933 q 434 781 434 846 q 347 781 412 781 q 347 694 347 760 q 347 608 347 673 q 260 608 326 608 q 260 521 260 586 q 174 521 239 521 z "},"|":{"ha":434,"x_min":0,"x_max":347,"o":"m 174 -347 q 174 -260 174 -326 q 260 -260 195 -260 q 260 -347 260 -282 q 174 -347 239 -347 m 174 -174 q 174 -87 174 -152 q 174 0 174 -65 q 87 0 152 0 q 87 87 87 22 q 87 174 87 109 q 87 260 87 195 q 87 347 87 282 q 87 434 87 369 q 87 521 87 456 q 0 521 65 521 q 0 608 0 543 q 0 694 0 629 q 0 781 0 716 q 0 868 0 803 q 0 955 0 890 q 87 955 22 955 q 87 1042 87 977 q 174 1042 109 1042 q 260 1042 195 1042 q 260 955 260 1020 q 347 955 282 955 q 347 868 347 933 q 347 781 347 846 q 260 781 326 781 q 260 694 260 760 q 260 608 260 673 q 260 521 260 586 q 260 434 260 499 q 260 347 260 412 q 260 260 260 326 q 260 174 260 239 q 260 87 260 152 q 260 0 260 65 q 260 -87 260 -22 q 260 -174 260 -109 q 174 -174 239 -174 z "},"}":{"ha":608,"x_min":0,"x_max":521,"o":"m 0 -260 q 0 -174 0 -239 q 87 -174 22 -174 q 87 -260 87 -195 q 0 -260 65 -260 m 87 -174 q 87 -87 87 -152 q 87 0 87 -65 q 174 0 109 0 q 174 87 174 22 q 174 174 174 109 q 174 260 174 195 q 174 347 174 282 q 260 347 195 347 q 260 434 260 369 q 174 434 239 434 q 174 521 174 456 q 174 608 174 543 q 87 608 152 608 q 87 694 87 629 q 87 781 87 716 q 0 781 65 781 q 0 868 0 803 q 87 868 22 868 q 87 955 87 890 q 174 955 109 955 q 174 1042 174 977 q 260 1042 195 1042 q 260 955 260 1020 q 260 868 260 933 q 260 781 260 846 q 260 694 260 760 q 260 608 260 673 q 347 608 282 608 q 347 521 347 586 q 347 434 347 499 q 434 434 369 434 q 434 347 434 412 q 521 347 456 347 q 521 260 521 326 q 434 260 499 260 q 434 174 434 239 q 347 174 412 174 q 347 87 347 152 q 260 87 326 87 q 260 0 260 65 q 260 -87 260 -22 q 260 -174 260 -109 q 174 -174 239 -174 q 87 -174 152 -174 z "},"~":{"ha":1042,"x_min":0,"x_max":955,"o":"m 87 260 q 87 347 87 282 q 0 347 65 347 q 0 434 0 369 q 0 521 0 456 q 0 608 0 543 q 87 608 22 608 q 174 608 109 608 q 174 694 174 629 q 260 694 195 694 q 347 694 282 694 q 434 694 369 694 q 434 608 434 673 q 521 608 456 608 q 521 521 521 586 q 608 521 543 521 q 694 521 629 521 q 781 521 716 521 q 781 434 781 499 q 694 434 760 434 q 608 434 673 434 q 521 434 586 434 q 434 434 499 434 q 434 521 434 456 q 347 521 412 521 q 347 434 347 499 q 260 434 326 434 q 174 434 239 434 q 174 347 174 412 q 174 260 174 326 q 87 260 152 260 m 868 608 q 955 608 890 608 q 955 521 955 586 q 868 521 933 521 q 781 521 846 521 q 781 608 781 543 q 868 608 803 608 z "},"":{"ha":694,"x_min":0,"x_max":608,"o":"m 521 174 q 521 260 521 195 q 608 260 543 260 q 608 174 608 239 q 521 174 586 174 m 0 174 q 0 260 0 195 q 87 260 22 260 q 87 174 87 239 q 0 174 65 174 m 347 347 q 347 434 347 369 q 260 434 326 434 q 260 347 260 412 q 174 347 239 347 q 174 260 174 326 q 87 260 152 260 q 87 347 87 282 q 174 347 109 347 q 174 434 174 369 q 260 434 195 434 q 260 521 260 456 q 347 521 282 521 q 347 608 347 543 q 347 694 347 629 q 434 694 369 694 q 434 781 434 716 q 434 868 434 803 q 521 868 456 868 q 521 781 521 846 q 608 781 543 781 q 608 694 608 760 q 608 608 608 673 q 521 608 586 608 q 521 521 521 586 q 434 521 499 521 q 434 434 434 499 q 434 347 434 412 q 347 347 412 347 m 260 521 q 174 521 239 521 q 174 608 174 543 q 87 608 152 608 q 0 608 65 608 q 0 694 0 629 q 0 781 0 716 q 87 781 22 781 q 87 868 87 803 q 174 868 109 868 q 174 781 174 846 q 174 694 174 760 q 260 694 195 694 q 260 608 260 673 q 260 521 260 586 z "},"":{"ha":868,"x_min":0,"x_max":781,"o":"m 260 87 q 260 174 260 109 q 260 260 260 195 q 260 347 260 282 q 347 347 282 347 q 347 434 347 369 q 434 434 369 434 q 434 347 434 412 q 521 347 456 347 q 521 260 521 326 q 521 174 521 239 q 434 174 499 174 q 347 174 412 174 q 347 87 347 152 q 260 87 326 87 m 0 347 q 0 434 0 369 q 0 521 0 456 q 0 608 0 543 q 87 608 22 608 q 87 694 87 629 q 174 694 109 694 q 260 694 195 694 q 347 694 282 694 q 434 694 369 694 q 434 608 434 673 q 521 608 456 608 q 608 608 543 608 q 608 521 608 586 q 521 521 586 521 q 434 521 499 521 q 347 521 412 521 q 260 521 326 521 q 260 434 260 499 q 174 434 239 434 q 87 434 152 434 q 87 347 87 412 q 0 347 65 347 m 694 521 q 694 608 694 543 q 781 608 716 608 q 781 521 781 586 q 694 521 760 521 m 434 781 q 347 781 412 781 q 347 868 347 803 q 260 868 326 868 q 260 955 260 890 q 347 955 282 955 q 434 955 369 955 q 434 1042 434 977 q 521 1042 456 1042 q 521 955 521 1020 q 521 868 521 933 q 521 781 521 846 q 434 781 499 781 z "},"":{"ha":434,"x_min":0,"x_max":0,"o":""},"":{"ha":521,"x_min":87,"x_max":434,"o":"m 260 -347 q 174 -347 239 -347 q 174 -260 174 -326 q 87 -260 152 -260 q 87 -174 87 -239 q 87 -87 87 -152 q 87 0 87 -65 q 87 87 87 22 q 87 174 87 109 q 87 260 87 195 q 87 347 87 282 q 174 347 109 347 q 174 434 174 369 q 174 521 174 456 q 260 521 195 521 q 260 434 260 499 q 260 347 260 412 q 260 260 260 326 q 260 174 260 239 q 260 87 260 152 q 347 87 282 87 q 347 0 347 65 q 347 -87 347 -22 q 347 -174 347 -109 q 434 -174 369 -174 q 434 -260 434 -195 q 347 -260 412 -260 q 347 -347 347 -282 q 260 -347 326 -347 m 174 521 q 87 521 152 521 q 87 608 87 543 q 174 608 109 608 q 174 521 174 586 m 174 608 q 174 694 174 629 q 174 781 174 716 q 174 868 174 803 q 260 868 195 868 q 260 781 260 846 q 347 781 282 781 q 347 694 347 760 q 347 608 347 673 q 260 608 326 608 q 174 608 239 608 z "},"":{"ha":781,"x_min":0,"x_max":694,"o":"m 87 -260 q 87 -174 87 -239 q 174 -174 109 -174 q 174 -260 174 -195 q 87 -260 152 -260 m 174 -87 q 174 0 174 -65 q 174 87 174 22 q 87 87 152 87 q 87 174 87 109 q 87 260 87 195 q 0 260 65 260 q 0 347 0 282 q 0 434 0 369 q 0 521 0 456 q 0 608 0 543 q 87 608 22 608 q 87 694 87 629 q 174 694 109 694 q 260 694 195 694 q 260 781 260 716 q 347 781 282 781 q 347 868 347 803 q 347 955 347 890 q 347 1042 347 977 q 434 1042 369 1042 q 521 1042 456 1042 q 608 1042 543 1042 q 608 955 608 1020 q 608 868 608 933 q 521 868 586 868 q 521 781 521 846 q 608 781 543 781 q 608 694 608 760 q 694 694 629 694 q 694 608 694 673 q 608 608 673 608 q 608 521 608 586 q 608 434 608 499 q 521 434 586 434 q 434 434 499 434 q 434 347 434 412 q 434 260 434 326 q 347 260 412 260 q 347 174 347 239 q 260 174 326 174 q 260 260 260 195 q 260 347 260 282 q 347 347 282 347 q 347 434 347 369 q 347 521 347 456 q 260 521 326 521 q 260 434 260 499 q 174 434 239 434 q 174 347 174 412 q 174 260 174 326 q 174 174 174 239 q 260 174 195 174 q 260 87 260 152 q 347 87 282 87 q 434 87 369 87 q 434 0 434 65 q 347 0 412 0 q 260 0 326 0 q 260 -87 260 -22 q 174 -87 239 -87 m 521 87 q 521 174 521 109 q 608 174 543 174 q 608 87 608 152 q 521 87 586 87 z "},"":{"ha":868,"x_min":-87,"x_max":781,"o":"m -87 260 q -87 347 -87 282 q -87 434 -87 369 q -87 521 -87 456 q 0 521 -65 521 q 87 521 22 521 q 87 608 87 543 q 87 694 87 629 q 87 781 87 716 q 87 868 87 803 q 174 868 109 868 q 174 955 174 890 q 260 955 195 955 q 260 1042 260 977 q 347 1042 282 1042 q 434 1042 369 1042 q 521 1042 456 1042 q 608 1042 543 1042 q 694 1042 629 1042 q 694 955 694 1020 q 694 868 694 933 q 608 868 673 868 q 608 781 608 846 q 521 781 586 781 q 521 694 521 760 q 434 694 499 694 q 434 781 434 716 q 434 868 434 803 q 347 868 412 868 q 347 781 347 846 q 260 781 326 781 q 260 694 260 760 q 260 608 260 673 q 260 521 260 586 q 347 521 282 521 q 347 434 347 499 q 260 434 326 434 q 260 347 260 412 q 260 260 260 326 q 174 260 239 260 q 174 174 174 239 q 260 174 195 174 q 347 174 282 174 q 434 174 369 174 q 521 174 456 174 q 521 87 521 152 q 608 87 543 87 q 694 87 629 87 q 694 0 694 65 q 608 0 673 0 q 521 0 586 0 q 521 87 521 22 q 434 87 499 87 q 347 87 412 87 q 347 0 347 65 q 260 0 326 0 q 260 -87 260 -22 q 174 -87 239 -87 q 87 -87 152 -87 q 87 0 87 -65 q 0 0 65 0 q 0 87 0 22 q 87 87 22 87 q 87 174 87 109 q 87 260 87 195 q 174 260 109 260 q 174 347 174 282 q 87 347 152 347 q 0 347 65 347 q 0 260 0 326 q -87 260 -22 260 m 434 434 q 434 521 434 456 q 521 521 456 521 q 521 434 521 499 q 434 434 499 434 m 694 87 q 694 174 694 109 q 781 174 716 174 q 781 87 781 152 q 694 87 760 87 z "},"":{"ha":781,"x_min":87,"x_max":694,"o":"m 347 174 q 347 260 347 195 q 434 260 369 260 q 434 174 434 239 q 347 174 412 174 m 434 260 q 434 347 434 282 q 521 347 456 347 q 521 434 521 369 q 521 521 521 456 q 434 521 499 521 q 434 608 434 543 q 347 608 412 608 q 260 608 326 608 q 260 521 260 586 q 174 521 239 521 q 174 434 174 499 q 260 434 195 434 q 260 347 260 412 q 347 347 282 347 q 347 260 347 326 q 260 260 326 260 q 174 260 239 260 q 174 347 174 282 q 87 347 152 347 q 87 434 87 369 q 87 521 87 456 q 87 608 87 543 q 87 694 87 629 q 174 694 109 694 q 174 781 174 716 q 260 781 195 781 q 260 868 260 803 q 347 868 282 868 q 347 781 347 846 q 434 781 369 781 q 434 694 434 760 q 521 694 456 694 q 521 781 521 716 q 608 781 543 781 q 694 781 629 781 q 694 694 694 760 q 694 608 694 673 q 694 521 694 586 q 694 434 694 499 q 694 347 694 412 q 608 347 673 347 q 608 260 608 326 q 521 260 586 260 q 434 260 499 260 z "},"":{"ha":868,"x_min":-87,"x_max":781,"o":"m 347 0 q 347 87 347 22 q 347 174 347 109 q 347 260 347 195 q 260 260 326 260 q 260 174 260 239 q 174 174 239 174 q 87 174 152 174 q 87 87 87 152 q 0 87 65 87 q 0 174 0 109 q 0 260 0 195 q 0 347 0 282 q 0 434 0 369 q -87 434 -22 434 q -87 521 -87 456 q 0 521 -65 521 q 0 608 0 543 q 87 608 22 608 q 87 521 87 586 q 174 521 109 521 q 260 521 195 521 q 260 608 260 543 q 174 608 239 608 q 174 694 174 629 q 87 694 152 694 q 87 781 87 716 q 0 781 65 781 q 0 868 0 803 q 87 868 22 868 q 87 955 87 890 q 174 955 109 955 q 260 955 195 955 q 347 955 282 955 q 347 868 347 933 q 347 781 347 846 q 434 781 369 781 q 434 694 434 760 q 521 694 456 694 q 521 781 521 716 q 521 868 521 803 q 521 955 521 890 q 608 955 543 955 q 608 1042 608 977 q 694 1042 629 1042 q 694 955 694 1020 q 781 955 716 955 q 781 868 781 933 q 781 781 781 846 q 694 781 760 781 q 694 694 694 760 q 608 694 673 694 q 608 608 608 673 q 521 608 586 608 q 521 521 521 586 q 434 521 499 521 q 434 434 434 499 q 521 434 456 434 q 608 434 543 434 q 694 434 629 434 q 694 347 694 412 q 608 347 673 347 q 521 347 586 347 q 434 347 499 347 q 434 260 434 326 q 521 260 456 260 q 608 260 543 260 q 694 260 629 260 q 694 174 694 239 q 608 174 673 174 q 521 174 586 174 q 434 174 499 174 q 434 87 434 152 q 434 0 434 65 q 347 0 412 0 m 174 347 q 260 347 195 347 q 260 434 260 369 q 174 434 239 434 q 87 434 152 434 q 87 347 87 412 q 174 347 109 347 z "},"":{"ha":434,"x_min":0,"x_max":347,"o":"m 174 -347 q 174 -260 174 -326 q 174 -174 174 -239 q 174 -87 174 -152 q 87 -87 152 -87 q 87 0 87 -65 q 87 87 87 22 q 0 87 65 87 q 0 174 0 109 q 0 260 0 195 q 87 260 22 260 q 87 347 87 282 q 174 347 109 347 q 260 347 195 347 q 260 260 260 326 q 260 174 260 239 q 347 174 282 174 q 347 87 347 152 q 260 87 326 87 q 260 0 260 65 q 260 -87 260 -22 q 260 -174 260 -109 q 260 -260 260 -195 q 260 -347 260 -282 q 174 -347 239 -347 m 87 434 q 87 521 87 456 q 87 608 87 543 q 87 694 87 629 q 87 781 87 716 q 0 781 65 781 q 0 868 0 803 q 0 955 0 890 q 87 955 22 955 q 87 1042 87 977 q 174 1042 109 1042 q 260 1042 195 1042 q 260 955 260 1020 q 347 955 282 955 q 347 868 347 933 q 260 868 326 868 q 260 781 260 846 q 260 694 260 760 q 174 694 239 694 q 174 608 174 673 q 174 521 174 586 q 174 434 174 499 q 87 434 152 434 z "},"":{"ha":781,"x_min":0,"x_max":694,"o":"m 87 -260 q 87 -174 87 -239 q 174 -174 109 -174 q 174 -260 174 -195 q 87 -260 152 -260 m 608 174 q 608 260 608 195 q 694 260 629 260 q 694 174 694 239 q 608 174 673 174 m 521 347 q 521 434 521 369 q 608 434 543 434 q 608 347 608 412 q 521 347 586 347 m 347 -260 q 434 -260 369 -260 q 434 -347 434 -282 q 347 -347 412 -347 q 260 -347 326 -347 q 260 -260 260 -326 q 347 -260 282 -260 m 434 -260 q 434 -174 434 -239 q 521 -174 456 -174 q 521 -260 521 -195 q 434 -260 499 -260 m 521 -174 q 521 -87 521 -152 q 521 0 521 -65 q 434 0 499 0 q 434 87 434 22 q 347 87 412 87 q 347 174 347 109 q 260 174 326 174 q 260 260 260 195 q 174 260 239 260 q 87 260 152 260 q 87 347 87 282 q 0 347 65 347 q 0 434 0 369 q 0 521 0 456 q 87 521 22 521 q 87 608 87 543 q 174 608 109 608 q 174 521 174 586 q 260 521 195 521 q 260 434 260 499 q 347 434 282 434 q 347 347 347 412 q 434 347 369 347 q 434 260 434 326 q 434 174 434 239 q 521 174 456 174 q 521 87 521 152 q 608 87 543 87 q 608 0 608 65 q 608 -87 608 -22 q 608 -174 608 -109 q 521 -174 586 -174 m 521 434 q 434 434 499 434 q 347 434 412 434 q 347 521 347 456 q 260 521 326 521 q 260 608 260 543 q 174 608 239 608 q 174 694 174 629 q 87 694 152 694 q 87 781 87 716 q 87 868 87 803 q 174 868 109 868 q 174 955 174 890 q 260 955 195 955 q 260 1042 260 977 q 347 1042 282 1042 q 434 1042 369 1042 q 521 1042 456 1042 q 521 955 521 1020 q 521 868 521 933 q 434 868 499 868 q 434 781 434 846 q 347 781 412 781 q 347 694 347 760 q 434 694 369 694 q 434 608 434 673 q 434 521 434 586 q 521 521 456 521 q 521 434 521 499 z "},"":{"ha":694,"x_min":0,"x_max":608,"o":"m 434 781 q 434 868 434 803 q 347 868 412 868 q 347 955 347 890 q 347 1042 347 977 q 434 1042 369 1042 q 521 1042 456 1042 q 521 955 521 1020 q 608 955 543 955 q 608 868 608 933 q 521 868 586 868 q 521 781 521 846 q 434 781 499 781 m 174 781 q 174 868 174 803 q 87 868 152 868 q 0 868 65 868 q 0 955 0 890 q 0 1042 0 977 q 87 1042 22 1042 q 174 1042 109 1042 q 174 955 174 1020 q 260 955 195 955 q 260 868 260 933 q 260 781 260 846 q 174 781 239 781 z "},"":{"ha":1128,"x_min":-87,"x_max":1042,"o":"m 521 955 q 521 1042 521 977 q 608 1042 543 1042 q 608 955 608 1020 q 521 955 586 955 m 608 -87 q 521 -87 586 -87 q 434 -87 499 -87 q 347 -87 412 -87 q 260 -87 326 -87 q 260 0 260 -65 q 174 0 239 0 q 174 87 174 22 q 87 87 152 87 q 87 174 87 109 q 0 174 65 174 q 0 260 0 195 q -87 260 -22 260 q -87 347 -87 282 q -87 434 -87 369 q -87 521 -87 456 q -87 608 -87 543 q -87 694 -87 629 q -87 781 -87 716 q 0 781 -65 781 q 0 868 0 803 q 0 955 0 890 q 0 1042 0 977 q 87 1042 22 1042 q 174 1042 109 1042 q 174 955 174 1020 q 260 955 195 955 q 260 868 260 933 q 260 781 260 846 q 174 781 239 781 q 174 694 174 760 q 174 608 174 673 q 174 521 174 586 q 87 521 152 521 q 87 434 87 499 q 174 434 109 434 q 174 347 174 412 q 174 260 174 326 q 260 260 195 260 q 260 174 260 239 q 347 174 282 174 q 347 87 347 152 q 434 87 369 87 q 521 87 456 87 q 608 87 543 87 q 694 87 629 87 q 694 174 694 109 q 781 174 716 174 q 781 260 781 195 q 868 260 803 260 q 868 347 868 282 q 955 347 890 347 q 955 434 955 369 q 955 521 955 456 q 955 608 955 543 q 955 694 955 629 q 1042 694 977 694 q 1042 608 1042 673 q 1042 521 1042 586 q 1042 434 1042 499 q 1042 347 1042 412 q 1042 260 1042 326 q 955 260 1020 260 q 955 174 955 239 q 955 87 955 152 q 868 87 933 87 q 868 0 868 65 q 781 0 846 0 q 694 0 760 0 q 694 -87 694 -22 q 608 -87 673 -87 m 521 260 q 608 260 543 260 q 608 174 608 239 q 521 174 586 174 q 434 174 499 174 q 434 260 434 195 q 521 260 456 260 m 608 260 q 608 347 608 282 q 608 434 608 369 q 521 434 586 434 q 521 521 521 456 q 434 521 499 521 q 347 521 412 521 q 347 608 347 543 q 260 608 326 608 q 260 694 260 629 q 347 694 282 694 q 347 781 347 716 q 434 781 369 781 q 521 781 456 781 q 608 781 543 781 q 608 694 608 760 q 694 694 629 694 q 694 608 694 673 q 694 521 694 586 q 781 521 716 521 q 781 434 781 499 q 781 347 781 412 q 694 347 760 347 q 694 260 694 326 q 608 260 673 260 m 434 260 q 347 260 412 260 q 347 347 347 282 q 434 347 369 347 q 434 260 434 326 m 955 694 q 868 694 933 694 q 868 781 868 716 q 781 781 846 781 q 781 868 781 803 q 868 868 803 868 q 955 868 890 868 q 955 781 955 846 q 955 694 955 760 m 781 868 q 694 868 760 868 q 694 955 694 890 q 781 955 716 955 q 781 868 781 933 z "},"":{"ha":608,"x_min":0,"x_max":521,"o":"m 434 521 q 434 608 434 543 q 521 608 456 608 q 521 521 521 586 q 434 521 499 521 m 260 608 q 347 608 282 608 q 347 694 347 629 q 347 781 347 716 q 347 868 347 803 q 260 868 326 868 q 260 781 260 846 q 174 781 239 781 q 174 694 174 760 q 174 608 174 673 q 260 608 195 608 m 260 521 q 174 521 239 521 q 87 521 152 521 q 87 608 87 543 q 0 608 65 608 q 0 694 0 629 q 0 781 0 716 q 0 868 0 803 q 87 868 22 868 q 87 955 87 890 q 174 955 109 955 q 174 1042 174 977 q 260 1042 195 1042 q 347 1042 282 1042 q 347 955 347 1020 q 347 868 347 933 q 434 868 369 868 q 434 955 434 890 q 521 955 456 955 q 521 868 521 933 q 521 781 521 846 q 521 694 521 760 q 434 694 499 694 q 434 608 434 673 q 347 608 412 608 q 347 521 347 586 q 260 521 326 521 z "},"":{"ha":781,"x_min":87,"x_max":694,"o":"m 521 87 q 521 174 521 109 q 608 174 543 174 q 608 87 608 152 q 521 87 586 87 m 260 87 q 260 174 260 109 q 347 174 282 174 q 347 87 347 152 q 260 87 326 87 m 521 174 q 434 174 499 174 q 434 260 434 195 q 347 260 412 260 q 347 347 347 282 q 347 434 347 369 q 260 434 326 434 q 174 434 239 434 q 174 347 174 412 q 174 260 174 326 q 260 260 195 260 q 260 174 260 239 q 174 174 239 174 q 174 260 174 195 q 87 260 152 260 q 87 347 87 282 q 87 434 87 369 q 87 521 87 456 q 87 608 87 543 q 87 694 87 629 q 174 694 109 694 q 174 781 174 716 q 260 781 195 781 q 347 781 282 781 q 347 694 347 760 q 347 608 347 673 q 434 608 369 608 q 434 694 434 629 q 521 694 456 694 q 521 781 521 716 q 608 781 543 781 q 608 694 608 760 q 694 694 629 694 q 694 608 694 673 q 694 521 694 586 q 694 434 694 499 q 608 434 673 434 q 521 434 586 434 q 521 347 521 412 q 521 260 521 326 q 521 174 521 239 m 434 434 q 434 521 434 456 q 347 521 412 521 q 347 434 347 499 q 434 434 369 434 z "},"":{"ha":868,"x_min":0,"x_max":781,"o":"m 694 260 q 694 347 694 282 q 781 347 716 347 q 781 260 781 326 q 694 260 760 260 m 608 434 q 608 521 608 456 q 608 608 608 543 q 521 608 586 608 q 521 694 521 629 q 434 694 499 694 q 347 694 412 694 q 347 608 347 673 q 260 608 326 608 q 260 521 260 586 q 174 521 239 521 q 87 521 152 521 q 87 608 87 543 q 0 608 65 608 q 0 694 0 629 q 87 694 22 694 q 87 781 87 716 q 174 781 109 781 q 260 781 195 781 q 347 781 282 781 q 434 781 369 781 q 521 781 456 781 q 608 781 543 781 q 608 694 608 760 q 694 694 629 694 q 694 608 694 673 q 694 521 694 586 q 694 434 694 499 q 608 434 673 434 z "},"":{"ha":779,"x_min":87,"x_max":694,"o":"m 174 434 q 174 521 174 456 q 260 521 195 521 q 347 521 282 521 q 434 521 369 521 q 434 434 434 499 q 521 434 456 434 q 608 434 543 434 q 694 434 629 434 q 694 434 694 434 q 694 347 694 434 q 608 347 673 347 q 521 347 586 347 q 434 347 499 347 q 347 347 412 347 q 260 347 326 347 q 174 347 239 347 q 87 347 152 347 q 87 434 87 369 q 130 434 87 434 q 174 434 174 434 z "},"":{"ha":1128,"x_min":0,"x_max":1042,"o":"m 694 0 q 694 87 694 22 q 781 87 716 87 q 781 0 781 65 q 694 0 760 0 m 868 174 q 868 260 868 195 q 955 260 890 260 q 955 174 955 239 q 868 174 933 174 m 694 174 q 694 260 694 195 q 781 260 716 260 q 781 174 781 239 q 694 174 760 174 m 260 260 q 260 347 260 282 q 260 434 260 369 q 260 521 260 456 q 347 521 282 521 q 434 521 369 521 q 434 434 434 499 q 521 434 456 434 q 521 521 521 456 q 608 521 543 521 q 608 434 608 499 q 608 347 608 412 q 694 347 629 347 q 694 260 694 326 q 608 260 673 260 q 608 347 608 282 q 521 347 586 347 q 434 347 499 347 q 347 347 412 347 q 347 260 347 326 q 260 260 326 260 m 347 608 q 347 694 347 629 q 347 781 347 716 q 434 781 369 781 q 434 868 434 803 q 521 868 456 868 q 521 781 521 846 q 608 781 543 781 q 694 781 629 781 q 694 694 694 760 q 694 608 694 673 q 694 521 694 586 q 608 521 673 521 q 608 608 608 543 q 521 608 586 608 q 521 694 521 629 q 434 694 499 694 q 434 608 434 673 q 347 608 412 608 m 521 87 q 608 87 543 87 q 608 0 608 65 q 521 0 586 0 q 434 0 499 0 q 347 0 412 0 q 260 0 326 0 q 260 87 260 22 q 347 87 282 87 q 434 87 369 87 q 521 87 456 87 m 260 87 q 174 87 239 87 q 87 87 152 87 q 87 174 87 109 q 87 260 87 195 q 0 260 65 260 q 0 347 0 282 q 0 434 0 369 q 0 521 0 456 q 0 608 0 543 q 0 694 0 629 q 0 781 0 716 q 0 868 0 803 q 87 868 22 868 q 87 955 87 890 q 87 1042 87 977 q 174 1042 109 1042 q 174 955 174 1020 q 260 955 195 955 q 260 868 260 933 q 347 868 282 868 q 347 781 347 846 q 260 781 326 781 q 260 694 260 760 q 174 694 239 694 q 174 608 174 673 q 174 521 174 586 q 174 434 174 499 q 87 434 152 434 q 87 347 87 412 q 174 347 109 347 q 174 260 174 326 q 174 174 174 239 q 260 174 195 174 q 260 87 260 152 m 955 260 q 955 347 955 282 q 955 434 955 369 q 868 434 933 434 q 868 521 868 456 q 868 608 868 543 q 868 694 868 629 q 781 694 846 694 q 781 781 781 716 q 694 781 760 781 q 694 868 694 803 q 608 868 673 868 q 608 955 608 890 q 608 1042 608 977 q 694 1042 629 1042 q 781 1042 716 1042 q 781 955 781 1020 q 868 955 803 955 q 868 868 868 933 q 955 868 890 868 q 955 781 955 846 q 955 694 955 760 q 1042 694 977 694 q 1042 608 1042 673 q 1042 521 1042 586 q 1042 434 1042 499 q 1042 347 1042 412 q 1042 260 1042 326 q 955 260 1020 260 z "},"":{"ha":868,"x_min":0,"x_max":781,"o":"m 0 781 q 0 868 0 803 q 0 955 0 890 q 0 1042 0 977 q 87 1042 22 1042 q 174 1042 109 1042 q 260 1042 195 1042 q 347 1042 282 1042 q 434 1042 369 1042 q 521 1042 456 1042 q 521 955 521 1020 q 608 955 543 955 q 694 955 629 955 q 781 955 716 955 q 781 868 781 933 q 694 868 760 868 q 608 868 673 868 q 521 868 586 868 q 434 868 499 868 q 347 868 412 868 q 260 868 326 868 q 174 868 239 868 q 87 868 152 868 q 87 781 87 846 q 0 781 65 781 z "},"":{"ha":434,"x_min":87,"x_max":347,"o":"m 174 694 q 87 694 152 694 q 87 781 87 716 q 87 868 87 803 q 87 955 87 890 q 174 955 109 955 q 174 1042 174 977 q 260 1042 195 1042 q 347 1042 282 1042 q 347 955 347 1020 q 347 868 347 933 q 347 781 347 846 q 260 781 326 781 q 260 694 260 760 q 174 694 239 694 z "},"":{"ha":868,"x_min":-87,"x_max":781,"o":"m 694 0 q 694 87 694 22 q 781 87 716 87 q 781 0 781 65 q 694 0 760 0 m 347 174 q 347 260 347 195 q 347 347 347 282 q 347 434 347 369 q 260 434 326 434 q 174 434 239 434 q 174 347 174 412 q 87 347 152 347 q 87 434 87 369 q 0 434 65 434 q 0 521 0 456 q 0 608 0 543 q 0 694 0 629 q 87 694 22 694 q 87 608 87 673 q 174 608 109 608 q 260 608 195 608 q 260 694 260 629 q 260 781 260 716 q 347 781 282 781 q 347 868 347 803 q 434 868 369 868 q 434 781 434 846 q 521 781 456 781 q 521 694 521 760 q 434 694 499 694 q 434 608 434 673 q 434 521 434 586 q 521 521 456 521 q 608 521 543 521 q 694 521 629 521 q 781 521 716 521 q 781 434 781 499 q 694 434 760 434 q 608 434 673 434 q 521 434 586 434 q 434 434 499 434 q 434 347 434 412 q 434 260 434 326 q 434 174 434 239 q 347 174 412 174 m 260 -87 q 174 -87 239 -87 q 87 -87 152 -87 q 0 -87 65 -87 q 0 0 0 -65 q -87 0 -22 0 q -87 87 -87 22 q 0 87 -65 87 q 87 87 22 87 q 87 174 87 109 q 174 174 109 174 q 174 87 174 152 q 260 87 195 87 q 347 87 282 87 q 434 87 369 87 q 521 87 456 87 q 608 87 543 87 q 608 0 608 65 q 521 0 586 0 q 434 0 499 0 q 347 0 412 0 q 347 -87 347 -22 q 260 -87 326 -87 z "},"":{"ha":608,"x_min":0,"x_max":521,"o":"m 347 521 q 347 608 347 543 q 347 694 347 629 q 347 781 347 716 q 260 781 326 781 q 260 868 260 803 q 174 868 239 868 q 174 781 174 846 q 174 694 174 760 q 174 608 174 673 q 174 521 174 586 q 87 521 152 521 q 87 608 87 543 q 87 694 87 629 q 87 781 87 716 q 0 781 65 781 q 0 868 0 803 q 0 955 0 890 q 87 955 22 955 q 87 1042 87 977 q 174 1042 109 1042 q 174 955 174 1020 q 260 955 195 955 q 260 1042 260 977 q 347 1042 282 1042 q 434 1042 369 1042 q 434 955 434 1020 q 521 955 456 955 q 521 868 521 933 q 434 868 499 868 q 434 781 434 846 q 434 694 434 760 q 434 608 434 673 q 434 521 434 586 q 347 521 412 521 z "},"":{"ha":608,"x_min":0,"x_max":521,"o":"m 174 347 q 174 434 174 369 q 174 521 174 456 q 174 608 174 543 q 174 694 174 629 q 174 781 174 716 q 87 781 152 781 q 87 694 87 760 q 87 608 87 673 q 87 521 87 586 q 87 434 87 499 q 0 434 65 434 q 0 521 0 456 q 0 608 0 543 q 0 694 0 629 q 0 781 0 716 q 0 868 0 803 q 0 955 0 890 q 0 1042 0 977 q 87 1042 22 1042 q 87 955 87 1020 q 174 955 109 955 q 174 1042 174 977 q 260 1042 195 1042 q 347 1042 282 1042 q 347 955 347 1020 q 434 955 369 955 q 434 1042 434 977 q 521 1042 456 1042 q 521 955 521 1020 q 521 868 521 933 q 521 781 521 846 q 434 781 499 781 q 434 694 434 760 q 434 608 434 673 q 434 521 434 586 q 434 434 434 499 q 347 434 412 434 q 347 521 347 456 q 347 608 347 543 q 347 694 347 629 q 347 781 347 716 q 347 868 347 803 q 260 868 326 868 q 260 781 260 846 q 260 694 260 760 q 260 608 260 673 q 260 521 260 586 q 260 434 260 499 q 260 347 260 412 q 174 347 239 347 z "},"":{"ha":521,"x_min":87,"x_max":434,"o":"m 87 608 q 87 694 87 629 q 174 694 109 694 q 174 608 174 673 q 87 608 152 608 m 174 694 q 174 781 174 716 q 174 868 174 803 q 174 955 174 890 q 174 1042 174 977 q 260 1042 195 1042 q 347 1042 282 1042 q 347 955 347 1020 q 434 955 369 955 q 434 868 434 933 q 347 868 412 868 q 347 781 347 846 q 260 781 326 781 q 260 694 260 760 q 174 694 239 694 z "},"":{"ha":868,"x_min":0,"x_max":781,"o":"m 87 -260 q 87 -174 87 -239 q 174 -174 109 -174 q 174 -260 174 -195 q 87 -260 152 -260 m 87 -87 q 87 0 87 -65 q 87 87 87 22 q 0 87 65 87 q 0 174 0 109 q 0 260 0 195 q 0 347 0 282 q 0 434 0 369 q 0 521 0 456 q 0 608 0 543 q 0 694 0 629 q 87 694 22 694 q 87 781 87 716 q 174 781 109 781 q 174 694 174 760 q 260 694 195 694 q 260 608 260 673 q 260 521 260 586 q 260 434 260 499 q 260 347 260 412 q 260 260 260 326 q 174 260 239 260 q 174 174 174 239 q 174 87 174 152 q 174 0 174 65 q 174 -87 174 -22 q 87 -87 152 -87 m 347 87 q 434 87 369 87 q 434 0 434 65 q 347 0 412 0 q 260 0 326 0 q 260 87 260 22 q 347 87 282 87 m 434 87 q 434 174 434 109 q 521 174 456 174 q 521 87 521 152 q 434 87 499 87 m 521 174 q 521 260 521 195 q 521 347 521 282 q 521 434 521 369 q 521 521 521 456 q 434 521 499 521 q 434 608 434 543 q 521 608 456 608 q 521 694 521 629 q 608 694 543 694 q 608 781 608 716 q 694 781 629 781 q 694 694 694 760 q 694 608 694 673 q 781 608 716 608 q 781 521 781 586 q 694 521 760 521 q 694 434 694 499 q 694 347 694 412 q 694 260 694 326 q 608 260 673 260 q 608 174 608 239 q 521 174 586 174 z "},"":{"ha":781,"x_min":87,"x_max":694,"o":"m 260 -260 q 260 -174 260 -239 q 260 -87 260 -152 q 260 0 260 -65 q 260 87 260 22 q 260 174 260 109 q 260 260 260 195 q 260 347 260 282 q 260 434 260 369 q 174 434 239 434 q 174 521 174 456 q 87 521 152 521 q 87 608 87 543 q 87 694 87 629 q 87 781 87 716 q 174 781 109 781 q 174 868 174 803 q 260 868 195 868 q 260 781 260 846 q 347 781 282 781 q 347 694 347 760 q 434 694 369 694 q 434 608 434 673 q 434 521 434 586 q 434 434 434 499 q 434 347 434 412 q 434 260 434 326 q 347 260 412 260 q 347 174 347 239 q 347 87 347 152 q 347 0 347 65 q 347 -87 347 -22 q 347 -174 347 -109 q 347 -260 347 -195 q 260 -260 326 -260 m 521 -174 q 521 -87 521 -152 q 608 -87 543 -87 q 608 -174 608 -109 q 521 -174 586 -174 m 521 0 q 521 87 521 22 q 521 174 521 109 q 521 260 521 195 q 521 347 521 282 q 521 434 521 369 q 521 521 521 456 q 521 608 521 543 q 521 694 521 629 q 521 781 521 716 q 434 781 499 781 q 434 868 434 803 q 347 868 412 868 q 260 868 326 868 q 260 955 260 890 q 347 955 282 955 q 347 1042 347 977 q 434 1042 369 1042 q 521 1042 456 1042 q 608 1042 543 1042 q 608 955 608 1020 q 694 955 629 955 q 694 868 694 933 q 694 781 694 846 q 694 694 694 760 q 694 608 694 673 q 694 521 694 586 q 694 434 694 499 q 694 347 694 412 q 694 260 694 326 q 694 174 694 239 q 608 174 673 174 q 608 87 608 152 q 608 0 608 65 q 521 0 586 0 z "},"":{"ha":521,"x_min":87,"x_max":434,"o":"m 347 434 q 260 434 326 434 q 174 434 239 434 q 174 521 174 456 q 87 521 152 521 q 87 608 87 543 q 174 608 109 608 q 174 694 174 629 q 260 694 195 694 q 347 694 282 694 q 347 608 347 673 q 347 521 347 586 q 434 521 369 521 q 434 434 434 499 q 347 434 412 434 z "},"":{"ha":521,"x_min":0,"x_max":434,"o":"m 174 -347 q 87 -347 152 -347 q 87 -260 87 -326 q 174 -260 109 -260 q 174 -174 174 -239 q 174 -87 174 -152 q 87 -87 152 -87 q 87 0 87 -65 q 87 87 87 22 q 174 87 109 87 q 260 87 195 87 q 347 87 282 87 q 347 0 347 65 q 434 0 369 0 q 434 -87 434 -22 q 347 -87 412 -87 q 347 -174 347 -109 q 347 -260 347 -195 q 260 -260 326 -260 q 260 -347 260 -282 q 174 -347 239 -347 m 87 -260 q 0 -260 65 -260 q 0 -174 0 -239 q 87 -174 22 -174 q 87 -260 87 -195 z "},"":{"ha":521,"x_min":174,"x_max":434,"o":"m 260 521 q 260 608 260 543 q 260 694 260 629 q 260 781 260 716 q 260 868 260 803 q 174 868 239 868 q 174 955 174 890 q 174 1042 174 977 q 260 1042 195 1042 q 347 1042 282 1042 q 347 955 347 1020 q 434 955 369 955 q 434 868 434 933 q 347 868 412 868 q 347 781 347 846 q 347 694 347 760 q 347 608 347 673 q 347 521 347 586 q 260 521 326 521 z "},"":{"ha":608,"x_min":0,"x_max":521,"o":"m 434 521 q 434 608 434 543 q 521 608 456 608 q 521 521 521 586 q 434 521 499 521 m 0 521 q 0 608 0 543 q 87 608 22 608 q 87 521 87 586 q 0 521 65 521 m 434 608 q 347 608 412 608 q 347 694 347 629 q 434 694 369 694 q 434 608 434 673 m 87 608 q 87 694 87 629 q 87 781 87 716 q 0 781 65 781 q 0 868 0 803 q 0 955 0 890 q 87 955 22 955 q 87 1042 87 977 q 174 1042 109 1042 q 174 955 174 1020 q 174 868 174 933 q 260 868 195 868 q 260 955 260 890 q 260 1042 260 977 q 347 1042 282 1042 q 347 955 347 1020 q 434 955 369 955 q 521 955 456 955 q 521 868 521 933 q 434 868 499 868 q 434 781 434 846 q 347 781 412 781 q 347 694 347 760 q 260 694 326 694 q 174 694 239 694 q 174 608 174 673 q 87 608 152 608 z "},"":{"ha":781,"x_min":0,"x_max":694,"o":"m 347 87 q 347 174 347 109 q 434 174 369 174 q 434 87 434 152 q 347 87 412 87 m 87 87 q 87 174 87 109 q 174 174 109 174 q 174 87 174 152 q 87 87 152 87 m 434 174 q 434 260 434 195 q 521 260 456 260 q 521 174 521 239 q 434 174 499 174 m 521 260 q 521 347 521 282 q 521 434 521 369 q 434 434 499 434 q 434 521 434 456 q 347 521 412 521 q 347 434 347 499 q 434 434 369 434 q 434 347 434 412 q 347 347 412 347 q 347 260 347 326 q 260 260 326 260 q 174 260 239 260 q 174 347 174 282 q 260 347 195 347 q 260 434 260 369 q 174 434 239 434 q 87 434 152 434 q 87 521 87 456 q 0 521 65 521 q 0 608 0 543 q 87 608 22 608 q 87 694 87 629 q 174 694 109 694 q 260 694 195 694 q 260 608 260 673 q 347 608 282 608 q 347 694 347 629 q 434 694 369 694 q 434 781 434 716 q 521 781 456 781 q 521 694 521 760 q 608 694 543 694 q 608 608 608 673 q 608 521 608 586 q 694 521 629 521 q 694 434 694 499 q 694 347 694 412 q 608 347 673 347 q 608 260 608 326 q 521 260 586 260 z "},"":{"ha":781,"x_min":87,"x_max":694,"o":"m 608 -87 q 608 0 608 -65 q 694 0 629 0 q 694 -87 694 -22 q 608 -87 673 -87 m 434 -174 q 521 -174 456 -174 q 521 -260 521 -195 q 434 -260 499 -260 q 347 -260 412 -260 q 260 -260 326 -260 q 174 -260 239 -260 q 174 -174 174 -239 q 87 -174 152 -174 q 87 -87 87 -152 q 87 0 87 -65 q 87 87 87 22 q 87 174 87 109 q 87 260 87 195 q 174 260 109 260 q 174 347 174 282 q 260 347 195 347 q 260 434 260 369 q 347 434 282 434 q 347 521 347 456 q 434 521 369 521 q 434 434 434 499 q 521 434 456 434 q 521 347 521 412 q 521 260 521 326 q 434 260 499 260 q 434 174 434 239 q 347 174 412 174 q 347 87 347 152 q 260 87 326 87 q 260 0 260 65 q 174 0 239 0 q 174 -87 174 -22 q 260 -87 195 -87 q 260 -174 260 -109 q 347 -174 282 -174 q 434 -174 369 -174 m 434 608 q 347 608 412 608 q 347 694 347 629 q 260 694 326 694 q 260 781 260 716 q 347 781 282 781 q 347 868 347 803 q 434 868 369 868 q 434 781 434 846 q 521 781 456 781 q 521 694 521 760 q 521 608 521 673 q 434 608 499 608 z "},"":{"ha":1042,"x_min":-174,"x_max":955,"o":"m 868 0 q 868 87 868 22 q 955 87 890 87 q 955 0 955 65 q 868 0 933 0 m 0 -87 q -87 -87 -22 -87 q -174 -87 -109 -87 q -174 0 -174 -65 q -87 0 -152 0 q -87 87 -87 22 q 0 87 -65 87 q 0 174 0 109 q 87 174 22 174 q 87 260 87 195 q 174 260 109 260 q 174 347 174 282 q 260 347 195 347 q 260 434 260 369 q 260 521 260 456 q 347 521 282 521 q 347 434 347 499 q 347 347 347 412 q 347 260 347 326 q 260 260 326 260 q 260 174 260 239 q 260 87 260 152 q 174 87 239 87 q 174 0 174 65 q 87 0 152 0 q 87 -87 87 -22 q 0 -87 65 -87 m 868 87 q 781 87 846 87 q 781 174 781 109 q 781 260 781 195 q 868 260 803 260 q 868 174 868 239 q 868 87 868 152 m 781 260 q 694 260 760 260 q 694 347 694 282 q 694 434 694 369 q 608 434 673 434 q 608 347 608 412 q 521 347 586 347 q 434 347 499 347 q 434 434 434 369 q 521 434 456 434 q 608 434 543 434 q 608 521 608 456 q 608 608 608 543 q 521 608 586 608 q 521 694 521 629 q 434 694 499 694 q 434 608 434 673 q 434 521 434 586 q 347 521 412 521 q 347 608 347 543 q 347 694 347 629 q 434 694 369 694 q 434 781 434 716 q 347 781 412 781 q 347 868 347 803 q 260 868 326 868 q 260 955 260 890 q 347 955 282 955 q 434 955 369 955 q 521 955 456 955 q 608 955 543 955 q 608 868 608 933 q 608 781 608 846 q 694 781 629 781 q 694 694 694 760 q 694 608 694 673 q 781 608 716 608 q 781 521 781 586 q 781 434 781 499 q 781 347 781 412 q 781 260 781 326 m 521 1128 q 521 1215 521 1150 q 608 1215 543 1215 q 608 1128 608 1194 q 521 1128 586 1128 m 347 1128 q 347 1215 347 1150 q 434 1215 369 1215 q 434 1128 434 1194 q 347 1128 412 1128 m 434 1128 q 434 1215 434 1150 q 521 1215 456 1215 q 521 1128 521 1194 q 434 1128 499 1128 m 434 1215 q 434 1302 434 1237 q 521 1302 456 1302 q 521 1215 521 1280 q 434 1215 499 1215 m 347 1215 q 347 1302 347 1237 q 434 1302 369 1302 q 434 1215 434 1280 q 347 1215 412 1215 m 521 1042 q 521 1128 521 1063 q 608 1128 543 1128 q 608 1042 608 1107 q 521 1042 586 1042 z "},"":{"ha":1042,"x_min":-174,"x_max":955,"o":"m 868 0 q 868 87 868 22 q 955 87 890 87 q 955 0 955 65 q 868 0 933 0 m 0 -87 q -87 -87 -22 -87 q -174 -87 -109 -87 q -174 0 -174 -65 q -87 0 -152 0 q -87 87 -87 22 q 0 87 -65 87 q 0 174 0 109 q 87 174 22 174 q 87 260 87 195 q 174 260 109 260 q 174 347 174 282 q 260 347 195 347 q 260 434 260 369 q 260 521 260 456 q 347 521 282 521 q 347 434 347 499 q 347 347 347 412 q 347 260 347 326 q 260 260 326 260 q 260 174 260 239 q 260 87 260 152 q 174 87 239 87 q 174 0 174 65 q 87 0 152 0 q 87 -87 87 -22 q 0 -87 65 -87 m 868 87 q 781 87 846 87 q 781 174 781 109 q 781 260 781 195 q 868 260 803 260 q 868 174 868 239 q 868 87 868 152 m 781 260 q 694 260 760 260 q 694 347 694 282 q 694 434 694 369 q 608 434 673 434 q 608 347 608 412 q 521 347 586 347 q 434 347 499 347 q 434 434 434 369 q 521 434 456 434 q 608 434 543 434 q 608 521 608 456 q 608 608 608 543 q 521 608 586 608 q 521 694 521 629 q 434 694 499 694 q 434 608 434 673 q 434 521 434 586 q 347 521 412 521 q 347 608 347 543 q 347 694 347 629 q 434 694 369 694 q 434 781 434 716 q 347 781 412 781 q 347 868 347 803 q 260 868 326 868 q 260 955 260 890 q 347 955 282 955 q 434 955 369 955 q 521 955 456 955 q 608 955 543 955 q 608 868 608 933 q 608 781 608 846 q 694 781 629 781 q 694 694 694 760 q 694 608 694 673 q 781 608 716 608 q 781 521 781 586 q 781 434 781 499 q 781 347 781 412 q 781 260 781 326 m 347 1042 q 347 1128 347 1063 q 434 1128 369 1128 q 434 1042 434 1107 q 347 1042 412 1042 m 434 1128 q 434 1215 434 1150 q 521 1215 456 1215 q 521 1128 521 1194 q 434 1128 499 1128 m 521 1128 q 521 1215 521 1150 q 608 1215 543 1215 q 608 1128 608 1194 q 521 1128 586 1128 m 521 1215 q 521 1302 521 1237 q 608 1302 543 1302 q 608 1215 608 1280 q 521 1215 586 1215 m 434 1215 q 434 1302 434 1237 q 521 1302 456 1302 q 521 1215 521 1280 q 434 1215 499 1215 m 434 1042 q 434 1128 434 1063 q 521 1128 456 1128 q 521 1042 521 1107 q 434 1042 499 1042 z "},"":{"ha":1042,"x_min":-174,"x_max":955,"o":"m 868 0 q 868 87 868 22 q 955 87 890 87 q 955 0 955 65 q 868 0 933 0 m 0 -87 q -87 -87 -22 -87 q -174 -87 -109 -87 q -174 0 -174 -65 q -87 0 -152 0 q -87 87 -87 22 q 0 87 -65 87 q 0 174 0 109 q 87 174 22 174 q 87 260 87 195 q 174 260 109 260 q 174 347 174 282 q 260 347 195 347 q 260 434 260 369 q 260 521 260 456 q 347 521 282 521 q 347 434 347 499 q 347 347 347 412 q 347 260 347 326 q 260 260 326 260 q 260 174 260 239 q 260 87 260 152 q 174 87 239 87 q 174 0 174 65 q 87 0 152 0 q 87 -87 87 -22 q 0 -87 65 -87 m 868 87 q 781 87 846 87 q 781 174 781 109 q 781 260 781 195 q 868 260 803 260 q 868 174 868 239 q 868 87 868 152 m 781 260 q 694 260 760 260 q 694 347 694 282 q 694 434 694 369 q 608 434 673 434 q 608 347 608 412 q 521 347 586 347 q 434 347 499 347 q 434 434 434 369 q 521 434 456 434 q 608 434 543 434 q 608 521 608 456 q 608 608 608 543 q 521 608 586 608 q 521 694 521 629 q 434 694 499 694 q 434 608 434 673 q 434 521 434 586 q 347 521 412 521 q 347 608 347 543 q 347 694 347 629 q 434 694 369 694 q 434 781 434 716 q 347 781 412 781 q 347 868 347 803 q 260 868 326 868 q 260 955 260 890 q 347 955 282 955 q 434 955 369 955 q 521 955 456 955 q 608 955 543 955 q 608 868 608 933 q 608 781 608 846 q 694 781 629 781 q 694 694 694 760 q 694 608 694 673 q 781 608 716 608 q 781 521 781 586 q 781 434 781 499 q 781 347 781 412 q 781 260 781 326 m 608 1042 q 608 1128 608 1063 q 694 1128 629 1128 q 694 1042 694 1107 q 608 1042 673 1042 m 521 1128 q 521 1215 521 1150 q 608 1215 543 1215 q 608 1128 608 1194 q 521 1128 586 1128 m 434 1128 q 434 1215 434 1150 q 521 1215 456 1215 q 521 1128 521 1194 q 434 1128 499 1128 m 347 1128 q 347 1215 347 1150 q 434 1215 369 1215 q 434 1128 434 1194 q 347 1128 412 1128 m 347 1042 q 347 1128 347 1063 q 434 1128 369 1128 q 434 1042 434 1107 q 347 1042 412 1042 m 260 1042 q 260 1128 260 1063 q 347 1128 282 1128 q 347 1042 347 1107 q 260 1042 326 1042 m 434 1215 q 434 1302 434 1237 q 521 1302 456 1302 q 521 1215 521 1280 q 434 1215 499 1215 z "},"":{"ha":1042,"x_min":-174,"x_max":955,"o":"m 868 0 q 868 87 868 22 q 955 87 890 87 q 955 0 955 65 q 868 0 933 0 m 0 -87 q -87 -87 -22 -87 q -174 -87 -109 -87 q -174 0 -174 -65 q -87 0 -152 0 q -87 87 -87 22 q 0 87 -65 87 q 0 174 0 109 q 87 174 22 174 q 87 260 87 195 q 174 260 109 260 q 174 347 174 282 q 260 347 195 347 q 260 434 260 369 q 260 521 260 456 q 347 521 282 521 q 347 434 347 499 q 347 347 347 412 q 347 260 347 326 q 260 260 326 260 q 260 174 260 239 q 260 87 260 152 q 174 87 239 87 q 174 0 174 65 q 87 0 152 0 q 87 -87 87 -22 q 0 -87 65 -87 m 868 87 q 781 87 846 87 q 781 174 781 109 q 781 260 781 195 q 868 260 803 260 q 868 174 868 239 q 868 87 868 152 m 781 260 q 694 260 760 260 q 694 347 694 282 q 694 434 694 369 q 608 434 673 434 q 608 347 608 412 q 521 347 586 347 q 434 347 499 347 q 434 434 434 369 q 521 434 456 434 q 608 434 543 434 q 608 521 608 456 q 608 608 608 543 q 521 608 586 608 q 521 694 521 629 q 434 694 499 694 q 434 608 434 673 q 434 521 434 586 q 347 521 412 521 q 347 608 347 543 q 347 694 347 629 q 434 694 369 694 q 434 781 434 716 q 347 781 412 781 q 347 868 347 803 q 260 868 326 868 q 260 955 260 890 q 347 955 282 955 q 434 955 369 955 q 521 955 456 955 q 608 955 543 955 q 608 868 608 933 q 608 781 608 846 q 694 781 629 781 q 694 694 694 760 q 694 608 694 673 q 781 608 716 608 q 781 521 781 586 q 781 434 781 499 q 781 347 781 412 q 781 260 781 326 m 608 1128 q 608 1215 608 1150 q 694 1215 629 1215 q 694 1128 694 1194 q 608 1128 673 1128 m 521 1042 q 521 1128 521 1063 q 608 1128 543 1128 q 608 1042 608 1107 q 521 1042 586 1042 m 434 1042 q 434 1128 434 1063 q 521 1128 456 1128 q 521 1042 521 1107 q 434 1042 499 1042 m 347 1128 q 347 1215 347 1150 q 434 1215 369 1215 q 434 1128 434 1194 q 347 1128 412 1128 m 260 1128 q 260 1215 260 1150 q 347 1215 282 1215 q 347 1128 347 1194 q 260 1128 326 1128 m 260 1042 q 260 1128 260 1063 q 347 1128 282 1128 q 347 1042 347 1107 q 260 1042 326 1042 m 174 1042 q 174 1128 174 1063 q 260 1128 195 1128 q 260 1042 260 1107 q 174 1042 239 1042 m 174 1128 q 174 1215 174 1150 q 260 1215 195 1215 q 260 1128 260 1194 q 174 1128 239 1128 z "},"":{"ha":1042,"x_min":-174,"x_max":955,"o":"m 868 0 q 868 87 868 22 q 955 87 890 87 q 955 0 955 65 q 868 0 933 0 m 0 -87 q -87 -87 -22 -87 q -174 -87 -109 -87 q -174 0 -174 -65 q -87 0 -152 0 q -87 87 -87 22 q 0 87 -65 87 q 0 174 0 109 q 87 174 22 174 q 87 260 87 195 q 174 260 109 260 q 174 347 174 282 q 260 347 195 347 q 260 434 260 369 q 260 521 260 456 q 347 521 282 521 q 347 434 347 499 q 347 347 347 412 q 347 260 347 326 q 260 260 326 260 q 260 174 260 239 q 260 87 260 152 q 174 87 239 87 q 174 0 174 65 q 87 0 152 0 q 87 -87 87 -22 q 0 -87 65 -87 m 868 87 q 781 87 846 87 q 781 174 781 109 q 781 260 781 195 q 868 260 803 260 q 868 174 868 239 q 868 87 868 152 m 781 260 q 694 260 760 260 q 694 347 694 282 q 694 434 694 369 q 608 434 673 434 q 608 347 608 412 q 521 347 586 347 q 434 347 499 347 q 434 434 434 369 q 521 434 456 434 q 608 434 543 434 q 608 521 608 456 q 608 608 608 543 q 521 608 586 608 q 521 694 521 629 q 434 694 499 694 q 434 608 434 673 q 434 521 434 586 q 347 521 412 521 q 347 608 347 543 q 347 694 347 629 q 434 694 369 694 q 434 781 434 716 q 347 781 412 781 q 347 868 347 803 q 260 868 326 868 q 260 955 260 890 q 347 955 282 955 q 434 955 369 955 q 521 955 456 955 q 608 955 543 955 q 608 868 608 933 q 608 781 608 846 q 694 781 629 781 q 694 694 694 760 q 694 608 694 673 q 781 608 716 608 q 781 521 781 586 q 781 434 781 499 q 781 347 781 412 q 781 260 781 326 m 260 1042 q 260 1128 260 1063 q 347 1128 282 1128 q 347 1042 347 1107 q 260 1042 326 1042 m 347 1042 q 347 1128 347 1063 q 434 1128 369 1128 q 434 1042 434 1107 q 347 1042 412 1042 m 521 1042 q 521 1128 521 1063 q 608 1128 543 1128 q 608 1042 608 1107 q 521 1042 586 1042 m 608 1042 q 608 1128 608 1063 q 694 1128 629 1128 q 694 1042 694 1107 q 608 1042 673 1042 m 608 1128 q 608 1215 608 1150 q 694 1215 629 1215 q 694 1128 694 1194 q 608 1128 673 1128 m 521 1128 q 521 1215 521 1150 q 608 1215 543 1215 q 608 1128 608 1194 q 521 1128 586 1128 m 694 1042 q 694 1128 694 1063 q 781 1128 716 1128 q 781 1042 781 1107 q 694 1042 760 1042 m 347 1128 q 347 1215 347 1150 q 434 1215 369 1215 q 434 1128 434 1194 q 347 1128 412 1128 m 260 1128 q 260 1215 260 1150 q 347 1215 282 1215 q 347 1128 347 1194 q 260 1128 326 1128 z "},"":{"ha":1042,"x_min":-174,"x_max":955,"o":"m 868 0 q 868 87 868 22 q 955 87 890 87 q 955 0 955 65 q 868 0 933 0 m 0 -87 q -87 -87 -22 -87 q -174 -87 -109 -87 q -174 0 -174 -65 q -87 0 -152 0 q -87 87 -87 22 q 0 87 -65 87 q 0 174 0 109 q 87 174 22 174 q 87 260 87 195 q 174 260 109 260 q 174 347 174 282 q 260 347 195 347 q 260 434 260 369 q 260 521 260 456 q 347 521 282 521 q 347 434 347 499 q 347 347 347 412 q 347 260 347 326 q 260 260 326 260 q 260 174 260 239 q 260 87 260 152 q 174 87 239 87 q 174 0 174 65 q 87 0 152 0 q 87 -87 87 -22 q 0 -87 65 -87 m 868 87 q 781 87 846 87 q 781 174 781 109 q 781 260 781 195 q 868 260 803 260 q 868 174 868 239 q 868 87 868 152 m 781 260 q 694 260 760 260 q 694 347 694 282 q 694 434 694 369 q 608 434 673 434 q 608 347 608 412 q 521 347 586 347 q 434 347 499 347 q 434 434 434 369 q 521 434 456 434 q 608 434 543 434 q 608 521 608 456 q 608 608 608 543 q 521 608 586 608 q 521 694 521 629 q 434 694 499 694 q 434 608 434 673 q 434 521 434 586 q 347 521 412 521 q 347 608 347 543 q 347 694 347 629 q 434 694 369 694 q 434 781 434 716 q 347 781 412 781 q 347 868 347 803 q 260 868 326 868 q 260 955 260 890 q 347 955 282 955 q 434 955 369 955 q 521 955 456 955 q 608 955 543 955 q 608 868 608 933 q 608 781 608 846 q 694 781 629 781 q 694 694 694 760 q 694 608 694 673 q 781 608 716 608 q 781 521 781 586 q 781 434 781 499 q 781 347 781 412 q 781 260 781 326 m 434 1042 q 434 1128 434 1063 q 521 1128 456 1128 q 521 1042 521 1107 q 434 1042 499 1042 m 434 1128 q 434 1215 434 1150 q 521 1215 456 1215 q 521 1128 521 1194 q 434 1128 499 1128 m 347 1042 q 347 1128 347 1063 q 434 1128 369 1128 q 434 1042 434 1107 q 347 1042 412 1042 m 347 1128 q 347 1215 347 1150 q 434 1215 369 1215 q 434 1128 434 1194 q 347 1128 412 1128 m 521 1128 q 521 1215 521 1150 q 608 1215 543 1215 q 608 1128 608 1194 q 521 1128 586 1128 m 434 1215 q 434 1302 434 1237 q 521 1302 456 1302 q 521 1215 521 1280 q 434 1215 499 1215 z "},"":{"ha":1476,"x_min":-87,"x_max":1389,"o":"m 87 0 q 0 0 65 0 q -87 0 -22 0 q -87 87 -87 22 q 0 87 -65 87 q 0 174 0 109 q 87 174 22 174 q 87 260 87 195 q 174 260 109 260 q 174 347 174 282 q 260 347 195 347 q 260 434 260 369 q 347 434 282 434 q 347 521 347 456 q 347 608 347 543 q 434 608 369 608 q 434 521 434 586 q 434 434 434 499 q 434 347 434 412 q 347 347 412 347 q 347 260 347 326 q 347 174 347 239 q 260 174 326 174 q 260 87 260 152 q 174 87 239 87 q 174 0 174 65 q 87 0 152 0 m 868 347 q 781 347 846 347 q 781 434 781 369 q 781 521 781 456 q 694 521 760 521 q 694 434 694 499 q 608 434 673 434 q 521 434 586 434 q 521 521 521 456 q 608 521 543 521 q 694 521 629 521 q 694 608 694 543 q 694 694 694 629 q 608 694 673 694 q 608 781 608 716 q 521 781 586 781 q 521 694 521 760 q 521 608 521 673 q 434 608 499 608 q 434 694 434 629 q 434 781 434 716 q 521 781 456 781 q 521 868 521 803 q 434 868 499 868 q 434 955 434 890 q 347 955 412 955 q 347 1042 347 977 q 434 1042 369 1042 q 521 1042 456 1042 q 608 1042 543 1042 q 694 1042 629 1042 q 694 955 694 1020 q 694 868 694 933 q 781 868 716 868 q 781 781 781 846 q 781 694 781 760 q 868 694 803 694 q 868 608 868 673 q 868 521 868 586 q 868 434 868 499 q 868 347 868 412 m 955 781 q 955 868 955 803 q 868 868 933 868 q 868 781 868 846 q 868 694 868 760 q 868 608 868 673 q 955 608 890 608 q 1042 608 977 608 q 1128 608 1063 608 q 1215 608 1150 608 q 1302 608 1237 608 q 1389 608 1324 608 q 1389 521 1389 586 q 1302 521 1367 521 q 1215 521 1280 521 q 1128 521 1194 521 q 1128 434 1128 499 q 1042 434 1107 434 q 955 434 1020 434 q 955 521 955 456 q 868 521 933 521 q 868 434 868 499 q 868 347 868 412 q 781 347 846 347 q 781 260 781 326 q 781 174 781 239 q 868 174 803 174 q 955 174 890 174 q 1042 174 977 174 q 1042 87 1042 152 q 1128 87 1063 87 q 1215 87 1150 87 q 1302 87 1237 87 q 1302 0 1302 65 q 1215 0 1280 0 q 1128 0 1194 0 q 1042 0 1107 0 q 1042 -87 1042 -22 q 955 -87 1020 -87 q 868 -87 933 -87 q 868 0 868 -65 q 868 87 868 22 q 781 87 846 87 q 781 0 781 65 q 694 0 760 0 q 694 87 694 22 q 694 174 694 109 q 694 260 694 195 q 694 347 694 282 q 694 434 694 369 q 694 521 694 456 q 694 608 694 543 q 694 694 694 629 q 608 694 673 694 q 608 781 608 716 q 521 781 586 781 q 521 868 521 803 q 608 868 543 868 q 694 868 629 868 q 694 955 694 890 q 781 955 716 955 q 781 1042 781 977 q 868 1042 803 1042 q 868 955 868 1020 q 955 955 890 955 q 1042 955 977 955 q 1128 955 1063 955 q 1128 1042 1128 977 q 1215 1042 1150 1042 q 1302 1042 1237 1042 q 1389 1042 1324 1042 q 1389 955 1389 1020 q 1302 955 1367 955 q 1215 955 1280 955 q 1215 868 1215 933 q 1128 868 1194 868 q 1042 868 1107 868 q 1042 781 1042 846 q 955 781 1020 781 z "},"":{"ha":955,"x_min":0,"x_max":868,"o":"m 434 -347 q 434 -260 434 -326 q 521 -260 456 -260 q 521 -347 521 -282 q 434 -347 499 -347 m 781 174 q 781 260 781 195 q 868 260 803 260 q 868 174 868 239 q 781 174 846 174 m 521 -260 q 521 -174 521 -239 q 434 -174 499 -174 q 347 -174 412 -174 q 347 -87 347 -152 q 260 -87 326 -87 q 260 0 260 -65 q 347 0 282 0 q 347 87 347 22 q 434 87 369 87 q 521 87 456 87 q 608 87 543 87 q 694 87 629 87 q 694 0 694 65 q 608 0 673 0 q 521 0 586 0 q 521 -87 521 -22 q 608 -87 543 -87 q 608 -174 608 -109 q 608 -260 608 -195 q 521 -260 586 -260 m 347 87 q 260 87 326 87 q 174 87 239 87 q 174 174 174 109 q 87 174 152 174 q 87 260 87 195 q 87 347 87 282 q 0 347 65 347 q 0 434 0 369 q 0 521 0 456 q 0 608 0 543 q 87 608 22 608 q 87 694 87 629 q 87 781 87 716 q 174 781 109 781 q 174 868 174 803 q 260 868 195 868 q 260 955 260 890 q 347 955 282 955 q 434 955 369 955 q 521 955 456 955 q 521 1042 521 977 q 608 1042 543 1042 q 694 1042 629 1042 q 781 1042 716 1042 q 781 955 781 1020 q 868 955 803 955 q 868 868 868 933 q 781 868 846 868 q 781 781 781 846 q 781 694 781 760 q 694 694 760 694 q 608 694 673 694 q 521 694 586 694 q 521 781 521 716 q 434 781 499 781 q 347 781 412 781 q 347 694 347 760 q 260 694 326 694 q 260 608 260 673 q 260 521 260 586 q 174 521 239 521 q 174 434 174 499 q 174 347 174 412 q 260 347 195 347 q 260 260 260 326 q 260 174 260 239 q 347 174 282 174 q 347 87 347 152 z "},"":{"ha":1042,"x_min":0,"x_max":955,"o":"m 87 -87 q 87 0 87 -65 q 174 0 109 0 q 174 -87 174 -22 q 87 -87 152 -87 m 868 87 q 868 174 868 109 q 955 174 890 174 q 955 87 955 152 q 868 87 933 87 m 434 781 q 434 868 434 803 q 347 868 412 868 q 347 781 347 846 q 347 694 347 760 q 347 608 347 673 q 434 608 369 608 q 521 608 456 608 q 608 608 543 608 q 694 608 629 608 q 781 608 716 608 q 868 608 803 608 q 868 521 868 586 q 781 521 846 521 q 694 521 760 521 q 608 521 673 521 q 608 434 608 499 q 521 434 586 434 q 434 434 499 434 q 434 521 434 456 q 347 521 412 521 q 347 434 347 499 q 347 347 347 412 q 260 347 326 347 q 260 260 260 326 q 260 174 260 239 q 347 174 282 174 q 434 174 369 174 q 521 174 456 174 q 521 87 521 152 q 608 87 543 87 q 694 87 629 87 q 781 87 716 87 q 781 0 781 65 q 694 0 760 0 q 608 0 673 0 q 521 0 586 0 q 521 -87 521 -22 q 434 -87 499 -87 q 347 -87 412 -87 q 347 0 347 -65 q 347 87 347 22 q 260 87 326 87 q 260 0 260 65 q 174 0 239 0 q 174 87 174 22 q 174 174 174 109 q 174 260 174 195 q 174 347 174 282 q 174 434 174 369 q 174 521 174 456 q 174 608 174 543 q 174 694 174 629 q 87 694 152 694 q 87 781 87 716 q 0 781 65 781 q 0 868 0 803 q 87 868 22 868 q 174 868 109 868 q 174 955 174 890 q 260 955 195 955 q 260 1042 260 977 q 347 1042 282 1042 q 347 955 347 1020 q 434 955 369 955 q 521 955 456 955 q 608 955 543 955 q 608 1042 608 977 q 694 1042 629 1042 q 781 1042 716 1042 q 868 1042 803 1042 q 868 955 868 1020 q 781 955 846 955 q 694 955 760 955 q 694 868 694 933 q 608 868 673 868 q 521 868 586 868 q 521 781 521 846 q 434 781 499 781 m 434 1042 q 434 1128 434 1063 q 521 1128 456 1128 q 521 1042 521 1107 q 434 1042 499 1042 m 434 1128 q 434 1215 434 1150 q 521 1215 456 1215 q 521 1128 521 1194 q 434 1128 499 1128 m 347 1128 q 347 1215 347 1150 q 434 1215 369 1215 q 434 1128 434 1194 q 347 1128 412 1128 m 347 1215 q 347 1302 347 1237 q 434 1302 369 1302 q 434 1215 434 1280 q 347 1215 412 1215 m 260 1215 q 260 1302 260 1237 q 347 1302 282 1302 q 347 1215 347 1280 q 260 1215 326 1215 m 260 1128 q 260 1215 260 1150 q 347 1215 282 1215 q 347 1128 347 1194 q 260 1128 326 1128 z "},"":{"ha":1042,"x_min":0,"x_max":955,"o":"m 434 1042 q 434 1128 434 1063 q 521 1128 456 1128 q 521 1042 521 1107 q 434 1042 499 1042 m 87 -87 q 87 0 87 -65 q 174 0 109 0 q 174 -87 174 -22 q 87 -87 152 -87 m 868 87 q 868 174 868 109 q 955 174 890 174 q 955 87 955 152 q 868 87 933 87 m 434 781 q 434 868 434 803 q 347 868 412 868 q 347 781 347 846 q 347 694 347 760 q 347 608 347 673 q 434 608 369 608 q 521 608 456 608 q 608 608 543 608 q 694 608 629 608 q 781 608 716 608 q 868 608 803 608 q 868 521 868 586 q 781 521 846 521 q 694 521 760 521 q 608 521 673 521 q 608 434 608 499 q 521 434 586 434 q 434 434 499 434 q 434 521 434 456 q 347 521 412 521 q 347 434 347 499 q 347 347 347 412 q 260 347 326 347 q 260 260 260 326 q 260 174 260 239 q 347 174 282 174 q 434 174 369 174 q 521 174 456 174 q 521 87 521 152 q 608 87 543 87 q 694 87 629 87 q 781 87 716 87 q 781 0 781 65 q 694 0 760 0 q 608 0 673 0 q 521 0 586 0 q 521 -87 521 -22 q 434 -87 499 -87 q 347 -87 412 -87 q 347 0 347 -65 q 347 87 347 22 q 260 87 326 87 q 260 0 260 65 q 174 0 239 0 q 174 87 174 22 q 174 174 174 109 q 174 260 174 195 q 174 347 174 282 q 174 434 174 369 q 174 521 174 456 q 174 608 174 543 q 174 694 174 629 q 87 694 152 694 q 87 781 87 716 q 0 781 65 781 q 0 868 0 803 q 87 868 22 868 q 174 868 109 868 q 174 955 174 890 q 260 955 195 955 q 260 1042 260 977 q 347 1042 282 1042 q 347 955 347 1020 q 434 955 369 955 q 521 955 456 955 q 608 955 543 955 q 608 1042 608 977 q 694 1042 629 1042 q 781 1042 716 1042 q 868 1042 803 1042 q 868 955 868 1020 q 781 955 846 955 q 694 955 760 955 q 694 868 694 933 q 608 868 673 868 q 521 868 586 868 q 521 781 521 846 q 434 781 499 781 m 521 1128 q 521 1215 521 1150 q 608 1215 543 1215 q 608 1128 608 1194 q 521 1128 586 1128 m 608 1215 q 608 1302 608 1237 q 694 1302 629 1302 q 694 1215 694 1280 q 608 1215 673 1215 m 608 1128 q 608 1215 608 1150 q 694 1215 629 1215 q 694 1128 694 1194 q 608 1128 673 1128 m 521 1215 q 521 1302 521 1237 q 608 1302 543 1302 q 608 1215 608 1280 q 521 1215 586 1215 z "},"":{"ha":1042,"x_min":0,"x_max":955,"o":"m 87 -87 q 87 0 87 -65 q 174 0 109 0 q 174 -87 174 -22 q 87 -87 152 -87 m 868 87 q 868 174 868 109 q 955 174 890 174 q 955 87 955 152 q 868 87 933 87 m 434 781 q 434 868 434 803 q 347 868 412 868 q 347 781 347 846 q 347 694 347 760 q 347 608 347 673 q 434 608 369 608 q 521 608 456 608 q 608 608 543 608 q 694 608 629 608 q 781 608 716 608 q 868 608 803 608 q 868 521 868 586 q 781 521 846 521 q 694 521 760 521 q 608 521 673 521 q 608 434 608 499 q 521 434 586 434 q 434 434 499 434 q 434 521 434 456 q 347 521 412 521 q 347 434 347 499 q 347 347 347 412 q 260 347 326 347 q 260 260 260 326 q 260 174 260 239 q 347 174 282 174 q 434 174 369 174 q 521 174 456 174 q 521 87 521 152 q 608 87 543 87 q 694 87 629 87 q 781 87 716 87 q 781 0 781 65 q 694 0 760 0 q 608 0 673 0 q 521 0 586 0 q 521 -87 521 -22 q 434 -87 499 -87 q 347 -87 412 -87 q 347 0 347 -65 q 347 87 347 22 q 260 87 326 87 q 260 0 260 65 q 174 0 239 0 q 174 87 174 22 q 174 174 174 109 q 174 260 174 195 q 174 347 174 282 q 174 434 174 369 q 174 521 174 456 q 174 608 174 543 q 174 694 174 629 q 87 694 152 694 q 87 781 87 716 q 0 781 65 781 q 0 868 0 803 q 87 868 22 868 q 174 868 109 868 q 174 955 174 890 q 260 955 195 955 q 260 1042 260 977 q 347 1042 282 1042 q 347 955 347 1020 q 434 955 369 955 q 521 955 456 955 q 608 955 543 955 q 608 1042 608 977 q 694 1042 629 1042 q 781 1042 716 1042 q 868 1042 803 1042 q 868 955 868 1020 q 781 955 846 955 q 694 955 760 955 q 694 868 694 933 q 608 868 673 868 q 521 868 586 868 q 521 781 521 846 q 434 781 499 781 m 434 1215 q 434 1302 434 1237 q 521 1302 456 1302 q 521 1215 521 1280 q 434 1215 499 1215 m 521 1128 q 521 1215 521 1150 q 608 1215 543 1215 q 608 1128 608 1194 q 521 1128 586 1128 m 347 1128 q 347 1215 347 1150 q 434 1215 369 1215 q 434 1128 434 1194 q 347 1128 412 1128 m 347 1215 q 347 1302 347 1237 q 434 1302 369 1302 q 434 1215 434 1280 q 347 1215 412 1215 m 260 1128 q 260 1215 260 1150 q 347 1215 282 1215 q 347 1128 347 1194 q 260 1128 326 1128 m 260 1215 q 260 1302 260 1237 q 347 1302 282 1302 q 347 1215 347 1280 q 260 1215 326 1215 m 347 1302 q 347 1389 347 1324 q 434 1389 369 1389 q 434 1302 434 1367 q 347 1302 412 1302 z "},"":{"ha":1042,"x_min":0,"x_max":955,"o":"m 521 1128 q 521 1215 521 1150 q 608 1215 543 1215 q 608 1128 608 1194 q 521 1128 586 1128 m 87 -87 q 87 0 87 -65 q 174 0 109 0 q 174 -87 174 -22 q 87 -87 152 -87 m 868 87 q 868 174 868 109 q 955 174 890 174 q 955 87 955 152 q 868 87 933 87 m 434 781 q 434 868 434 803 q 347 868 412 868 q 347 781 347 846 q 347 694 347 760 q 347 608 347 673 q 434 608 369 608 q 521 608 456 608 q 608 608 543 608 q 694 608 629 608 q 781 608 716 608 q 868 608 803 608 q 868 521 868 586 q 781 521 846 521 q 694 521 760 521 q 608 521 673 521 q 608 434 608 499 q 521 434 586 434 q 434 434 499 434 q 434 521 434 456 q 347 521 412 521 q 347 434 347 499 q 347 347 347 412 q 260 347 326 347 q 260 260 260 326 q 260 174 260 239 q 347 174 282 174 q 434 174 369 174 q 521 174 456 174 q 521 87 521 152 q 608 87 543 87 q 694 87 629 87 q 781 87 716 87 q 781 0 781 65 q 694 0 760 0 q 608 0 673 0 q 521 0 586 0 q 521 -87 521 -22 q 434 -87 499 -87 q 347 -87 412 -87 q 347 0 347 -65 q 347 87 347 22 q 260 87 326 87 q 260 0 260 65 q 174 0 239 0 q 174 87 174 22 q 174 174 174 109 q 174 260 174 195 q 174 347 174 282 q 174 434 174 369 q 174 521 174 456 q 174 608 174 543 q 174 694 174 629 q 87 694 152 694 q 87 781 87 716 q 0 781 65 781 q 0 868 0 803 q 87 868 22 868 q 174 868 109 868 q 174 955 174 890 q 260 955 195 955 q 260 1042 260 977 q 347 1042 282 1042 q 347 955 347 1020 q 434 955 369 955 q 521 955 456 955 q 608 955 543 955 q 608 1042 608 977 q 694 1042 629 1042 q 781 1042 716 1042 q 868 1042 803 1042 q 868 955 868 1020 q 781 955 846 955 q 694 955 760 955 q 694 868 694 933 q 608 868 673 868 q 521 868 586 868 q 521 781 521 846 q 434 781 499 781 m 608 1128 q 608 1215 608 1150 q 694 1215 629 1215 q 694 1128 694 1194 q 608 1128 673 1128 m 608 1215 q 608 1302 608 1237 q 694 1302 629 1302 q 694 1215 694 1280 q 608 1215 673 1215 m 521 1215 q 521 1302 521 1237 q 608 1302 543 1302 q 608 1215 608 1280 q 521 1215 586 1215 m 694 1128 q 694 1215 694 1150 q 781 1215 716 1215 q 781 1128 781 1194 q 694 1128 760 1128 m 260 1128 q 260 1215 260 1150 q 347 1215 282 1215 q 347 1128 347 1194 q 260 1128 326 1128 m 347 1128 q 347 1215 347 1150 q 434 1215 369 1215 q 434 1128 434 1194 q 347 1128 412 1128 m 347 1215 q 347 1302 347 1237 q 434 1302 369 1302 q 434 1215 434 1280 q 347 1215 412 1215 m 260 1215 q 260 1302 260 1237 q 347 1302 282 1302 q 347 1215 347 1280 q 260 1215 326 1215 m 174 1215 q 174 1302 174 1237 q 260 1302 195 1302 q 260 1215 260 1280 q 174 1215 239 1215 z "},"":{"ha":434,"x_min":0,"x_max":347,"o":"m 87 -87 q 87 0 87 -65 q 87 87 87 22 q 87 174 87 109 q 87 260 87 195 q 87 347 87 282 q 174 347 109 347 q 174 434 174 369 q 174 521 174 456 q 174 608 174 543 q 87 608 152 608 q 87 694 87 629 q 87 781 87 716 q 0 781 65 781 q 0 868 0 803 q 87 868 22 868 q 87 955 87 890 q 174 955 109 955 q 260 955 195 955 q 260 1042 260 977 q 347 1042 282 1042 q 347 955 347 1020 q 347 868 347 933 q 347 781 347 846 q 347 694 347 760 q 347 608 347 673 q 347 521 347 586 q 347 434 347 499 q 347 347 347 412 q 260 347 326 347 q 260 260 260 326 q 260 174 260 239 q 260 87 260 152 q 174 87 239 87 q 174 0 174 65 q 174 -87 174 -22 q 87 -87 152 -87 m 174 1042 q 174 1128 174 1063 q 260 1128 195 1128 q 260 1042 260 1107 q 174 1042 239 1042 m 174 1128 q 174 1215 174 1150 q 260 1215 195 1215 q 260 1128 260 1194 q 174 1128 239 1128 m 87 1128 q 87 1215 87 1150 q 174 1215 109 1215 q 174 1128 174 1194 q 87 1128 152 1128 m 0 1215 q 0 1302 0 1237 q 87 1302 22 1302 q 87 1215 87 1280 q 0 1215 65 1215 m 87 1215 q 87 1302 87 1237 q 174 1302 109 1302 q 174 1215 174 1280 q 87 1215 152 1215 m 0 1128 q 0 1215 0 1150 q 87 1215 22 1215 q 87 1128 87 1194 q 0 1128 65 1128 z "},"":{"ha":434,"x_min":0,"x_max":347,"o":"m 87 1042 q 87 1128 87 1063 q 174 1128 109 1128 q 174 1042 174 1107 q 87 1042 152 1042 m 87 -87 q 87 0 87 -65 q 87 87 87 22 q 87 174 87 109 q 87 260 87 195 q 87 347 87 282 q 174 347 109 347 q 174 434 174 369 q 174 521 174 456 q 174 608 174 543 q 87 608 152 608 q 87 694 87 629 q 87 781 87 716 q 0 781 65 781 q 0 868 0 803 q 87 868 22 868 q 87 955 87 890 q 174 955 109 955 q 260 955 195 955 q 260 1042 260 977 q 347 1042 282 1042 q 347 955 347 1020 q 347 868 347 933 q 347 781 347 846 q 347 694 347 760 q 347 608 347 673 q 347 521 347 586 q 347 434 347 499 q 347 347 347 412 q 260 347 326 347 q 260 260 260 326 q 260 174 260 239 q 260 87 260 152 q 174 87 239 87 q 174 0 174 65 q 174 -87 174 -22 q 87 -87 152 -87 m 174 1128 q 174 1215 174 1150 q 260 1215 195 1215 q 260 1128 260 1194 q 174 1128 239 1128 m 260 1128 q 260 1215 260 1150 q 347 1215 282 1215 q 347 1128 347 1194 q 260 1128 326 1128 m 260 1215 q 260 1302 260 1237 q 347 1302 282 1302 q 347 1215 347 1280 q 260 1215 326 1215 m 174 1215 q 174 1302 174 1237 q 260 1302 195 1302 q 260 1215 260 1280 q 174 1215 239 1215 m 174 1042 q 174 1128 174 1063 q 260 1128 195 1128 q 260 1042 260 1107 q 174 1042 239 1042 z "},"":{"ha":434,"x_min":0,"x_max":347,"o":"m 87 -87 q 87 0 87 -65 q 87 87 87 22 q 87 174 87 109 q 87 260 87 195 q 87 347 87 282 q 174 347 109 347 q 174 434 174 369 q 174 521 174 456 q 174 608 174 543 q 87 608 152 608 q 87 694 87 629 q 87 781 87 716 q 0 781 65 781 q 0 868 0 803 q 87 868 22 868 q 87 955 87 890 q 174 955 109 955 q 260 955 195 955 q 260 1042 260 977 q 347 1042 282 1042 q 347 955 347 1020 q 347 868 347 933 q 347 781 347 846 q 347 694 347 760 q 347 608 347 673 q 347 521 347 586 q 347 434 347 499 q 347 347 347 412 q 260 347 326 347 q 260 260 260 326 q 260 174 260 239 q 260 87 260 152 q 174 87 239 87 q 174 0 174 65 q 174 -87 174 -22 q 87 -87 152 -87 m 0 1042 q 0 1128 0 1063 q 87 1128 22 1128 q 87 1042 87 1107 q 0 1042 65 1042 m 87 1128 q 87 1215 87 1150 q 174 1215 109 1215 q 174 1128 174 1194 q 87 1128 152 1128 m 260 1128 q 260 1215 260 1150 q 347 1215 282 1215 q 347 1128 347 1194 q 260 1128 326 1128 m 174 1215 q 174 1302 174 1237 q 260 1302 195 1302 q 260 1215 260 1280 q 174 1215 239 1215 m 87 1215 q 87 1302 87 1237 q 174 1302 109 1302 q 174 1215 174 1280 q 87 1215 152 1215 m 0 1128 q 0 1215 0 1150 q 87 1215 22 1215 q 87 1128 87 1194 q 0 1128 65 1128 z "},"":{"ha":434,"x_min":0,"x_max":521,"o":"m 87 -87 q 87 0 87 -65 q 87 87 87 22 q 87 174 87 109 q 87 260 87 195 q 87 347 87 282 q 174 347 109 347 q 174 434 174 369 q 174 521 174 456 q 174 608 174 543 q 87 608 152 608 q 87 694 87 629 q 87 781 87 716 q 0 781 65 781 q 0 868 0 803 q 87 868 22 868 q 87 955 87 890 q 174 955 109 955 q 260 955 195 955 q 260 1042 260 977 q 347 1042 282 1042 q 347 955 347 1020 q 347 868 347 933 q 347 781 347 846 q 347 694 347 760 q 347 608 347 673 q 347 521 347 586 q 347 434 347 499 q 347 347 347 412 q 260 347 326 347 q 260 260 260 326 q 260 174 260 239 q 260 87 260 152 q 174 87 239 87 q 174 0 174 65 q 174 -87 174 -22 q 87 -87 152 -87 m 0 1042 q 0 1128 0 1063 q 87 1128 22 1128 q 87 1042 87 1107 q 0 1042 65 1042 m 87 1042 q 87 1128 87 1063 q 174 1128 109 1128 q 174 1042 174 1107 q 87 1042 152 1042 m 87 1128 q 87 1215 87 1150 q 174 1215 109 1215 q 174 1128 174 1194 q 87 1128 152 1128 m 0 1128 q 0 1215 0 1150 q 87 1215 22 1215 q 87 1128 87 1194 q 0 1128 65 1128 m 260 1042 q 260 1128 260 1063 q 347 1128 282 1128 q 347 1042 347 1107 q 260 1042 326 1042 m 347 1042 q 347 1128 347 1063 q 434 1128 369 1128 q 434 1042 434 1107 q 347 1042 412 1042 m 260 1128 q 260 1215 260 1150 q 347 1215 282 1215 q 347 1128 347 1194 q 260 1128 326 1128 m 347 1128 q 347 1215 347 1150 q 434 1215 369 1215 q 434 1128 434 1194 q 347 1128 412 1128 m 434 1042 q 434 1128 434 1063 q 521 1128 456 1128 q 521 1042 521 1107 q 434 1042 499 1042 m 0 955 q 0 1042 0 977 q 87 1042 22 1042 q 87 955 87 1020 q 0 955 65 955 z "},"":{"ha":1042,"x_min":-87,"x_max":955,"o":"m 87 0 q 87 87 87 22 q 87 174 87 109 q 87 260 87 195 q 87 347 87 282 q 0 347 65 347 q -87 347 -22 347 q -87 434 -87 369 q -87 521 -87 456 q -87 608 -87 543 q 0 608 -65 608 q 0 521 0 586 q 87 521 22 521 q 87 608 87 543 q 87 694 87 629 q 87 781 87 716 q 0 781 65 781 q 0 868 0 803 q 87 868 22 868 q 87 955 87 890 q 174 955 109 955 q 174 1042 174 977 q 260 1042 195 1042 q 260 955 260 1020 q 347 955 282 955 q 347 868 347 933 q 434 868 369 868 q 434 955 434 890 q 521 955 456 955 q 521 1042 521 977 q 608 1042 543 1042 q 608 955 608 1020 q 694 955 629 955 q 781 955 716 955 q 781 868 781 933 q 868 868 803 868 q 868 781 868 846 q 868 694 868 760 q 955 694 890 694 q 955 608 955 673 q 955 521 955 586 q 955 434 955 499 q 955 347 955 412 q 868 347 933 347 q 868 260 868 326 q 868 174 868 239 q 781 174 846 174 q 781 87 781 152 q 694 87 760 87 q 608 87 673 87 q 608 0 608 65 q 521 0 586 0 q 434 0 499 0 q 347 0 412 0 q 260 0 326 0 q 260 87 260 22 q 347 87 282 87 q 434 87 369 87 q 521 87 456 87 q 608 87 543 87 q 608 174 608 109 q 694 174 629 174 q 694 260 694 195 q 781 260 716 260 q 781 347 781 282 q 781 434 781 369 q 781 521 781 456 q 694 521 760 521 q 694 608 694 543 q 694 694 694 629 q 608 694 673 694 q 608 781 608 716 q 521 781 586 781 q 434 781 499 781 q 347 781 412 781 q 347 868 347 803 q 260 868 326 868 q 260 781 260 846 q 260 694 260 760 q 260 608 260 673 q 174 608 239 608 q 174 521 174 586 q 260 521 195 521 q 347 521 282 521 q 347 434 347 499 q 260 434 326 434 q 174 434 239 434 q 174 347 174 412 q 174 260 174 326 q 174 174 174 239 q 174 87 174 152 q 174 0 174 65 q 87 0 152 0 m 434 434 q 434 521 434 456 q 521 521 456 521 q 521 434 521 499 q 434 434 499 434 z "},"":{"ha":1042,"x_min":0,"x_max":955,"o":"m 608 -87 q 608 0 608 -65 q 694 0 629 0 q 694 -87 694 -22 q 608 -87 673 -87 m 0 0 q 0 87 0 22 q 0 174 0 109 q 87 174 22 174 q 87 87 87 152 q 87 0 87 65 q 0 0 65 0 m 608 174 q 608 260 608 195 q 694 260 629 260 q 694 174 694 239 q 608 174 673 174 m 521 347 q 521 434 521 369 q 521 521 521 456 q 608 521 543 521 q 608 434 608 499 q 608 347 608 412 q 521 347 586 347 m 694 0 q 694 87 694 22 q 781 87 716 87 q 781 0 781 65 q 694 0 760 0 m 781 87 q 781 174 781 109 q 781 260 781 195 q 781 347 781 282 q 781 434 781 369 q 781 521 781 456 q 781 608 781 543 q 694 608 760 608 q 694 694 694 629 q 694 781 694 716 q 608 781 673 781 q 608 868 608 803 q 608 955 608 890 q 694 955 629 955 q 781 955 716 955 q 781 1042 781 977 q 868 1042 803 1042 q 868 955 868 1020 q 868 868 868 933 q 955 868 890 868 q 955 781 955 846 q 955 694 955 760 q 955 608 955 673 q 955 521 955 586 q 955 434 955 499 q 955 347 955 412 q 955 260 955 326 q 868 260 933 260 q 868 174 868 239 q 868 87 868 152 q 781 87 846 87 m 87 174 q 87 260 87 195 q 87 347 87 282 q 87 434 87 369 q 87 521 87 456 q 0 521 65 521 q 0 608 0 543 q 0 694 0 629 q 0 781 0 716 q 0 868 0 803 q 87 868 22 868 q 87 955 87 890 q 174 955 109 955 q 174 1042 174 977 q 260 1042 195 1042 q 260 955 260 1020 q 347 955 282 955 q 347 868 347 933 q 434 868 369 868 q 434 781 434 846 q 434 694 434 760 q 521 694 456 694 q 521 608 521 673 q 521 521 521 586 q 434 521 499 521 q 434 608 434 543 q 347 608 412 608 q 347 694 347 629 q 260 694 326 694 q 174 694 239 694 q 174 608 174 673 q 260 608 195 608 q 260 521 260 586 q 260 434 260 499 q 260 347 260 412 q 174 347 239 347 q 174 260 174 326 q 174 174 174 239 q 87 174 152 174 m 434 1128 q 434 1215 434 1150 q 521 1215 456 1215 q 521 1128 521 1194 q 434 1128 499 1128 m 521 1128 q 521 1215 521 1150 q 608 1215 543 1215 q 608 1128 608 1194 q 521 1128 586 1128 m 608 1215 q 608 1302 608 1237 q 694 1302 629 1302 q 694 1215 694 1280 q 608 1215 673 1215 m 347 1215 q 347 1302 347 1237 q 434 1302 369 1302 q 434 1215 434 1280 q 347 1215 412 1215 m 260 1215 q 260 1302 260 1237 q 347 1302 282 1302 q 347 1215 347 1280 q 260 1215 326 1215 m 260 1128 q 260 1215 260 1150 q 347 1215 282 1215 q 347 1128 347 1194 q 260 1128 326 1128 m 174 1128 q 174 1215 174 1150 q 260 1215 195 1215 q 260 1128 260 1194 q 174 1128 239 1128 m 174 1215 q 174 1302 174 1237 q 260 1302 195 1302 q 260 1215 260 1280 q 174 1215 239 1215 z "},"":{"ha":1042,"x_min":0,"x_max":955,"o":"m 521 -87 q 521 0 521 -65 q 434 0 499 0 q 347 0 412 0 q 260 0 326 0 q 260 87 260 22 q 174 87 239 87 q 174 174 174 109 q 87 174 152 174 q 87 260 87 195 q 87 347 87 282 q 0 347 65 347 q 0 434 0 369 q 0 521 0 456 q 0 608 0 543 q 0 694 0 629 q 87 694 22 694 q 87 781 87 716 q 174 781 109 781 q 174 868 174 803 q 260 868 195 868 q 260 955 260 890 q 347 955 282 955 q 434 955 369 955 q 434 1042 434 977 q 521 1042 456 1042 q 608 1042 543 1042 q 694 1042 629 1042 q 781 1042 716 1042 q 868 1042 803 1042 q 868 955 868 1020 q 955 955 890 955 q 955 868 955 933 q 955 781 955 846 q 868 781 933 781 q 868 694 868 760 q 781 694 846 694 q 694 694 760 694 q 694 781 694 716 q 608 781 673 781 q 521 781 586 781 q 434 781 499 781 q 347 781 412 781 q 347 694 347 760 q 260 694 326 694 q 260 608 260 673 q 174 608 239 608 q 174 521 174 586 q 174 434 174 499 q 260 434 195 434 q 260 347 260 412 q 260 260 260 326 q 260 174 260 239 q 347 174 282 174 q 434 174 369 174 q 434 87 434 152 q 521 87 456 87 q 608 87 543 87 q 694 87 629 87 q 694 174 694 109 q 781 174 716 174 q 781 260 781 195 q 868 260 803 260 q 868 174 868 239 q 868 87 868 152 q 781 87 846 87 q 781 0 781 65 q 694 0 760 0 q 608 0 673 0 q 608 -87 608 -22 q 521 -87 586 -87 m 868 521 q 868 608 868 543 q 955 608 890 608 q 955 521 955 586 q 868 521 933 521 m 868 260 q 868 347 868 282 q 868 434 868 369 q 955 434 890 434 q 955 347 955 412 q 955 260 955 326 q 868 260 933 260 m 608 1042 q 608 1128 608 1063 q 694 1128 629 1128 q 694 1042 694 1107 q 608 1042 673 1042 m 434 1128 q 434 1215 434 1150 q 521 1215 456 1215 q 521 1128 521 1194 q 434 1128 499 1128 m 521 1128 q 521 1215 521 1150 q 608 1215 543 1215 q 608 1128 608 1194 q 521 1128 586 1128 m 521 1215 q 521 1302 521 1237 q 608 1302 543 1302 q 608 1215 608 1280 q 521 1215 586 1215 m 434 1215 q 434 1302 434 1237 q 521 1302 456 1302 q 521 1215 521 1280 q 434 1215 499 1215 m 347 1215 q 347 1302 347 1237 q 434 1302 369 1302 q 434 1215 434 1280 q 347 1215 412 1215 z "},"":{"ha":1042,"x_min":0,"x_max":955,"o":"m 521 -87 q 521 0 521 -65 q 434 0 499 0 q 347 0 412 0 q 260 0 326 0 q 260 87 260 22 q 174 87 239 87 q 174 174 174 109 q 87 174 152 174 q 87 260 87 195 q 87 347 87 282 q 0 347 65 347 q 0 434 0 369 q 0 521 0 456 q 0 608 0 543 q 0 694 0 629 q 87 694 22 694 q 87 781 87 716 q 174 781 109 781 q 174 868 174 803 q 260 868 195 868 q 260 955 260 890 q 347 955 282 955 q 434 955 369 955 q 434 1042 434 977 q 521 1042 456 1042 q 608 1042 543 1042 q 694 1042 629 1042 q 781 1042 716 1042 q 868 1042 803 1042 q 868 955 868 1020 q 955 955 890 955 q 955 868 955 933 q 955 781 955 846 q 868 781 933 781 q 868 694 868 760 q 781 694 846 694 q 694 694 760 694 q 694 781 694 716 q 608 781 673 781 q 521 781 586 781 q 434 781 499 781 q 347 781 412 781 q 347 694 347 760 q 260 694 326 694 q 260 608 260 673 q 174 608 239 608 q 174 521 174 586 q 174 434 174 499 q 260 434 195 434 q 260 347 260 412 q 260 260 260 326 q 260 174 260 239 q 347 174 282 174 q 434 174 369 174 q 434 87 434 152 q 521 87 456 87 q 608 87 543 87 q 694 87 629 87 q 694 174 694 109 q 781 174 716 174 q 781 260 781 195 q 868 260 803 260 q 868 174 868 239 q 868 87 868 152 q 781 87 846 87 q 781 0 781 65 q 694 0 760 0 q 608 0 673 0 q 608 -87 608 -22 q 521 -87 586 -87 m 868 521 q 868 608 868 543 q 955 608 890 608 q 955 521 955 586 q 868 521 933 521 m 868 260 q 868 347 868 282 q 868 434 868 369 q 955 434 890 434 q 955 347 955 412 q 955 260 955 326 q 868 260 933 260 m 347 1042 q 347 1128 347 1063 q 434 1128 369 1128 q 434 1042 434 1107 q 347 1042 412 1042 m 434 1128 q 434 1215 434 1150 q 521 1215 456 1215 q 521 1128 521 1194 q 434 1128 499 1128 m 521 1128 q 521 1215 521 1150 q 608 1215 543 1215 q 608 1128 608 1194 q 521 1128 586 1128 m 521 1215 q 521 1302 521 1237 q 608 1302 543 1302 q 608 1215 608 1280 q 521 1215 586 1215 m 434 1215 q 434 1302 434 1237 q 521 1302 456 1302 q 521 1215 521 1280 q 434 1215 499 1215 m 608 1215 q 608 1302 608 1237 q 694 1302 629 1302 q 694 1215 694 1280 q 608 1215 673 1215 z "},"":{"ha":1042,"x_min":0,"x_max":955,"o":"m 521 -87 q 521 0 521 -65 q 434 0 499 0 q 347 0 412 0 q 260 0 326 0 q 260 87 260 22 q 174 87 239 87 q 174 174 174 109 q 87 174 152 174 q 87 260 87 195 q 87 347 87 282 q 0 347 65 347 q 0 434 0 369 q 0 521 0 456 q 0 608 0 543 q 0 694 0 629 q 87 694 22 694 q 87 781 87 716 q 174 781 109 781 q 174 868 174 803 q 260 868 195 868 q 260 955 260 890 q 347 955 282 955 q 434 955 369 955 q 434 1042 434 977 q 521 1042 456 1042 q 608 1042 543 1042 q 694 1042 629 1042 q 781 1042 716 1042 q 868 1042 803 1042 q 868 955 868 1020 q 955 955 890 955 q 955 868 955 933 q 955 781 955 846 q 868 781 933 781 q 868 694 868 760 q 781 694 846 694 q 694 694 760 694 q 694 781 694 716 q 608 781 673 781 q 521 781 586 781 q 434 781 499 781 q 347 781 412 781 q 347 694 347 760 q 260 694 326 694 q 260 608 260 673 q 174 608 239 608 q 174 521 174 586 q 174 434 174 499 q 260 434 195 434 q 260 347 260 412 q 260 260 260 326 q 260 174 260 239 q 347 174 282 174 q 434 174 369 174 q 434 87 434 152 q 521 87 456 87 q 608 87 543 87 q 694 87 629 87 q 694 174 694 109 q 781 174 716 174 q 781 260 781 195 q 868 260 803 260 q 868 174 868 239 q 868 87 868 152 q 781 87 846 87 q 781 0 781 65 q 694 0 760 0 q 608 0 673 0 q 608 -87 608 -22 q 521 -87 586 -87 m 868 521 q 868 608 868 543 q 955 608 890 608 q 955 521 955 586 q 868 521 933 521 m 868 260 q 868 347 868 282 q 868 434 868 369 q 955 434 890 434 q 955 347 955 412 q 955 260 955 326 q 868 260 933 260 m 434 1128 q 434 1215 434 1150 q 521 1215 456 1215 q 521 1128 521 1194 q 434 1128 499 1128 m 521 1215 q 521 1302 521 1237 q 608 1302 543 1302 q 608 1215 608 1280 q 521 1215 586 1215 m 694 1128 q 694 1215 694 1150 q 781 1215 716 1215 q 781 1128 781 1194 q 694 1128 760 1128 m 608 1215 q 608 1302 608 1237 q 694 1302 629 1302 q 694 1215 694 1280 q 608 1215 673 1215 m 434 1215 q 434 1302 434 1237 q 521 1302 456 1302 q 521 1215 521 1280 q 434 1215 499 1215 m 347 1128 q 347 1215 347 1150 q 434 1215 369 1215 q 434 1128 434 1194 q 347 1128 412 1128 z "},"":{"ha":1042,"x_min":0,"x_max":955,"o":"m 521 -87 q 521 0 521 -65 q 434 0 499 0 q 347 0 412 0 q 260 0 326 0 q 260 87 260 22 q 174 87 239 87 q 174 174 174 109 q 87 174 152 174 q 87 260 87 195 q 87 347 87 282 q 0 347 65 347 q 0 434 0 369 q 0 521 0 456 q 0 608 0 543 q 0 694 0 629 q 87 694 22 694 q 87 781 87 716 q 174 781 109 781 q 174 868 174 803 q 260 868 195 868 q 260 955 260 890 q 347 955 282 955 q 434 955 369 955 q 434 1042 434 977 q 521 1042 456 1042 q 608 1042 543 1042 q 694 1042 629 1042 q 781 1042 716 1042 q 868 1042 803 1042 q 868 955 868 1020 q 955 955 890 955 q 955 868 955 933 q 955 781 955 846 q 868 781 933 781 q 868 694 868 760 q 781 694 846 694 q 694 694 760 694 q 694 781 694 716 q 608 781 673 781 q 521 781 586 781 q 434 781 499 781 q 347 781 412 781 q 347 694 347 760 q 260 694 326 694 q 260 608 260 673 q 174 608 239 608 q 174 521 174 586 q 174 434 174 499 q 260 434 195 434 q 260 347 260 412 q 260 260 260 326 q 260 174 260 239 q 347 174 282 174 q 434 174 369 174 q 434 87 434 152 q 521 87 456 87 q 608 87 543 87 q 694 87 629 87 q 694 174 694 109 q 781 174 716 174 q 781 260 781 195 q 868 260 803 260 q 868 174 868 239 q 868 87 868 152 q 781 87 846 87 q 781 0 781 65 q 694 0 760 0 q 608 0 673 0 q 608 -87 608 -22 q 521 -87 586 -87 m 868 521 q 868 608 868 543 q 955 608 890 608 q 955 521 955 586 q 868 521 933 521 m 868 260 q 868 347 868 282 q 868 434 868 369 q 955 434 890 434 q 955 347 955 412 q 955 260 955 326 q 868 260 933 260 m 521 1215 q 521 1302 521 1237 q 608 1302 543 1302 q 608 1215 608 1280 q 521 1215 586 1215 m 608 1128 q 608 1215 608 1150 q 694 1215 629 1215 q 694 1128 694 1194 q 608 1128 673 1128 m 694 1128 q 694 1215 694 1150 q 781 1215 716 1215 q 781 1128 781 1194 q 694 1128 760 1128 m 781 1215 q 781 1302 781 1237 q 868 1302 803 1302 q 868 1215 868 1280 q 781 1215 846 1215 m 434 1128 q 434 1215 434 1150 q 521 1215 456 1215 q 521 1128 521 1194 q 434 1128 499 1128 m 434 1215 q 434 1302 434 1237 q 521 1302 456 1302 q 521 1215 521 1280 q 434 1215 499 1215 m 521 1128 q 521 1215 521 1150 q 608 1215 543 1215 q 608 1128 608 1194 q 521 1128 586 1128 m 347 1128 q 347 1215 347 1150 q 434 1215 369 1215 q 434 1128 434 1194 q 347 1128 412 1128 z "},"":{"ha":1042,"x_min":0,"x_max":955,"o":"m 521 -87 q 521 0 521 -65 q 434 0 499 0 q 347 0 412 0 q 260 0 326 0 q 260 87 260 22 q 174 87 239 87 q 174 174 174 109 q 87 174 152 174 q 87 260 87 195 q 87 347 87 282 q 0 347 65 347 q 0 434 0 369 q 0 521 0 456 q 0 608 0 543 q 0 694 0 629 q 87 694 22 694 q 87 781 87 716 q 174 781 109 781 q 174 868 174 803 q 260 868 195 868 q 260 955 260 890 q 347 955 282 955 q 434 955 369 955 q 434 1042 434 977 q 521 1042 456 1042 q 608 1042 543 1042 q 694 1042 629 1042 q 781 1042 716 1042 q 868 1042 803 1042 q 868 955 868 1020 q 955 955 890 955 q 955 868 955 933 q 955 781 955 846 q 868 781 933 781 q 868 694 868 760 q 781 694 846 694 q 694 694 760 694 q 694 781 694 716 q 608 781 673 781 q 521 781 586 781 q 434 781 499 781 q 347 781 412 781 q 347 694 347 760 q 260 694 326 694 q 260 608 260 673 q 174 608 239 608 q 174 521 174 586 q 174 434 174 499 q 260 434 195 434 q 260 347 260 412 q 260 260 260 326 q 260 174 260 239 q 347 174 282 174 q 434 174 369 174 q 434 87 434 152 q 521 87 456 87 q 608 87 543 87 q 694 87 629 87 q 694 174 694 109 q 781 174 716 174 q 781 260 781 195 q 868 260 803 260 q 868 174 868 239 q 868 87 868 152 q 781 87 846 87 q 781 0 781 65 q 694 0 760 0 q 608 0 673 0 q 608 -87 608 -22 q 521 -87 586 -87 m 868 521 q 868 608 868 543 q 955 608 890 608 q 955 521 955 586 q 868 521 933 521 m 868 260 q 868 347 868 282 q 868 434 868 369 q 955 434 890 434 q 955 347 955 412 q 955 260 955 326 q 868 260 933 260 m 694 1215 q 694 1302 694 1237 q 781 1302 716 1302 q 781 1215 781 1280 q 694 1215 760 1215 m 694 1128 q 694 1215 694 1150 q 781 1215 716 1215 q 781 1128 781 1194 q 694 1128 760 1128 m 608 1128 q 608 1215 608 1150 q 694 1215 629 1215 q 694 1128 694 1194 q 608 1128 673 1128 m 608 1215 q 608 1302 608 1237 q 694 1302 629 1302 q 694 1215 694 1280 q 608 1215 673 1215 m 347 1215 q 347 1302 347 1237 q 434 1302 369 1302 q 434 1215 434 1280 q 347 1215 412 1215 m 347 1128 q 347 1215 347 1150 q 434 1215 369 1215 q 434 1128 434 1194 q 347 1128 412 1128 m 260 1128 q 260 1215 260 1150 q 347 1215 282 1215 q 347 1128 347 1194 q 260 1128 326 1128 m 260 1042 q 260 1128 260 1063 q 347 1128 282 1128 q 347 1042 347 1107 q 260 1042 326 1042 m 260 1215 q 260 1302 260 1237 q 347 1302 282 1302 q 347 1215 347 1280 q 260 1215 326 1215 z "},"":{"ha":781,"x_min":87,"x_max":694,"o":"m 608 174 q 608 260 608 195 q 694 260 629 260 q 694 174 694 239 q 608 174 673 174 m 87 174 q 87 260 87 195 q 174 260 109 260 q 174 174 174 239 q 87 174 152 174 m 434 347 q 434 434 434 369 q 347 434 412 434 q 347 347 347 412 q 260 347 326 347 q 260 260 260 326 q 174 260 239 260 q 174 347 174 282 q 260 347 195 347 q 260 434 260 369 q 347 434 282 434 q 347 521 347 456 q 434 521 369 521 q 434 608 434 543 q 434 694 434 629 q 521 694 456 694 q 521 781 521 716 q 521 868 521 803 q 608 868 543 868 q 608 781 608 846 q 694 781 629 781 q 694 694 694 760 q 694 608 694 673 q 608 608 673 608 q 608 521 608 586 q 521 521 586 521 q 521 434 521 499 q 521 347 521 412 q 434 347 499 347 m 347 521 q 260 521 326 521 q 260 608 260 543 q 174 608 239 608 q 87 608 152 608 q 87 694 87 629 q 87 781 87 716 q 174 781 109 781 q 174 868 174 803 q 260 868 195 868 q 260 781 260 846 q 260 694 260 760 q 347 694 282 694 q 347 608 347 673 q 347 521 347 586 z "},"":{"ha":1215,"x_min":87,"x_max":1128,"o":"m 87 0 q 87 87 87 22 q 174 87 109 87 q 174 0 174 65 q 87 0 152 0 m 521 87 q 608 87 543 87 q 608 0 608 65 q 521 0 586 0 q 434 0 499 0 q 347 0 412 0 q 347 87 347 22 q 434 87 369 87 q 521 87 456 87 m 608 87 q 608 174 608 109 q 694 174 629 174 q 694 260 694 195 q 781 260 716 260 q 781 347 781 282 q 781 434 781 369 q 868 434 803 434 q 868 521 868 456 q 868 608 868 543 q 868 694 868 629 q 955 694 890 694 q 955 781 955 716 q 1042 781 977 781 q 1042 694 1042 760 q 1128 694 1063 694 q 1128 608 1128 673 q 1042 608 1107 608 q 1042 521 1042 586 q 1042 434 1042 499 q 1042 347 1042 412 q 955 347 1020 347 q 955 260 955 326 q 955 174 955 239 q 868 174 933 174 q 781 174 846 174 q 781 87 781 152 q 694 87 760 87 q 608 87 673 87 m 347 87 q 260 87 326 87 q 260 174 260 109 q 174 174 239 174 q 174 260 174 195 q 260 260 195 260 q 347 260 282 260 q 347 174 347 239 q 347 87 347 152 m 347 260 q 347 347 347 282 q 347 434 347 369 q 434 434 369 434 q 434 521 434 456 q 521 521 456 521 q 521 608 521 543 q 608 608 543 608 q 608 694 608 629 q 694 694 629 694 q 694 781 694 716 q 781 781 716 781 q 781 868 781 803 q 781 955 781 890 q 868 955 803 955 q 868 1042 868 977 q 955 1042 890 1042 q 1042 1042 977 1042 q 1042 955 1042 1020 q 1042 868 1042 933 q 955 868 1020 868 q 955 781 955 846 q 868 781 933 781 q 868 694 868 760 q 781 694 846 694 q 781 608 781 673 q 694 608 760 608 q 694 521 694 586 q 608 521 673 521 q 608 434 608 499 q 521 434 586 434 q 521 347 521 412 q 434 347 499 347 q 434 260 434 326 q 347 260 412 260 m 174 260 q 87 260 152 260 q 87 347 87 282 q 87 434 87 369 q 87 521 87 456 q 87 608 87 543 q 87 694 87 629 q 87 781 87 716 q 174 781 109 781 q 174 868 174 803 q 260 868 195 868 q 260 955 260 890 q 347 955 282 955 q 347 1042 347 977 q 434 1042 369 1042 q 521 1042 456 1042 q 608 1042 543 1042 q 694 1042 629 1042 q 781 1042 716 1042 q 781 955 781 1020 q 694 955 760 955 q 694 868 694 933 q 694 781 694 846 q 608 781 673 781 q 608 868 608 803 q 521 868 586 868 q 434 868 499 868 q 434 781 434 846 q 347 781 412 781 q 260 781 326 781 q 260 694 260 760 q 260 608 260 673 q 174 608 239 608 q 174 521 174 586 q 174 434 174 499 q 174 347 174 412 q 174 260 174 326 z "},"":{"ha":1042,"x_min":0,"x_max":955,"o":"m 694 -87 q 694 0 694 -65 q 781 0 716 0 q 781 -87 781 -22 q 694 -87 760 -87 m 781 0 q 781 87 781 22 q 694 87 760 87 q 694 0 694 65 q 608 0 673 0 q 521 0 586 0 q 434 0 499 0 q 347 0 412 0 q 347 87 347 22 q 260 87 326 87 q 174 87 239 87 q 174 174 174 109 q 174 260 174 195 q 87 260 152 260 q 87 347 87 282 q 87 434 87 369 q 0 434 65 434 q 0 521 0 456 q 0 608 0 543 q 0 694 0 629 q 0 781 0 716 q 0 868 0 803 q 87 868 22 868 q 87 955 87 890 q 174 955 109 955 q 260 955 195 955 q 260 868 260 933 q 347 868 282 868 q 347 781 347 846 q 347 694 347 760 q 260 694 326 694 q 260 608 260 673 q 260 521 260 586 q 260 434 260 499 q 260 347 260 412 q 260 260 260 326 q 347 260 282 260 q 347 174 347 239 q 434 174 369 174 q 434 87 434 152 q 521 87 456 87 q 608 87 543 87 q 694 87 629 87 q 694 174 694 109 q 781 174 716 174 q 781 260 781 195 q 781 347 781 282 q 781 434 781 369 q 781 521 781 456 q 781 608 781 543 q 694 608 760 608 q 694 694 694 629 q 694 781 694 716 q 608 781 673 781 q 608 868 608 803 q 694 868 629 868 q 694 955 694 890 q 781 955 716 955 q 781 1042 781 977 q 868 1042 803 1042 q 868 955 868 1020 q 955 955 890 955 q 955 868 955 933 q 955 781 955 846 q 955 694 955 760 q 955 608 955 673 q 955 521 955 586 q 955 434 955 499 q 955 347 955 412 q 955 260 955 326 q 955 174 955 239 q 955 87 955 152 q 868 87 933 87 q 868 0 868 65 q 781 0 846 0 m 434 1042 q 434 1128 434 1063 q 521 1128 456 1128 q 521 1042 521 1107 q 434 1042 499 1042 m 434 1128 q 434 1215 434 1150 q 521 1215 456 1215 q 521 1128 521 1194 q 434 1128 499 1128 m 521 955 q 521 1042 521 977 q 608 1042 543 1042 q 608 955 608 1020 q 521 955 586 955 m 347 1042 q 347 1128 347 1063 q 434 1128 369 1128 q 434 1042 434 1107 q 347 1042 412 1042 m 347 1128 q 347 1215 347 1150 q 434 1215 369 1215 q 434 1128 434 1194 q 347 1128 412 1128 m 347 1215 q 347 1302 347 1237 q 434 1302 369 1302 q 434 1215 434 1280 q 347 1215 412 1215 m 260 1128 q 260 1215 260 1150 q 347 1215 282 1215 q 347 1128 347 1194 q 260 1128 326 1128 z "},"":{"ha":1042,"x_min":0,"x_max":955,"o":"m 694 -87 q 694 0 694 -65 q 781 0 716 0 q 781 -87 781 -22 q 694 -87 760 -87 m 781 0 q 781 87 781 22 q 694 87 760 87 q 694 0 694 65 q 608 0 673 0 q 521 0 586 0 q 434 0 499 0 q 347 0 412 0 q 347 87 347 22 q 260 87 326 87 q 174 87 239 87 q 174 174 174 109 q 174 260 174 195 q 87 260 152 260 q 87 347 87 282 q 87 434 87 369 q 0 434 65 434 q 0 521 0 456 q 0 608 0 543 q 0 694 0 629 q 0 781 0 716 q 0 868 0 803 q 87 868 22 868 q 87 955 87 890 q 174 955 109 955 q 260 955 195 955 q 260 868 260 933 q 347 868 282 868 q 347 781 347 846 q 347 694 347 760 q 260 694 326 694 q 260 608 260 673 q 260 521 260 586 q 260 434 260 499 q 260 347 260 412 q 260 260 260 326 q 347 260 282 260 q 347 174 347 239 q 434 174 369 174 q 434 87 434 152 q 521 87 456 87 q 608 87 543 87 q 694 87 629 87 q 694 174 694 109 q 781 174 716 174 q 781 260 781 195 q 781 347 781 282 q 781 434 781 369 q 781 521 781 456 q 781 608 781 543 q 694 608 760 608 q 694 694 694 629 q 694 781 694 716 q 608 781 673 781 q 608 868 608 803 q 694 868 629 868 q 694 955 694 890 q 781 955 716 955 q 781 1042 781 977 q 868 1042 803 1042 q 868 955 868 1020 q 955 955 890 955 q 955 868 955 933 q 955 781 955 846 q 955 694 955 760 q 955 608 955 673 q 955 521 955 586 q 955 434 955 499 q 955 347 955 412 q 955 260 955 326 q 955 174 955 239 q 955 87 955 152 q 868 87 933 87 q 868 0 868 65 q 781 0 846 0 m 347 955 q 347 1042 347 977 q 434 1042 369 1042 q 434 955 434 1020 q 347 955 412 955 m 434 1042 q 434 1128 434 1063 q 521 1128 456 1128 q 521 1042 521 1107 q 434 1042 499 1042 m 521 1128 q 521 1215 521 1150 q 608 1215 543 1215 q 608 1128 608 1194 q 521 1128 586 1128 m 434 1128 q 434 1215 434 1150 q 521 1215 456 1215 q 521 1128 521 1194 q 434 1128 499 1128 m 521 1042 q 521 1128 521 1063 q 608 1128 543 1128 q 608 1042 608 1107 q 521 1042 586 1042 z "},"":{"ha":1042,"x_min":0,"x_max":955,"o":"m 694 -87 q 694 0 694 -65 q 781 0 716 0 q 781 -87 781 -22 q 694 -87 760 -87 m 781 0 q 781 87 781 22 q 694 87 760 87 q 694 0 694 65 q 608 0 673 0 q 521 0 586 0 q 434 0 499 0 q 347 0 412 0 q 347 87 347 22 q 260 87 326 87 q 174 87 239 87 q 174 174 174 109 q 174 260 174 195 q 87 260 152 260 q 87 347 87 282 q 87 434 87 369 q 0 434 65 434 q 0 521 0 456 q 0 608 0 543 q 0 694 0 629 q 0 781 0 716 q 0 868 0 803 q 87 868 22 868 q 87 955 87 890 q 174 955 109 955 q 260 955 195 955 q 260 868 260 933 q 347 868 282 868 q 347 781 347 846 q 347 694 347 760 q 260 694 326 694 q 260 608 260 673 q 260 521 260 586 q 260 434 260 499 q 260 347 260 412 q 260 260 260 326 q 347 260 282 260 q 347 174 347 239 q 434 174 369 174 q 434 87 434 152 q 521 87 456 87 q 608 87 543 87 q 694 87 629 87 q 694 174 694 109 q 781 174 716 174 q 781 260 781 195 q 781 347 781 282 q 781 434 781 369 q 781 521 781 456 q 781 608 781 543 q 694 608 760 608 q 694 694 694 629 q 694 781 694 716 q 608 781 673 781 q 608 868 608 803 q 694 868 629 868 q 694 955 694 890 q 781 955 716 955 q 781 1042 781 977 q 868 1042 803 1042 q 868 955 868 1020 q 955 955 890 955 q 955 868 955 933 q 955 781 955 846 q 955 694 955 760 q 955 608 955 673 q 955 521 955 586 q 955 434 955 499 q 955 347 955 412 q 955 260 955 326 q 955 174 955 239 q 955 87 955 152 q 868 87 933 87 q 868 0 868 65 q 781 0 846 0 m 347 1042 q 347 1128 347 1063 q 434 1128 369 1128 q 434 1042 434 1107 q 347 1042 412 1042 m 347 955 q 347 1042 347 977 q 434 1042 369 1042 q 434 955 434 1020 q 347 955 412 955 m 260 1042 q 260 1128 260 1063 q 347 1128 282 1128 q 347 1042 347 1107 q 260 1042 326 1042 m 434 1042 q 434 1128 434 1063 q 521 1128 456 1128 q 521 1042 521 1107 q 434 1042 499 1042 m 434 1128 q 434 1215 434 1150 q 521 1215 456 1215 q 521 1128 521 1194 q 434 1128 499 1128 m 521 1128 q 521 1215 521 1150 q 608 1215 543 1215 q 608 1128 608 1194 q 521 1128 586 1128 m 608 1042 q 608 1128 608 1063 q 694 1128 629 1128 q 694 1042 694 1107 q 608 1042 673 1042 m 347 1128 q 347 1215 347 1150 q 434 1215 369 1215 q 434 1128 434 1194 q 347 1128 412 1128 m 434 1215 q 434 1302 434 1237 q 521 1302 456 1302 q 521 1215 521 1280 q 434 1215 499 1215 z "},"":{"ha":1042,"x_min":0,"x_max":955,"o":"m 347 1042 q 347 1128 347 1063 q 434 1128 369 1128 q 434 1042 434 1107 q 347 1042 412 1042 m 694 -87 q 694 0 694 -65 q 781 0 716 0 q 781 -87 781 -22 q 694 -87 760 -87 m 781 0 q 781 87 781 22 q 694 87 760 87 q 694 0 694 65 q 608 0 673 0 q 521 0 586 0 q 434 0 499 0 q 347 0 412 0 q 347 87 347 22 q 260 87 326 87 q 174 87 239 87 q 174 174 174 109 q 174 260 174 195 q 87 260 152 260 q 87 347 87 282 q 87 434 87 369 q 0 434 65 434 q 0 521 0 456 q 0 608 0 543 q 0 694 0 629 q 0 781 0 716 q 0 868 0 803 q 87 868 22 868 q 87 955 87 890 q 174 955 109 955 q 260 955 195 955 q 260 868 260 933 q 347 868 282 868 q 347 781 347 846 q 347 694 347 760 q 260 694 326 694 q 260 608 260 673 q 260 521 260 586 q 260 434 260 499 q 260 347 260 412 q 260 260 260 326 q 347 260 282 260 q 347 174 347 239 q 434 174 369 174 q 434 87 434 152 q 521 87 456 87 q 608 87 543 87 q 694 87 629 87 q 694 174 694 109 q 781 174 716 174 q 781 260 781 195 q 781 347 781 282 q 781 434 781 369 q 781 521 781 456 q 781 608 781 543 q 694 608 760 608 q 694 694 694 629 q 694 781 694 716 q 608 781 673 781 q 608 868 608 803 q 694 868 629 868 q 694 955 694 890 q 781 955 716 955 q 781 1042 781 977 q 868 1042 803 1042 q 868 955 868 1020 q 955 955 890 955 q 955 868 955 933 q 955 781 955 846 q 955 694 955 760 q 955 608 955 673 q 955 521 955 586 q 955 434 955 499 q 955 347 955 412 q 955 260 955 326 q 955 174 955 239 q 955 87 955 152 q 868 87 933 87 q 868 0 868 65 q 781 0 846 0 m 260 1042 q 260 1128 260 1063 q 347 1128 282 1128 q 347 1042 347 1107 q 260 1042 326 1042 m 347 1128 q 347 1215 347 1150 q 434 1215 369 1215 q 434 1128 434 1194 q 347 1128 412 1128 m 260 1128 q 260 1215 260 1150 q 347 1215 282 1215 q 347 1128 347 1194 q 260 1128 326 1128 m 174 1042 q 174 1128 174 1063 q 260 1128 195 1128 q 260 1042 260 1107 q 174 1042 239 1042 m 521 955 q 521 1042 521 977 q 608 1042 543 1042 q 608 955 608 1020 q 521 955 586 955 m 521 1042 q 521 1128 521 1063 q 608 1128 543 1128 q 608 1042 608 1107 q 521 1042 586 1042 m 608 1042 q 608 1128 608 1063 q 694 1128 629 1128 q 694 1042 694 1107 q 608 1042 673 1042 m 608 1128 q 608 1215 608 1150 q 694 1215 629 1215 q 694 1128 694 1194 q 608 1128 673 1128 m 521 1128 q 521 1215 521 1150 q 608 1215 543 1215 q 608 1128 608 1194 q 521 1128 586 1128 z "},"":{"ha":955,"x_min":0,"x_max":868,"o":"m 260 1042 q 260 1128 260 1063 q 347 1128 282 1128 q 347 1042 347 1107 q 260 1042 326 1042 m 347 1215 q 347 1302 347 1237 q 434 1302 369 1302 q 434 1215 434 1280 q 347 1215 412 1215 m 434 1215 q 434 1302 434 1237 q 521 1302 456 1302 q 521 1215 521 1280 q 434 1215 499 1215 m 434 1128 q 434 1215 434 1150 q 521 1215 456 1215 q 521 1128 521 1194 q 434 1128 499 1128 m 347 1128 q 347 1215 347 1150 q 434 1215 369 1215 q 434 1128 434 1194 q 347 1128 412 1128 m 434 0 q 434 87 434 22 q 434 174 434 109 q 434 260 434 195 q 434 347 434 282 q 434 434 434 369 q 521 434 456 434 q 521 521 521 456 q 521 608 521 543 q 521 694 521 629 q 521 781 521 716 q 521 868 521 803 q 608 868 543 868 q 608 955 608 890 q 608 1042 608 977 q 694 1042 629 1042 q 694 955 694 1020 q 781 955 716 955 q 781 868 781 933 q 868 868 803 868 q 868 781 868 846 q 868 694 868 760 q 781 694 846 694 q 781 608 781 673 q 694 608 760 608 q 694 521 694 586 q 608 521 673 521 q 608 434 608 499 q 608 347 608 412 q 608 260 608 326 q 521 260 586 260 q 521 174 521 239 q 521 87 521 152 q 521 0 521 65 q 434 0 499 0 m 434 434 q 347 434 412 434 q 347 521 347 456 q 260 521 326 521 q 260 608 260 543 q 174 608 239 608 q 174 694 174 629 q 87 694 152 694 q 87 781 87 716 q 0 781 65 781 q 0 868 0 803 q 0 955 0 890 q 87 955 22 955 q 87 1042 87 977 q 174 1042 109 1042 q 174 955 174 1020 q 260 955 195 955 q 260 868 260 933 q 260 781 260 846 q 347 781 282 781 q 347 694 347 760 q 347 608 347 673 q 434 608 369 608 q 434 521 434 586 q 434 434 434 499 m 347 1042 q 347 1128 347 1063 q 434 1128 369 1128 q 434 1042 434 1107 q 347 1042 412 1042 z "},"":{"ha":868,"x_min":0,"x_max":781,"o":"m 174 0 q 174 87 174 22 q 174 174 174 109 q 260 174 195 174 q 260 87 260 152 q 260 0 260 65 q 174 0 239 0 m 347 174 q 347 260 347 195 q 434 260 369 260 q 434 174 434 239 q 347 174 412 174 m 521 260 q 521 347 521 282 q 608 347 543 347 q 608 260 608 326 q 521 260 586 260 m 174 174 q 87 174 152 174 q 87 260 87 195 q 87 347 87 282 q 87 434 87 369 q 0 434 65 434 q 0 521 0 456 q 0 608 0 543 q 0 694 0 629 q 0 781 0 716 q 0 868 0 803 q 0 955 0 890 q 87 955 22 955 q 87 1042 87 977 q 174 1042 109 1042 q 260 1042 195 1042 q 260 955 260 1020 q 260 868 260 933 q 260 781 260 846 q 347 781 282 781 q 347 868 347 803 q 434 868 369 868 q 434 781 434 846 q 521 781 456 781 q 608 781 543 781 q 608 694 608 760 q 694 694 629 694 q 694 608 694 673 q 781 608 716 608 q 781 521 781 586 q 781 434 781 499 q 694 434 760 434 q 694 347 694 412 q 608 347 673 347 q 608 434 608 369 q 608 521 608 456 q 521 521 586 521 q 521 608 521 543 q 434 608 499 608 q 347 608 412 608 q 260 608 326 608 q 260 694 260 629 q 260 781 260 716 q 174 781 239 781 q 174 694 174 760 q 174 608 174 673 q 174 521 174 586 q 174 434 174 499 q 174 347 174 412 q 174 260 174 326 q 174 174 174 239 z "},"":{"ha":868,"x_min":0,"x_max":781,"o":"m 434 0 q 434 87 434 22 q 521 87 456 87 q 521 0 521 65 q 434 0 499 0 m 174 0 q 174 87 174 22 q 260 87 195 87 q 260 0 260 65 q 174 0 239 0 m 608 87 q 608 174 608 109 q 694 174 629 174 q 694 87 694 152 q 608 87 673 87 m 174 174 q 174 260 174 195 q 174 347 174 282 q 87 347 152 347 q 87 434 87 369 q 87 521 87 456 q 0 521 65 521 q 0 608 0 543 q 0 694 0 629 q 0 781 0 716 q 0 868 0 803 q 87 868 22 868 q 87 955 87 890 q 174 955 109 955 q 174 868 174 933 q 260 868 195 868 q 260 781 260 846 q 260 694 260 760 q 260 608 260 673 q 174 608 239 608 q 174 521 174 586 q 174 434 174 499 q 260 434 195 434 q 260 347 260 412 q 260 260 260 326 q 260 174 260 239 q 174 174 239 174 m 694 174 q 694 260 694 195 q 608 260 673 260 q 608 347 608 282 q 521 347 586 347 q 521 434 521 369 q 434 434 499 434 q 434 521 434 456 q 434 608 434 543 q 434 694 434 629 q 521 694 456 694 q 521 781 521 716 q 434 781 499 781 q 347 781 412 781 q 347 868 347 803 q 260 868 326 868 q 260 955 260 890 q 260 1042 260 977 q 347 1042 282 1042 q 434 1042 369 1042 q 521 1042 456 1042 q 608 1042 543 1042 q 608 955 608 1020 q 694 955 629 955 q 694 868 694 933 q 694 781 694 846 q 694 694 694 760 q 608 694 673 694 q 608 608 608 673 q 521 608 586 608 q 521 521 521 586 q 608 521 543 521 q 608 434 608 499 q 694 434 629 434 q 694 347 694 412 q 781 347 716 347 q 781 260 781 326 q 781 174 781 239 q 694 174 760 174 z "},"":{"ha":868,"x_min":0,"x_max":781,"o":"m 694 0 q 694 87 694 22 q 781 87 716 87 q 781 0 781 65 q 694 0 760 0 m 347 434 q 347 521 347 456 q 260 521 326 521 q 260 434 260 499 q 174 434 239 434 q 174 347 174 412 q 87 347 152 347 q 87 260 87 326 q 87 174 87 239 q 174 174 109 174 q 174 87 174 152 q 260 87 195 87 q 347 87 282 87 q 434 87 369 87 q 521 87 456 87 q 521 0 521 65 q 434 0 499 0 q 347 0 412 0 q 260 0 326 0 q 174 0 239 0 q 87 0 152 0 q 87 87 87 22 q 0 87 65 87 q 0 174 0 109 q 0 260 0 195 q 0 347 0 282 q 0 434 0 369 q 0 521 0 456 q 87 521 22 521 q 87 608 87 543 q 174 608 109 608 q 174 694 174 629 q 260 694 195 694 q 260 781 260 716 q 347 781 282 781 q 347 694 347 760 q 434 694 369 694 q 434 608 434 673 q 521 608 456 608 q 521 694 521 629 q 521 781 521 716 q 608 781 543 781 q 694 781 629 781 q 694 694 694 760 q 781 694 716 694 q 781 608 781 673 q 781 521 781 586 q 781 434 781 499 q 694 434 760 434 q 694 347 694 412 q 694 260 694 326 q 694 174 694 239 q 694 87 694 152 q 608 87 673 87 q 608 174 608 109 q 608 260 608 195 q 521 260 586 260 q 521 347 521 282 q 521 434 521 369 q 521 521 521 456 q 434 521 499 521 q 434 434 434 499 q 347 434 412 434 m 521 781 q 434 781 499 781 q 434 868 434 803 q 521 868 456 868 q 521 781 521 846 m 434 868 q 347 868 412 868 q 260 868 326 868 q 260 955 260 890 q 174 955 239 955 q 174 1042 174 977 q 260 1042 195 1042 q 347 1042 282 1042 q 434 1042 369 1042 q 434 955 434 1020 q 434 868 434 933 z "}}}
